<svg xmlns="http://www.w3.org/2000/svg" fill="none" viewBox="0 0 113 18"><path fill="currentColor" d="M.48 8.438c.402-2.09 2.245-3.536 4.81-3.536 2.965 0 5.289 1.285 5.289 5.303v7.474H8.014l-.32-1.608c-.882 1.125-2.084 1.849-3.847 1.849C1.683 17.92 0 16.554 0 14.062c0-2.49 2.244-4.098 5.37-4.098h2.083v-.562c0-1.447-1.042-1.848-2.244-1.848-.881 0-1.763.321-2.164 1.446L.481 8.437Zm4.088 6.83c1.443 0 2.885-.964 2.885-2.572v-.24H5.45c-1.363-.081-2.164.482-2.164 1.607 0 .562.48 1.205 1.282 1.205ZM60.908 8.438c.4-2.09 2.244-3.536 4.808-3.536 2.966 0 5.29 1.285 5.29 5.303v7.474H68.44l-.32-1.608c-.882 1.125-2.084 1.849-3.847 1.849-2.164 0-3.847-1.366-3.847-3.858 0-2.49 2.244-4.098 5.37-4.098h2.083v-.562c0-1.447-1.042-1.848-2.244-1.848-.881 0-1.763.321-2.164 1.446l-2.564-.563Zm4.087 6.83c1.443 0 2.885-.964 2.885-2.572v-.24h-2.084c-1.362 0-2.163.482-2.163 1.607.08.562.56 1.205 1.362 1.205ZM73.81 17.759V5.062h3.126v2.09c.882-1.527 2.324-2.25 3.687-2.25.56 0 1.041.08 1.522.24l-.56 2.894c-.401-.241-.802-.402-1.283-.402-1.843 0-3.366 1.527-3.366 5.545v4.5l-3.125.08ZM88.797 4.902c1.282 0 2.485.643 3.046 1.366V0h3.125v17.759h-3.125v-1.286C91.442 17.116 90.32 18 88.797 18c-3.766 0-5.69-2.652-5.69-6.509s1.924-6.59 5.69-6.59Zm.481 10.366c1.603 0 2.885-1.366 2.885-3.857s-1.282-3.857-2.885-3.857c-1.603 0-2.885 1.366-2.885 3.857 0 2.49 1.282 3.857 2.885 3.857ZM106.188 6.91l-1.843 1.688c-.561-.803-1.443-1.125-2.084-1.125s-1.202.402-1.202 1.045c0 .562.481.964 1.202 1.205 1.763.643 4.568 1.206 4.568 3.857 0 2.33-1.763 4.179-4.488 4.179-2.645 0-4.408-1.848-4.969-3.375l2.485-1.366c.481 1.205 1.282 2.09 2.564 2.09.962 0 1.603-.483 1.603-1.367 0-1.045-1.603-1.286-3.125-1.928-1.363-.563-2.565-1.447-2.565-3.376 0-1.928 1.603-3.696 4.007-3.696 1.603.08 3.126.964 3.847 2.17ZM41.594 5.063 39.35 13.82l-2.164-8.758H34.3l-2.084 8.758-1.763-5.062-.24.562-.962 3.295 1.603 5.143h2.724l2.164-8.197 2.164 8.197h2.805L44.72 5.062h-3.125ZM56.58 5.063l-2.244 8.758-2.164-8.758h-2.885l-2.084 8.758L45.44 8.76l-.24.562-1.042 3.295 1.683 5.143h2.725l2.164-8.197 2.164 8.197h2.724l4.088-12.697H56.58ZM29.733 5.063l-4.008 12.616h-2.724l-2.164-8.116-2.164 8.196h-2.725L11.941 5.143h3.126l2.244 8.678 2.163-8.678h2.886l2.163 8.678 2.244-8.678 2.966-.08ZM110.916 13.66c1.202 0 2.084.885 2.084 2.09 0 1.205-.882 2.09-2.084 2.09s-2.083-.885-2.083-2.09c0-1.205.881-2.09 2.083-2.09Z"/></svg>