<svg xmlns="http://www.w3.org/2000/svg" fill="none" viewBox="0 0 144 18"><path fill="currentColor" d="M144 11.211c0 .926-.293 1.543-.976 2.058-.586.514-1.465.72-2.636.72-1.172 0-2.148-.206-2.831-.618v-1.337c.39.206.878.412 1.366.515.489.102.977.205 1.465.205.683 0 1.269-.103 1.659-.308.391-.206.586-.617.586-1.132 0-.411-.195-.72-.488-.925-.293-.309-.879-.618-1.757-.926-.879-.309-1.465-.617-1.757-.823-.391-.206-.586-.514-.781-.823-.196-.308-.293-.72-.293-1.131 0-.72.293-1.337.878-1.852.586-.514 1.367-.72 2.441-.72a6.7 6.7 0 0 1 2.831.617l-.488 1.132c-.879-.412-1.757-.617-2.441-.617-.683 0-1.171.103-1.464.308a1.093 1.093 0 0 0-.488.926c0 .206.097.514.195.617.098.206.293.309.586.514.293.206.781.412 1.562.72 1.074.412 1.757.823 2.148 1.235.488.514.683 1.028.683 1.645ZM5.858 2.263c-1.27 0-2.343.411-3.124 1.337-.781.926-1.172 2.16-1.172 3.806 0 1.645.39 2.88 1.074 3.805.78.926 1.757 1.338 3.124 1.338.879 0 1.757-.206 2.831-.515v1.337a8.928 8.928 0 0 1-3.026.515c-1.758 0-3.124-.515-4.1-1.646C.487 11.108 0 9.463 0 7.406 0 6.069.195 4.937.683 4.01c.489-.925 1.172-1.748 1.953-2.262.78-.515 1.855-.823 3.124-.823 1.27 0 2.343.205 3.32.72L8.493 2.88c-.781-.309-1.66-.617-2.636-.617Zm12.203 8.126c0 1.131-.39 1.954-1.171 2.571-.782.617-1.758.926-3.125.926-1.464 0-2.538-.206-3.319-.617v-1.44c.488.205 1.074.411 1.562.514.488.103 1.172.206 1.757.206.977 0 1.66-.206 2.05-.515.489-.411.684-.926.684-1.543 0-.411-.098-.822-.293-1.028-.195-.309-.488-.514-.878-.823a16.93 16.93 0 0 0-1.758-.823c-1.074-.411-1.952-.926-2.343-1.543-.488-.617-.683-1.337-.683-2.263 0-.925.39-1.748 1.074-2.365.683-.617 1.66-.823 2.733-.823 1.172 0 2.246.206 3.32.72l-.391 1.234c-.976-.411-1.953-.617-2.929-.617-.78 0-1.269.206-1.757.514-.39.309-.586.823-.586 1.44 0 .412.098.823.195 1.029.196.308.39.514.781.72.39.206.88.514 1.66.823 1.27.514 2.148 1.028 2.636 1.543.586.617.781 1.337.781 2.16Zm9.275 0c0 1.131-.39 1.954-1.172 2.571-.78.617-1.757.926-3.124.926-1.464 0-2.538-.206-3.32-.617v-1.44c.489.205 1.075.411 1.563.514.488.103 1.171.206 1.757.206.976 0 1.66-.206 2.05-.515.488-.411.684-.926.684-1.543 0-.411-.098-.822-.293-1.028-.196-.309-.489-.514-.879-.823-.39-.206-.976-.514-1.757-.823-1.074-.411-1.953-.926-2.343-1.543-.488-.617-.684-1.337-.684-2.263 0-.925.39-1.748 1.074-2.365.684-.617 1.66-.823 2.734-.823 1.171 0 2.245.206 3.32.72l-.391 1.234c-.977-.411-1.953-.617-2.93-.617-.78 0-1.268.206-1.756.514-.391.309-.586.823-.586 1.44 0 .412.097.823.195 1.029.195.308.39.514.781.72.39.206.879.514 1.66.823 1.269.514 2.147 1.028 2.636 1.543.488.617.78 1.337.78 2.16ZM39.539 7.2c0 2.057-.586 3.703-1.66 4.834-1.074 1.132-2.636 1.749-4.686 1.749h-3.905V1.13h4.1c1.953 0 3.417.515 4.491 1.543 1.074 1.029 1.66 2.572 1.66 4.526Zm-3.32.103c0-1.132-.195-2.057-.683-2.572-.39-.514-1.074-.822-1.952-.822h-.977v7.097h.684c.976 0 1.66-.309 2.148-.926.585-.617.78-1.543.78-2.777Zm9.763 6.686c-1.562 0-2.733-.412-3.612-1.338-.878-.822-1.269-2.057-1.269-3.702 0-1.646.39-2.88 1.172-3.806.78-.926 1.952-1.337 3.416-1.337 1.367 0 2.441.411 3.222 1.131.781.72 1.172 1.852 1.172 3.292V9.77h-5.76c0 .515.195.926.585 1.337.391.31.88.515 1.465.515.586 0 1.074-.103 1.562-.206s.976-.308 1.562-.617v2.469c-.488.308-.976.411-1.562.514-.586.103-1.172.206-1.953.206Zm-.195-7.818c-.39 0-.683.103-.976.412-.293.206-.39.617-.488 1.131h2.733c0-.514-.097-.823-.39-1.131-.098-.309-.39-.412-.879-.412ZM59.064 10.8c0 1.029-.292 1.851-.976 2.366-.683.514-1.66.823-2.929.823-.683 0-1.269 0-1.757-.103s-1.074-.206-1.562-.412V10.8c.488.206 1.074.411 1.66.617.585.103 1.074.206 1.562.206.683 0 1.074-.206 1.074-.514 0-.206-.098-.309-.293-.412a38.269 38.269 0 0 0-1.66-.823c-.879-.411-1.464-.823-1.757-1.234-.293-.514-.488-1.029-.488-1.749 0-.925.292-1.645.976-2.16.683-.514 1.562-.72 2.831-.72.586 0 1.172.103 1.757.206.586.103 1.074.309 1.66.617l-.879 2.16a5.46 5.46 0 0 0-1.366-.514c-.489-.103-.879-.206-1.172-.206-.488 0-.78.103-.78.412 0 .205.097.308.292.411.195.103.683.309 1.562.72.683.309 1.171.514 1.464.823.293.309.586.617.684.926 0 .205.097.72.097 1.234Zm1.758-9.257c0-.514.097-.926.39-1.132A2.1 2.1 0 0 1 62.482 0c.585 0 1.073.103 1.269.411.292.206.39.618.39 1.132 0 1.028-.586 1.44-1.757 1.44-1.074.103-1.562-.412-1.562-1.44Zm3.221 12.24h-3.221V4.01h3.221v9.772ZM75.075 4.01v1.646l-1.269.514c.195.309.293.72.293 1.132 0 1.028-.39 1.851-1.074 2.468-.683.618-1.757.823-3.124.823-.39 0-.586 0-.781-.103-.098.103-.098.309-.098.412 0 .206.098.308.39.411.294.103.587.103.977.103h1.562c2.05 0 3.124.926 3.124 2.777 0 1.234-.488 2.16-1.464 2.777-.976.618-2.343 1.029-4.1 1.029-1.27 0-2.343-.206-3.027-.72-.683-.412-1.074-1.132-1.074-1.954 0-1.132.684-1.955 2.05-2.263-.292-.103-.488-.309-.78-.617-.196-.309-.294-.515-.294-.823 0-.309.098-.617.196-.823.195-.206.488-.514.976-.823-.488-.206-.879-.617-1.172-1.028-.292-.515-.39-1.029-.39-1.749 0-1.029.39-1.851 1.074-2.469.683-.617 1.66-.925 2.929-.925.195 0 .488 0 .878.103.39 0 .684.102.879.102h3.32Zm-7.029 11.006c0 .309.098.514.39.72.293.206.684.206 1.172.206.781 0 1.367-.103 1.855-.309.488-.205.683-.514.683-.823 0-.308-.097-.411-.39-.514a3.647 3.647 0 0 0-1.27-.206h-1.268c-.39 0-.586.103-.879.206a.958.958 0 0 0-.293.72Zm.976-7.817c0 1.029.293 1.543.977 1.543.293 0 .585-.103.683-.412.195-.205.293-.617.293-1.131 0-1.029-.293-1.543-.976-1.543-.586 0-.977.514-.977 1.543ZM82.3 8.434c0-.617-.098-1.131-.293-1.44-.196-.308-.488-.514-.879-.514-.586 0-.976.206-1.171.72-.196.411-.39 1.234-.39 2.366v4.32h-3.223V4.114h2.441l.39 1.235h.196c.293-.412.683-.823 1.171-1.029.489-.206 1.074-.309 1.66-.309 1.074 0 1.855.309 2.44.926.587.617.88 1.543.88 2.674v6.378H82.3V8.434Zm13.472 5.349L94.308 9.77h-4.784l-1.464 4.012h-1.367L91.477 1.13h1.171l4.686 12.652h-1.562ZM93.82 8.434l-1.367-3.908a20.151 20.151 0 0 1-.586-1.852c-.098.515-.293 1.132-.488 1.852l-1.367 3.908h3.808Zm12.203 5.349-1.66-5.554c-.097-.309-.292-1.132-.585-2.263h-.098a19.731 19.731 0 0 1-.586 2.365l-1.659 5.555h-1.562l-2.441-9.463h1.464c.586 2.366.977 4.217 1.367 5.451.293 1.234.488 2.057.488 2.469h.098c.097-.309.195-.72.293-1.235.097-.514.293-.925.39-1.234l1.66-5.451h1.464l1.562 5.451c.293 1.029.488 1.852.586 2.469h.098c0-.206.097-.514.195-.926.098-.411.683-2.777 1.66-6.994h1.366l-2.44 9.463h-1.66v-.103Zm11.227 0-.293-1.337h-.097c-.488.617-.879 1.028-1.367 1.234-.488.206-.976.309-1.66.309-.878 0-1.562-.206-2.05-.72-.488-.515-.781-1.132-.781-2.058 0-1.954 1.464-2.88 4.393-2.982l1.562-.103v-.617c0-.72-.195-1.338-.488-1.646-.293-.309-.781-.514-1.464-.514-.781 0-1.562.205-2.539.72l-.39-1.132c.488-.206.879-.411 1.464-.617.488-.103 1.074-.206 1.562-.206 1.074 0 1.855.206 2.343.72.489.515.781 1.337.781 2.366v6.48h-.976v.103Zm-3.124-1.029c.879 0 1.465-.205 1.953-.72.488-.514.683-1.131.683-2.057v-.823l-1.367.103c-1.074 0-1.855.206-2.343.514-.488.309-.683.823-.683 1.44 0 .515.195.926.488 1.132.39.308.781.411 1.269.411Zm11.032-8.64c.39 0 .781 0 1.074.103l-.195 1.337c-.391-.103-.684-.103-.977-.103-.683 0-1.366.309-1.855.926-.488.617-.781 1.44-.781 2.366v5.04h-1.366V4.32h1.074l.195 1.749h.097c.293-.618.781-1.132 1.172-1.44.488-.309.976-.515 1.562-.515Zm8.884 8.435c-.683.925-1.66 1.44-2.929 1.44-1.171 0-2.05-.412-2.733-1.235-.684-.823-.977-2.057-.977-3.6 0-1.543.293-2.777.977-3.6.683-.823 1.562-1.337 2.733-1.337 1.172 0 2.148.514 2.831 1.44h.098l-.098-.72V.31h1.367v13.474h-1.074l-.195-1.234Zm-2.734.205c.977 0 1.563-.308 2.051-.823.39-.514.585-1.44.585-2.571v-.309c0-1.337-.195-2.262-.683-2.88-.39-.617-1.074-.822-2.05-.822-.781 0-1.367.308-1.855 1.028-.391.617-.683 1.543-.683 2.777 0 1.235.195 2.16.585 2.777.586.515 1.172.823 2.05.823Z"/></svg>