<svg xmlns="http://www.w3.org/2000/svg" fill="none" viewBox="0 0 59 18"><path fill="currentColor" d="M48.986 10.005H41.68v2.434h7.307v-2.434Z"/><path fill="currentColor" d="M55.076 4.867h-.948v-.946A3.925 3.925 0 0 0 50.204 0H38.025c-1.556 0-2.875.913-3.518 2.163l-1.353 2.705L31.8 2.129A3.939 3.939 0 0 0 28.282 0c-1.556 0-2.875.913-3.518 2.163L23.41 4.868l-1.353-2.739A3.939 3.939 0 0 0 18.54 0H8.796A3.926 3.926 0 0 0 4.87 3.92v.948h-.947A3.925 3.925 0 0 0 0 8.788c0 2.164 1.76 3.921 3.924 3.921h.948v.947a3.925 3.925 0 0 0 7.848 0v-.947h3.383a3.86 3.86 0 0 0 2.132-.642l1.657 3.346a3.906 3.906 0 0 0 3.518 2.164 3.911 3.911 0 0 0 3.519-2.164l1.353-2.737 1.354 2.737a3.907 3.907 0 0 0 3.518 2.164 3.911 3.911 0 0 0 3.518-2.164l.135-.304a3.915 3.915 0 0 0 3.654 2.468h9.743a3.925 3.925 0 0 0 3.924-3.921v-.947h.948A3.925 3.925 0 0 0 59 8.79a3.926 3.926 0 0 0-3.924-3.922Zm0 5.138h-3.654v3.65a1.212 1.212 0 0 1-1.218 1.218h-9.743a1.212 1.212 0 0 1-1.218-1.217V8.789a1.211 1.211 0 0 1 1.218-1.217h8.525V5.138H38.77l-4.533 9.059a1.204 1.204 0 0 1-2.165 0l-3.789-7.538-3.789 7.538a1.205 1.205 0 0 1-2.165 0l-4.533-9.059h-7.781v2.434h6.089a1.214 1.214 0 0 1 1.127 1.683 1.213 1.213 0 0 1-1.127.75h-6.09v3.65a1.213 1.213 0 0 1-1.217 1.218 1.211 1.211 0 0 1-1.218-1.217v-3.65H3.924a1.214 1.214 0 0 1-1.126-1.684 1.212 1.212 0 0 1 1.127-.75h3.654V3.92a1.211 1.211 0 0 1 1.217-1.216h9.743c.474 0 .88.27 1.083.675l3.788 7.572L27.2 3.38a1.205 1.205 0 0 1 2.165 0l3.789 7.572 3.789-7.572a1.204 1.204 0 0 1 1.083-.675h12.178a1.213 1.213 0 0 1 1.218 1.216v3.651h3.654a1.214 1.214 0 0 1 1.127 1.683 1.21 1.21 0 0 1-1.127.75Z"/></svg>