<svg xmlns="http://www.w3.org/2000/svg" fill="none" viewBox="0 0 93 35"><path fill="#fff" d="M0 23.23V2.666h5.165V23.23H0ZM10.496 21.15c-1.561-1.522-2.341-3.554-2.341-6.093s.78-4.565 2.34-6.078c1.56-1.513 3.58-2.27 6.057-2.27 2.053 0 3.795.493 5.225 1.478 1.43.988 2.376 2.398 2.84 4.234h-5.588c-.484-.976-1.274-1.464-2.371-1.464-1.098 0-1.914.376-2.447 1.126-.534.752-.8 1.744-.8 2.974 0 1.23.266 2.221.8 2.973.534.752 1.314 1.129 2.34 1.129.645 0 1.149-.109 1.511-.322.362-.215.684-.597.967-1.144h5.588c-.464 1.758-1.42 3.155-2.87 4.188-1.45 1.037-3.181 1.553-5.195 1.553-2.477 0-4.496-.76-6.056-2.284ZM37.334 18.103c.684-.702 1.027-1.718 1.027-3.046 0-1.328-.353-2.339-1.057-3.032-.706-.692-1.541-1.04-2.508-1.04-.966 0-1.797.348-2.491 1.04-.695.693-1.042 1.704-1.042 3.032s.357 2.344 1.072 3.046c.714.704 1.555 1.056 2.522 1.056.967 0 1.792-.352 2.477-1.056Zm-8.775 3.018c-1.702-1.543-2.552-3.574-2.552-6.094 0-2.519.846-4.535 2.537-6.048 1.692-1.513 3.786-2.27 6.283-2.27 2.497 0 4.586.757 6.267 2.27s2.522 3.53 2.522 6.048c0 2.52-.835 4.551-2.507 6.094-1.67 1.542-3.755 2.313-6.252 2.313-2.498 0-4.597-.77-6.298-2.313ZM51.802 6.885v2.401c1.066-1.719 2.768-2.578 5.104-2.578 1.933 0 3.499.625 4.698 1.875 1.197 1.25 1.796 2.95 1.796 5.097v9.55h-5.134v-8.876c0-1.055-.287-1.87-.861-2.447-.575-.574-1.365-.864-2.372-.864s-1.797.29-2.37.864c-.575.577-.861 1.392-.861 2.447v8.876h-5.166V6.885h5.166ZM67.477 23.23V6.885h5.166V23.23h-5.166ZM72.19 5.04c-.584.566-1.298.848-2.144.848-.846 0-1.56-.282-2.144-.849-.584-.567-.876-1.265-.876-2.095 0-.83.291-1.528.876-2.094.584-.567 1.298-.85 2.144-.85.846 0 1.56.283 2.144.85.584.566.876 1.264.876 2.094 0 .83-.292 1.528-.876 2.095ZM77.974 21.15c-1.56-1.522-2.341-3.554-2.341-6.093s.78-4.565 2.34-6.078c1.562-1.513 3.58-2.27 6.057-2.27 2.054 0 3.796.493 5.225 1.478 1.43.988 2.377 2.398 2.84 4.234h-5.588c-.484-.976-1.274-1.464-2.37-1.464-1.099 0-1.914.376-2.447 1.126-.534.752-.802 1.744-.802 2.974 0 1.23.268 2.221.802 2.973.533.752 1.314 1.129 2.34 1.129.644 0 1.148-.109 1.51-.322.363-.215.685-.597.967-1.144h5.588c-.463 1.758-1.42 3.155-2.87 4.188-1.45 1.037-3.181 1.553-5.195 1.553-2.477 0-4.495-.76-6.056-2.284ZM21.735 30.466v4.163h-1.046V32.28l-.997 2.35h-.776l-.997-2.35v2.35h-1.045v-4.164h1.198l1.236 2.87 1.229-2.87h1.198ZM28.051 30.455v.771h-1.553v.895h1.37v.771h-1.37v.967h1.553v.77h-2.599v-4.174h2.6ZM34.544 30.455h1.046v4.174h-1.046l-1.748-2.626v2.626H31.75v-4.174h1.045l1.748 2.626v-2.626ZM40.762 31.207a.494.494 0 0 0-.322.102.35.35 0 0 0-.125.29c0 .127.039.228.116.305a.745.745 0 0 0 .303.178c.124.043.262.082.416.12.152.037.304.082.455.136a2 2 0 0 1 .413.198c.124.08.225.19.302.334.078.145.116.318.116.52 0 .352-.147.653-.443.904-.295.252-.685.377-1.167.377-.483 0-.873-.112-1.168-.339-.296-.225-.443-.544-.443-.96h1.113c.028.332.203.498.525.498a.51.51 0 0 0 .354-.116.375.375 0 0 0 .13-.293.39.39 0 0 0-.117-.291.82.82 0 0 0-.303-.178 4.709 4.709 0 0 0-.415-.121 4.368 4.368 0 0 1-.456-.139 2.332 2.332 0 0 1-.412-.199.852.852 0 0 1-.303-.331 1.07 1.07 0 0 1-.116-.514c0-.387.148-.698.446-.931.297-.233.677-.35 1.14-.35.462 0 .837.102 1.122.305.285.205.434.525.447.964h-1.137a.545.545 0 0 0-.15-.346.439.439 0 0 0-.321-.123ZM50.825 30.466h1.125l-1.198 4.163h-1.199l-.751-2.639-.746 2.64h-1.199l-1.217-4.164h1.12l.745 2.995.764-2.994h1.187l.733 2.946.636-2.946ZM57.852 30.455v.771h-1.554v.895h1.37v.771h-1.37v.967h1.554v.77h-2.6v-4.174h2.6ZM62.76 33.158h1.014l-.507-1.482-.508 1.482Zm1.515 1.471-.238-.699h-1.541l-.238.7h-1.113l1.492-4.175h1.271l1.486 4.174h-1.119ZM69.754 31.237v1.003h.648a.511.511 0 0 0 .376-.136.483.483 0 0 0 .138-.36.493.493 0 0 0-.14-.364.5.5 0 0 0-.374-.143h-.648Zm0 1.774v1.618h-1.045v-4.162h1.693c.498 0 .885.124 1.161.373.278.249.416.55.416.901 0 .242-.075.477-.225.706-.152.229-.398.391-.74.487l1.05 1.695h-1.222l-.966-1.618h-.123Z"></path></svg>