<svg xmlns="http://www.w3.org/2000/svg" fill="none" viewBox="0 0 115 31"><path fill="#fff" d="M5.22 5.435v2.449c1.078-1.752 2.797-2.628 5.158-2.628 1.954 0 3.536.637 4.747 1.91 1.21 1.274 1.817 3.006 1.817 5.196v9.734h-5.19V13.05c0-1.075-.29-1.906-.87-2.493-.58-.587-1.379-.881-2.397-.881-1.017 0-1.816.294-2.396.881-.579.587-.87 1.418-.87 2.493v9.047H0V5.435h5.22ZM31.441 16.811c.753-.716 1.13-1.731 1.13-3.045 0-1.314-.377-2.324-1.13-3.03-.752-.707-1.618-1.061-2.595-1.061-.977 0-1.842.359-2.595 1.074-.752.717-1.129 1.733-1.129 3.046 0 1.314.377 2.325 1.129 3.031.753.707 1.618 1.06 2.595 1.06.977 0 1.843-.357 2.595-1.075Zm-9.371 3.106c-1.507-1.593-2.26-3.634-2.26-6.122s.753-4.533 2.26-6.135c1.505-1.603 3.343-2.404 5.51-2.404 2.166 0 3.83.787 4.99 2.358V5.435h5.221v16.661h-5.22v-2.418c-1.262 1.752-2.952 2.627-5.068 2.627-2.116 0-3.928-.795-5.433-2.388ZM49.3 17.767h1.861v4.33h-2.655c-1.914 0-3.394-.414-4.442-1.24-1.049-.826-1.572-2.244-1.572-4.255V9.675h-1.588v-4.24h1.588V1.374h5.22v4.06h3.419v4.24h-3.419v6.928c0 .777.528 1.165 1.588 1.165ZM65.997 5.435h5.22v16.661h-5.22v-2.448c-1.08 1.753-2.799 2.628-5.16 2.628-1.953 0-3.536-.637-4.746-1.912-1.211-1.273-1.816-3.005-1.816-5.195V5.435h5.188v9.048c0 1.074.292 1.905.87 2.492.58.588 1.38.881 2.397.881s1.817-.293 2.396-.881c.58-.587.87-1.418.87-2.492V5.435ZM80.71 5.435V8.54c1.221-2.189 2.849-3.284 4.884-3.284v5.195h-1.282c-1.201 0-2.101.28-2.702.836-.6.558-.9 1.533-.9 2.926v7.883h-5.22V5.435h5.22ZM98.505 16.811c.753-.716 1.13-1.731 1.13-3.045 0-1.314-.377-2.324-1.13-3.03-.752-.707-1.616-1.061-2.594-1.061-.977 0-1.842.359-2.595 1.074-.752.717-1.129 1.733-1.129 3.046 0 1.314.377 2.325 1.13 3.031.752.707 1.617 1.06 2.594 1.06.978 0 1.842-.357 2.594-1.075Zm-9.37 3.106c-1.507-1.593-2.26-3.634-2.26-6.122s.753-4.533 2.26-6.135c1.505-1.603 3.342-2.404 5.51-2.404 2.167 0 3.831.787 4.99 2.358V5.435h5.221v16.661h-5.22v-2.418c-1.263 1.752-2.952 2.627-5.068 2.627-2.117 0-3.928-.795-5.434-2.388ZM109.129 22.096V0h5.22v22.096h-5.22ZM5.627 25.013v5.012h-.841v-3.433l-1.562 3.433H2.64l-1.57-3.433v3.433H.23v-5.012h.907l1.8 3.93 1.79-3.93h.9ZM11.448 30.025v-5.012h.84v5.012h-.84ZM21.481 25.006h.84v5.019h-.84l-2.528-3.743v3.743h-.84v-5.018h.84l2.528 3.734v-3.735ZM30.975 25.006v.642h-1.991v1.52h1.77v.635h-1.77v1.58h1.99v.642h-2.83v-5.018h2.83ZM37.565 25.654v1.695h.93c.318 0 .557-.074.715-.224.156-.148.235-.356.235-.623 0-.266-.079-.475-.235-.624-.158-.148-.397-.224-.716-.224h-.929Zm0 2.338v2.033h-.839v-5.012h1.768c.58 0 1.027.14 1.342.422.314.281.471.638.471 1.071 0 .336-.104.64-.312.908-.21.27-.531.445-.963.527l1.357 2.084h-1.025l-1.283-2.033h-.516ZM47.273 28.359h1.688L48.121 26l-.848 2.358Zm2.285 1.666-.368-1.024h-2.145l-.368 1.024h-.878l1.835-5.018h.974l1.835 5.018h-.884ZM55.957 25.013h.84v4.384h1.733v.628h-2.573v-5.012ZM76.647 25.013h.9l-1.518 5.012h-.951L74 26.232l-1.142 3.793-.943.006-1.453-5.018h.892l1.062 4.08 1.149-4.08h.943l1.07 4.06 1.069-4.06ZM84.13 28.359h1.688L84.978 26l-.848 2.358Zm2.286 1.666-.369-1.024h-2.146l-.368 1.024h-.878l1.835-5.018h.974l1.835 5.018h-.883ZM92.548 25.654v-.641h3.575v.641H94.76v4.371h-.84v-4.37h-1.372ZM104.52 25.006v.642h-1.991v1.52h1.769v.635h-1.769v1.58h1.991v.642h-2.831v-5.018h2.831ZM111.109 25.654v1.695h.929c.319 0 .558-.074.715-.224.157-.148.236-.356.236-.623 0-.266-.079-.475-.236-.624-.157-.148-.396-.224-.715-.224h-.929Zm0 2.338v2.033h-.839v-5.012h1.768c.58 0 1.027.14 1.342.422.314.281.471.638.471 1.071 0 .336-.104.64-.313.908-.208.27-.53.445-.962.527l1.357 2.084h-1.025l-1.283-2.033h-.516Z"></path></svg>