<svg xmlns="http://www.w3.org/2000/svg" fill="none" viewBox="0 0 91 46"><path fill="#fff" d="m23.73 20.448-10.877-15.6v9.064c0 2.325.144 6.274 4.357 6.274v.262H8.034v-.262c3.982 0 4.559-3.98 4.559-6.274V4.5l-1.356-1.947C9.507.26 8.38.289 7.63.23v-.232h9.203l9.81 14.263V6.505c0-2.702-.924-6.275-4.127-6.275v-.232h8.742V.23c-3.577 0-4.356 3.573-4.356 6.275v13.943H23.73ZM49.374 14.755v5.693H32.525v-.262c1.212 0 1.675-1.743 1.675-3.718V4.007c0-1.801-.405-3.777-1.675-3.777v-.232H49v5.954h-.26C48.74.29 40.864.26 40.864.26h-1.038v9.73h2.337c.029 0 3.086.088 3.404-3.428h.26v7.118h-.26c-.318-3.486-3.376-3.428-3.404-3.428h-2.337v9.934h1.038s8.251.32 8.251-5.43h.26ZM83.965-.002V.23c-1.155 0-2.915.9-5.02 6.013l-5.05 14.205h-1.038c-2.683-6.304-4.414-10.37-5.568-13.014l-4.617 13.014h-1.038c-7.27-17.11-7.645-17.864-7.645-17.864C53.007.26 52.604.289 51.854.23v-.232h9.001V.23c-1.846 0-.375 3.37-.375 3.37l4.357 9.963 2.307-6.478c-1.76-4.124-1.932-4.501-1.932-4.501C64.231.26 63.826.289 63.076.23v-.232h9.002V.23c-1.846 0-.375 3.37-.375 3.37l4.328 9.992 2.596-7.349C79.348 4.181 78.714.23 75.77.23v-.232h8.195ZM32.111 25.18v.232c-1.155 0-2.915.9-5.02 6.012L22.04 45.63h-1.038c-2.683-6.304-4.414-10.37-5.569-13.014l-4.616 13.014H9.78c-7.27-17.11-7.646-17.864-7.646-17.864C1.154 25.441.75 25.47 0 25.411v-.232h9.001v.233c-1.847 0-.375 3.37-.375 3.37l4.356 9.963 2.308-6.478c-1.76-4.125-1.932-4.502-1.932-4.502-.982-2.324-1.385-2.295-2.136-2.354v-.232h9.002v.233c-1.846 0-.375 3.37-.375 3.37l4.327 9.992 2.597-7.35c.721-2.061.087-6.012-2.856-6.012v-.233h8.194ZM37.995 33.197l-2.569 6.536h5.453l-2.884-6.536Zm2.912-8.017h.145c7.3 16.848 7.79 17.806 7.79 17.806 1.038 2.324 2.02 2.353 2.596 2.411v.233H41.341v-.233c2.308 0 .577-3.398.577-3.398l-.924-2.004H35.34c-.578 1.336-.059 5.402 3.404 5.402v.233h-8.309v-.233c.865-.058 2.423-.29 4.646-5.402l5.826-14.815ZM71.776 25.18v.232c-1.24 0-3.088.9-5.337 6.013l-5.685 14.204h-.836c-7.732-17.11-8.136-17.863-8.136-17.863-1.039-2.324-1.471-2.295-2.28-2.354v-.232h9.608v.232c-1.991 0-.403 3.37-.403 3.37l4.472 10.021 2.97-7.378c.866-2.15.347-6.013-3.115-6.013v-.232h8.742ZM90.093 39.937v5.693h-16.85v-.261c1.213 0 1.675-1.744 1.675-3.72V29.19c0-1.801-.405-3.777-1.675-3.777v-.232h16.474v5.954h-.259c0-5.663-7.877-5.692-7.877-5.692h-1.038v9.73h2.337c.029 0 3.088.088 3.404-3.427h.26v7.117h-.26c-.316-3.486-3.375-3.428-3.404-3.428h-2.337v9.935h1.038s8.252.32 8.252-5.432h.26Z"></path></svg>