<svg xmlns="http://www.w3.org/2000/svg" fill="none" viewBox="0 0 102 44"><path fill="#fff" d="M12.35 13.389c-.283-.045-.506-.253-1.047.189.46-.076.687.091 1.047-.19Zm.114-.653c-.405-.048-.87.07-1.42.224-.3.118-.595.195-.923.191a1.253 1.253 0 0 0-.81.274c1.029-.025 2.07-.173 3.335-.482-.073-.082-.11-.123-.182-.207Zm-2.68.124c-.249.037-.505.115-.764.232.236.086.528.05.765-.232Zm-.44-.825c-.25.036-.464.116-.492.361.124.001.2.043.246.003.687-.276 1.252-.553 1.893-.788.291-.037.536-.033.823-.029.004-.04.096-.122.1-.163-.332.036-.632.155-.923.192-.55.155-1.096.268-1.647.424Zm-4.959 1.068c-.504.115-.646.277-.91.805.205.002.441.088.687.092.241.045.268.169.327.373-.386.158-.755.152-1.128.556.5-.075.877-.15 1.3-.267.31-.568.574-1.096.893-1.746a6.339 6.339 0 0 1-1.169.187Zm2.662 17.58c-.027-.123-.214-.29-.281-.413.1-.163.232-.242.286-.364.082-.368.087-.777.17-1.143.017-.163.031-.285.05-.448.264-.527.36-1.016.297-1.55.009-.08.154-.283.172-.447.05-.08.147-.2.115-.284-.105-.164 0-.367.236-.65.146-.203.169-.405.273-.61.348-.892.57-1.788.913-2.641-.194-1.558 3.762-6.854.764-6.082-.178.12-.432.198-.641.237-3.145 1.341-2.877 1.142-4.016 3.986-.087.407-.21.774-.337 1.18-.06.163-.037.326-.142.528-.642 1.34-.875 2.686-1.85 4.061-.086.038-.09.08-.14.162-.888.966-.76.928-1.78.872-.163-.003-.318-.087-.45-.007-.459.075-.677-.174-.686-.46.005-.41.05-.816.182-1.265.58-1.872 1.331-3.823 2.12-5.733.948-1.864-.991-.667-.94-2.22-.014-.247-.063-.533.046-.776.178-.489.228-.937.401-1.385.12-.326.147-.57.037-.694.352-.567.656-1.093 1.011-1.701.547.253 1.192-.023 2.023-.133.547-.115 1.162-.84 1.299-1.331.683-1.706 1.32-2.635 2.291-4.339.615-1.093 1.439-2.226 2.181-3.358.196-.284.41-.362.692-.316.322.045.563.089.887.135.395.129.408.373.244.739-.318.649-.71 1.216-.938 1.785-.319.648-.628 1.217-.942 1.825-2.805 3.8-.24 3.593 2.958 2.498.105-.202.238-.284.297-.444.501-1.18.906-1.869 1.535-3.084.118-.327.41-.731.447-1.056.06-.532.477-.975.778-1.461.2-.324.36-.648.447-1.056.032-.285.282-.69.442-1.014.491-.73 1.024-1.457 1.52-2.226.573.009 1.147.016 1.678.025.86.013 1.616.23 2.23.607.576.335.85.83.599 1.602-.26.488-.356.977-.733 1.421-.993 1.538-1.746 3.122-2.452 4.664-.856 1.785 1.3 1.205 2.392.977.21-.04.46-.075.515.17-.792.111-1.675.302-2.389.456-.419.075-.719.192-1.066.352-.477.236-.727.642-.905 1.13.205.002.528.048.773.053.123.002.333-.038.464-.117.497-.032 1.002-.149 1.483-.058.2.043.655.01.951-.068.333-.036.619-.031.988-.026-.101-.205-.205-.37-.265-.575-.017-.206.134-.448.252-.775.08.002.204.004.286.004.046-.038.046-.038.091-.078-.105-.166-.29-.332-.355-.496.55.212.96.586 1.059 1.159l.009-.08a.441.441 0 0 1-.34.117c-.36.65.13.656.663.665-.624.44-.96.15-1.414.182.267.167.418.292.644.46-.295.076-.618.03-.832.477.2.044.446.048.768.093-.294.078-.513.198-.681.235-.17.04-.378.076-.569.32.163.002.318.085.518.131-1.015.27-2.03.541-3.057.933-.679.194-1.438.387-2.161.622-.593.155-.96.517-1.18 1.003-.409.73-.614 1.463-.82 2.195-.181.53-.322 1.057-.587 1.586-.388.893-.53 1.79-.87 2.643-.256.814-.512 1.628-.85 2.44-.008.083-.14.163-.236.283-.01.08-.104.204-.068.245.181.574-.183 1.264-.415 1.873-.015.124-.069.245-.078.327.059.574-.328 1.099-.593 1.627-.068.244-.464.482-.742.764a1.925 1.925 0 0 0-.54.074c-.124-.002-.246-.004-.333.036-.587.48-1.188.35-1.774.832-.219.118-.1-.207-.277-.087-.137.122-.233.242-.274.241-.164-.003-.236-.086-.395-.129l-.364.323c-.56.236-.597.195-.72-.175ZM29.293 10.05c-.095.12-.186.2-.246.363-.005.041-.014.122-.105.203-.136.12-.277.283-.464.482-.096.123-.441.28-.65.319-.078-.043-.21.038-.301.118-.264.159-.423.115-.577.032-.114-.084-.196-.085-.319-.087a1.66 1.66 0 0 1-.446-.047c.046-.04.096-.122.141-.162.014-.123.11-.244.169-.405.105-.204.2-.325.345-.528.01-.081.142-.16.147-.2.027-.246.255-.446.405-.69l.287-.364c.09-.08.182-.16.264-.16.086-.04.168-.037.204.003-.009.083.074.085.16.043.086-.039.132-.079.168-.039.154.085.355.13.514.174.273.126.454.333.587.62-.137.12-.192.244-.283.324Zm-4.266 4.39.046-.04c.142-.162.228-.2.36-.282.459-.074 1.565-.793 1.947-.54.105.163.492.374.636.54.14.207.15.492-.018.9-.305.525-.648 1.012-1.048 1.658-.11.245-.214.448-.273.61-.205.366-.424.852-.67 1.216-.219.488.692-1.051.565-.645-.014.12-.11.243-.16.325-.418.811-.4.648-.525 1.38-.045.409-.442 2.489-.442 2.857.008.286.154.45.258.616.155.086.341.25.578.336.187.167.4.088.65.05 3.535-1.171 2.357-1.64 4.556-3.69.428-.526.934-1.008 1.211-1.659.005-.04.005-.04.15-.242.16.411-.355.975.205 1.107-1.034 1.538-1.9 3.773-3.384 4.568-.468.525-3.527 2.93-5.25 2.209-.596.195-1.064-.385-1.65-.638-.391-.17-.764-.502-1.088-.917-.144-.532-.284-1.109-.225-1.638-.055-.246-.023-.532 0-.736.179-.488.201-1.429.402-1.751.063-.203.169-.408.197-.652.086-.04.027-.244.318-.28.04 0 .1-.164.146-.203.236-.283.305-.527.542-.81 0 0-.956.844-.374.035.419-.811 1.256-1.697 1.566-2.266.009-.08.105-.2.105-.2.15-.245.291-.405.242-.693-.023-.164.036-.328.186-.569.077.041.114.083.241.045Z"></path><path fill="#fff" d="M40.05 22.722c-.259.12-.455.403-.51.893.018.203.123.37.246.372.091-.08.213-.08.305-.16.218-.12.441-.28.587-.481.52-.605.756-1.256.605-1.014-.473.198-.831.112-1.232.39Zm5.152-3.15c-.074 1.02.295.659 1.837.438.5-.075 1.26-.268 2.079-.992.41-.361.81.095.991.301-.018.163-.642.971-.733 1.053-1.834.994-2.734.98-4.02 1.124-1.052.23-1.193.758-1.654 1.569l-.2.324c-.178.487-.506.85-.751 1.215-.092.08-.187.203-.274.24l-.463.484c-.196.284-.479.607-.788.805l-.323.324-.45.36a.57.57 0 0 1-.37-.005c-.113-.084-.263-.207-.382-.25a1.127 1.127 0 0 1 .001-.37c-.04-.367-.127-.697-.491-.743-.154-.084-.259-.249-.367-.373-.137-.248-.25-.331-.442-.456-.34-.252-.35-.905.038-1.43.205-.366.432-.565.697-.726.269-.201.572-.36.873-.478.528-.318.979-.312 1.538-.549.305-.157.542-.44.755-.886.406-1.06.907-2.604 1.154-3.704l.155-1.388a.488.488 0 0 0-.013-.245c-.018-.205-.214-.289-.355-.128-.086.04-.131.08-.186.201-.337.444-.674.889-.934 1.377-.747 1.174-1.461 2.43-2.204 3.563-.546.85-1.043 1.619-1.512 2.513-.778 1.459-2.336 2.908-3.046 4.49-.155.285-.268.568-.532.728-.214.08-.333.404-.36.65-.033.284-.11.609-.22.853-.1.163-.2.325-.29.407-.278.28-.383.482-.529.686-.523 1.012-.966 2.03-1.17 3.128-.097.49-.152.98-.33 1.468-.082.367-.278.65-.578.768-.219.12-.4.28-.56.605-.045.04-.187.2-.227.2-.123-.001-.196.283-.291.405l-.042-.001c-.67.113-1.023-.384-1.182-1.163-.159-.78-.144-1.636-.094-2.453.138-1.96.472-3.836.937-5.792.169-.774.424-1.59.63-2.32.306-1.264.734-2.525 1.194-3.703.652-1.788 1.34-3.536 2.064-5.241.17-.407.374-.772.553-1.26.627-1.217 1.183-2.516 1.817-3.774.273-.608.678-1.297 1.034-1.906.222-.16.427-.158.613.01l.914.626.037.042c.53.745.799 1.649.785 2.874.012.614-.106 1.307-.348 1.998-.355.975-.76 2.032-1.244 3.047-.319.649-.656 1.461-.984 2.192-.911 2.277.43 2.012.795 1.321.159-.325.865-1.13 1.034-1.538l1.662-2.755c.264-.527.51-.89.883-1.294.324-.323.656-.727 1.02-1.049.274-.24.664-.438.95-.433l.697.01c.377-.075.668.255.964.547.19.125.318.454.322.781.004.326.045.694.013.981l.03 1.186-.127 1.51Z"></path><path fill="#fff" d="M48.58 28.576c-.254.08-.526.32-.681.604-.152.243-.292.404-.47.523-.182.161-.363.322-.469.525-.068.243-.09.449-.195.65-.11.244-.087.408.022.533.14.206.286.372.427.579.114.084.273.127.455-.033.176-.122.314-.242.537-.402.18-.16.368-.362.55-.524.401-.28.724-.602 1.024-1.087.092-.08.146-.202.196-.284.242-.323.447-.688.61-1.052.247-.364.251-.774.462-1.179.04.001.05-.083.053-.123.147-1.305-1.538.549-2.084 1.032a.957.957 0 0 1-.436.238Zm1.217 3.412c-.164-.002-.164-.002-.559.238l.013-.124c-.078-.042-.078-.042-.109-.124-.092.08-.214.077-.268.201-.223.16-.434.197-.688.276-.086.04-.086.04-.282-.045.05-.083.055-.123.105-.204-.123-.002-.214.077-.335.076a.256.256 0 0 1-.22.12c-.35.2-.504.116-.631-.213-.055-.247-.068-.492-.214-.658-.209-.33-.204-.74-.235-1.19.018-.163.091-.449.195-.65.183-.53.479-.975.861-1.46.76-.93 1.548-1.734 2.403-2.415 1.716-1.406 1.516-1.817 1.163-3.05-.14-.942-.472-1.641-.8-2.382-.021-.164-.131-.288-.154-.452-.308-.537-.751-3.528-.67-4.263.091-.079.06-.161.16-.323-.014-.247.097-.49.287-.732.055-.122.205-.365.104-.57.146-.203.22-.488.366-.69.103-.202.2-.323.31-.567.094-.122.15-.244.286-.364l.45-.73c.202-.324.474-.564.67-.848.05-.08.091-.08.177-.119a.667.667 0 0 0 .277-.284c.143-.16.233-.24.306-.158.273.127.464.253.681.5 0 0 .041.002.078.044.35.17.837 1.688.818 2.22-.014.123-.028.244.045.327-.028.246-.055.49-.165.733-.118.326-.245.733-.446 1.057-.101.161-.155.284-.323.322-.133.08-.274.24-.373.404-.055.12-.233.24-.215.445 0 0-.009.083-.054.122a5.328 5.328 0 0 0-.4.65c-.21.405-.292 1.14-.207 1.466.06.206.241.413.35.537.482.458.758 2.016 1.159 2.47.185.167.136.616.28.784.268.902 1.7-.18 2.798-.45.665-.44 1.329-.878 1.998-1.359.487-.32.978-.68 1.429-1.041.314-.24.593-.523.87-.805.227-.2.46-.442.691-.684.064.165.091.287.119.41.054.247.067.492-.124.734-.055.12-.145.203-.16.325a3.036 3.036 0 0 1-.455.77c-.232.242-.392.566-.623.807-.223.161-.405.323-.588.483-.314.24-.628.48-.941.722l-.183.16c-.477.237-.933.64-1.42.959-.137.121-.315.24-.492.361-.886.601-2.115.582-2.238 1.683.072.82.09.654-.265 1.632.027.122-.064.203-.037.326-.096.121-.059.163-.059.163-.192.242-.16.69-.27.935a.559.559 0 0 1-.227.2c-.045.04-.086.04-.132.081-.191.243-.423.483-.578.768-.255.446-1.488 1.572-1.853 1.893-.14.162-.237.284-.374.403-.19.242-.573.359-.832.478-.046.04-.086.04-.091.08-.277.282-.578.4-.828.437-.086.04-.092.082-.178.12.287-.363.565-.644.847-.968Z"></path><path fill="#fff" d="M70.143 7.81c.058-.162.122-.367.186-.569.078-.327.197-.651.274-.978.082-.366.082-.734.083-1.102-.022-.164-.141-.206-.232-.126-.177.12-.309.2-.413.403-.2.323-.406.688-.53 1.055-.053.122-.148.242-.203.365-.1.162-.2.324-.306.528-.127.405-.26.853-.433 1.301-.283 1.057.86 1.117 1.187.385.127-.408.254-.814.387-1.261Zm-1.796 4.675c.524-1.015.739-1.829-.709-.993-.601 1.34-.87 2.275-1.38 3.535-1.28 3.374.314.865 1.056-.637.374-.77.583-1.177 1.034-1.905Zm5.668 6.136c-.028.245-.15.244-.132.448.022.164-.56 1.34-.66 1.503-.32.65-.68 1.298-.999 1.946-.45.729-.891 1.377-1.338 2.066-.197.283-2.395 2.703-2.618 2.861-.573.36-1.592 1.407-2.121 1.726-.35.2-1.629.63-1.92.666-.536.033-1.114.064-1.591-.065-.846-.136-1.974-1.42-2.292-2.243-.162-.37-.371-.7-.449-1.11-.104-.534-.13-1.392-.102-2.005.384-3.427.848-3.91 2.201-7.203.115-.283.184-.528.297-.813.072-.285.227-.568.337-.812.172-.448.346-.895.514-1.3.305-.894 1.544-2.43.584-2.647-.282-.047-.532-.01-.754-.218-.227-.166-.46-.292-.686-.46-.073-.083-.186-.167-.204-.37.086-.04.172-.081.213-.079.587-.114 1.132-.228 1.719-.342.378-.076.792-.11 1.206-.146.168-.038.34-.116.445-.32.16-.324.398-.606.52-.972.496-.77.875-1.582 1.407-2.31.483-.646.956-1.21 1.544-1.694.095-.12.232-.24.323-.322.177-.12.35-.198.55-.154.236.085.496-.034.783-.03.04 0 .04 0 .086-.04.586-.111.764.134.877.586.16.412.195.821.14 1.31-.028.247-.01.45.008.656.024.163.001.367-.064.572-.063.202-.127.406-.195.65-.12.325-.237.652-.355.976-.014.123-.023.204-.079.325.114.084.238.086.4.088.497-.033 1.033-.065 1.53-.1l2.129.034c.245.005.481.09.764.134-.096.12-.146.2-.192.242-.092.081-.222.16-.31.201-.3.116-.645.275-.946.393-.005.04-.046.04-.046.04-.455.034-.968.232-1.455.183a3.162 3.162 0 0 0-.873.11c-.173.079-.378.074-.546.112-.332.037-.624.073-.956.11-.168.038-.264.158-.364.322-.046.039-.05.08-.096.12-.646 1.38-1.448 2.676-2.131 4.015-.1.162-.2.324-.255.447-.25.404-.455.769-.629 1.216-.162.365-.41.729-.65 1.053-.197.283-.197.651-.434.934-.565 1.012-1.444 4.107-1.537 5.658-.032.654.063 1.269.198 1.884.06.206.21.33.314.496.041 0 .078.041.16.043.368.006 1.1.057 1.497-.182.264-.16 1.601-1.119 1.87-1.32.683-.603 2.243-2.092 2.744-2.901.447-.689.753-1.584 1.193-2.232.21-.406.72-1.297.976-1.743.2.044.504-.114.45.007Z"></path><path fill="#fff" d="M79.244 16.617c-.095.122-.237.283-.336.444-.196.283-.179.488.013.613.113.084.268.167.336.292.213.288.546.252.877.219.297-.079.533-.36.729-.644.364-.69.542-.81.865-1.5.83-1.542-.522-1.193-1.19-.713-.488.32-.875.846-1.294 1.29Zm-5.523 3.186c-.278.65-.306 1.262-.293 1.877-.005.04.036.04.073.082.09-.448.178-.856.264-1.263.073-.286.147-.571.05-.816-.045.04-.09.08-.094.12Zm-.293 2.611c.027.124.058.207.086.328-.015.123.1.208-.001.369-.037-.042-.077-.042-.072-.082-.16-.412-.181-.944-.204-1.476-.037-.041.01-.082.013-.122.069-.611.133-1.184.365-1.793.055-.122.11-.244.124-.366l.031-.286c-.15.244-.25.404-.309.568-.064.203-.123.366-.186.57-.284 1.058-.353 2.038 0 2.902.065.164.174.289.279.453.073.084.15.125.268.168-.004.04.041 0 .124.002-.101-.205-.206-.371-.265-.575-.095-.248-.067-.492-.167-.698-.041-.002-.086.038-.086.038Zm4.3-3.612c-.01.081-.1.161-.187.2-.045.04-.132.08-.145.203-.06.163-.105.203-.233.242-.086.039-.09.08-.158.325.082 0 .121 0 .158.043l-.005.04c-.081 0-.163 0-.286-.004.055-.12.068-.244.078-.327h-.082l-.219.855c.078.042.113.084.154.084.009.286-.018.53-.05.817a1.84 1.84 0 0 0 .081.737c.105.166.331 1.069.436 1.234.508.579 1.122 1.325 1.773 1.376.2.045 1.41-.142 1.62-.18 1.014-.27 2.015-.788 2.993-1.468.756-.519 1.48-1.12 2.239-1.682l.137-.12c.278-.282.551-.524.828-.806.502-.443.96-.884 1.389-1.409.145-.204.29-.404.546-.484-.124.367-.243.693-.443 1.017-.054.12-.15.244-.24.323-.278.283-.51.524-.71.849-.142.16-.324.321-.464.482-.046.041-.097.123-.192.242.128-.038.214-.078.34-.117-.067.243-.276.282-.34.486.036.04.031.082.109.124-.145.202-.282.322-.465.484-.268.2-.542.442-.773.682-.414.404-.861.723-1.306 1.044-.224.16-.406.32-.623.44-.178.12-.352.198-.53.319a7.697 7.697 0 0 0-.782.396c-.438.24-.91.436-1.369.512-.127.04-.255.077-.382.116-.509.157-1.01.23-1.506.263-.582.074-2.947-.413-3.457-.624-1.368-.595-1.577-1.293-2.166-1.874-.225-.208-.392-.537-.478-.866-.146-.532-.123-1.106-.095-1.717.143-1.266.607-2.486 1.268-3.62.15-.243.15-.243.15-.611-.218.12-.35.199-.46.442-.163.366-.364.69-.61 1.055.041-.367.232-.61.387-.893a14.65 14.65 0 0 1 1.38-2.065 13.07 13.07 0 0 1 1.725-1.854c.641-.604 1.315-1.124 2.017-1.522.172-.08.3-.12.432-.199.213-.08.423-.116.522.09.11.124.278.086.35.169.114.084.137.247.21.33.387.21 1.897.643 2.237.892.113.084.176.248.24.412.164.372.282.784.54 1.032.074.082.095.246.123.369.027.49.018.941-.165 1.47-.145.568-.451 1.096-.792 1.582-.196.283-.388.524-.546.85-.114.284-.305.527-.501.81-.2.324-.51.523-.806.601-.259.119-.55.156-.791.11-.118-.042-.246-.002-.31-.167.005-.041-.035-.043-.035-.043-.333.036-.496-.334-.728-.46a.394.394 0 0 1-.059-.206c.1-.162.027-.244 0-.366-.127-.33-.249-.701-.417-1.03-.028-.123-.146-.165-.283-.046-.063.203-.246.366-.273.61Z"></path><path fill="#fff" d="M93.18 20.346c.232-.611 1.988-3.487 2.33-3.972.288-.364.575-.727.826-1.133.282-.322.568-.685.77-1.01.194-.282.458-.443.708-.479.287.004.537-.033.783-.03.492.007.737.379.922.914-.003.04-.008.082-.018.163.022.531.082 1.106.099 1.68.023.53-.083 1.1-.142 1.631-.041.366-.041.735-.124 1.1.19.127.132.29.178.25.091-.08.364.046.454-.035.051-.08.136-.12.187-.2.178-.12.356-.24.542-.443.145-.202.268-.2.41.008a.413.413 0 0 1-.201.323c-.046.04-.096.121-.147.202-.053.122-.149.244-.276.283l-.137.12c-.046.04-.132.079-.136.12-.045.04-.087.04-.133.08-.182.16-.309.2-.473.197a.884.884 0 0 0-.387.159c-.131.078-.255.077-.327-.007-.268-.167-.551-.212-.824-.34-.476-.129-.795-.584-.935-1.158-.164-.74-.072-1.554.138-2.327.123-.366.16-.692.237-1.02l.206-.732c.1-.161.113-.285.09-.45-.04 0-.118-.04-.127.041-.045.04-.136.12-.186.201-.2.325-.442.647-.688 1.011a2.14 2.14 0 0 0-.329.732c.023.163-.114.285-.168.406-.446.688-.847 1.337-1.18 2.108-.268.568-.609 1.054-.92 1.62-.464.852-1 1.621-1.388 2.514-.115.285-.315.61-.473.933-.11.244-1.354 2.187-1.622 2.388-.01.081-.136.121-.228.2-.569.687-1.138.636-1.774.464-.091.08-.164-.004-.237-.085-.637-.173-.894-.791-.968-1.609-.044-.696.04-1.43.117-2.125.16-1.06.319-2.12.52-3.18.338-1.18.165-1.102.615-2.199.466-1.585.274-1.344 1.027-2.927.073-.286.258-.487.373-.772.37-.73.688-1.378 1.09-2.026.222-.528.395-.609.794-.52.287.004.646.09 1.006.18.241.044.477.13.774.42.226.535.595.908.95 1.402.293.661.322 1.152-.012 1.924-.296.812-.309.198-.61 1.053-.724 1.706-1.859 3.037-2.483 4.582-.834 1.95 1.266.06 1.507-.63ZM15.419 43.273h.377c.325 0 .58-.1.766-.3.185-.2.278-.47.278-.808 0-.337-.093-.605-.278-.805-.186-.2-.441-.3-.766-.3h-.377v2.213Zm.377-2.863c.557 0 1.014.16 1.371.486.358.325.537.749.537 1.268 0 .518-.179.942-.537 1.269-.357.327-.814.49-1.37.49h-1.228V40.41h1.227ZM22.627 40.399v.65h-1.261v.757h1.112v.651h-1.113v.816h1.262v.65h-2.111v-3.524h2.11ZM26.814 41.034a.395.395 0 0 0-.26.085.304.304 0 0 0-.103.245.36.36 0 0 0 .095.259.623.623 0 0 0 .246.15c.1.034.213.067.338.1.124.031.247.07.37.115.122.044.234.1.335.167a.734.734 0 0 1 .246.285c.063.12.095.266.095.436 0 .298-.121.552-.361.764-.24.212-.556.318-.949.318-.392 0-.708-.094-.948-.284-.24-.191-.36-.46-.36-.812h.903c.024.28.166.42.428.42a.405.405 0 0 0 .288-.097.327.327 0 0 0 .105-.248.333.333 0 0 0-.095-.245.651.651 0 0 0-.246-.15 3.24 3.24 0 0 0-.338-.102 3.365 3.365 0 0 1-.37-.119 1.753 1.753 0 0 1-.336-.168.693.693 0 0 1-.245-.28.935.935 0 0 1-.094-.434.96.96 0 0 1 .362-.785c.242-.198.55-.296.926-.296s.68.085.912.258c.232.172.353.443.363.812h-.924a.478.478 0 0 0-.122-.292.352.352 0 0 0-.26-.102ZM31.121 43.923V40.41h.85v3.513h-.85ZM35.307 43.446c-.346-.34-.519-.77-.519-1.29s.173-.95.519-1.289c.346-.34.77-.508 1.269-.508.388 0 .732.104 1.034.31.301.207.511.494.63.86h-1.013a.668.668 0 0 0-.635-.384c-.292 0-.521.092-.689.275-.167.184-.251.43-.251.736s.084.552.251.737c.168.184.392.274.673.274.202 0 .367-.05.494-.152a.735.735 0 0 0 .257-.409h-.984v-.65h1.897v.65c-.063.32-.236.62-.521.896a1.534 1.534 0 0 1-.504.325c-.2.084-.414.127-.639.127-.5 0-.923-.17-1.27-.508ZM43.332 40.399h.85v3.524h-.85l-1.42-2.218v2.218h-.85v-3.524h.85l1.42 2.218v-2.218ZM52.15 41.034a.395.395 0 0 0-.262.085.303.303 0 0 0-.102.245c0 .107.032.193.095.259a.627.627 0 0 0 .246.15c.1.034.214.067.338.1.124.031.247.07.37.115.123.044.235.1.335.167a.74.74 0 0 1 .247.285c.062.12.093.266.093.436 0 .298-.12.552-.36.764-.24.212-.557.318-.948.318-.393 0-.71-.094-.95-.284-.24-.191-.36-.46-.36-.812h.905c.022.28.165.42.427.42a.402.402 0 0 0 .287-.097.325.325 0 0 0 .105-.248.335.335 0 0 0-.094-.245.661.661 0 0 0-.246-.15 3.263 3.263 0 0 0-.338-.102 3.32 3.32 0 0 1-.37-.119 1.77 1.77 0 0 1-.336-.168.71.71 0 0 1-.246-.28.937.937 0 0 1-.093-.434c0-.327.12-.589.362-.785.241-.198.55-.296.926-.296.377 0 .68.085.912.258.232.172.353.443.362.812h-.923a.473.473 0 0 0-.122-.292.35.35 0 0 0-.26-.102ZM56.219 41.06v-.65h2.752v.65h-.953v2.863h-.85v-2.864h-.95ZM61.737 42.506V40.41h.85v2.096c0 .21.051.371.155.487.102.113.253.169.451.169.2 0 .352-.056.457-.17.106-.114.16-.275.16-.486V40.41h.849v2.096c0 .31-.072.579-.217.804a1.31 1.31 0 0 1-.546.493c-.22.104-.46.155-.718.155-.404 0-.744-.127-1.022-.38-.28-.254-.419-.61-.419-1.072ZM68.508 43.273h.378c.324 0 .58-.1.765-.3.185-.2.278-.47.278-.808 0-.337-.093-.605-.278-.805-.186-.2-.441-.3-.765-.3h-.378v2.213Zm.378-2.863c.556 0 1.014.16 1.37.486.36.325.537.749.537 1.268 0 .518-.178.942-.537 1.269-.356.327-.814.49-1.37.49h-1.227V40.41h1.227ZM73.606 43.923V40.41h.85v3.513h-.85ZM79.729 42.893c.167-.185.25-.432.25-.738s-.083-.552-.25-.735c-.168-.184-.391-.275-.672-.275-.28 0-.503.091-.67.275-.167.183-.251.429-.251.735s.084.553.25.738c.168.183.391.273.671.273s.504-.09.672-.273Zm-1.938.556c-.346-.341-.52-.773-.52-1.294 0-.52.174-.95.52-1.288.346-.34.77-.508 1.272-.508.5 0 .923.168 1.266.508.344.339.514.769.514 1.288 0 .521-.171.953-.516 1.294-.344.34-.767.51-1.266.51-.5 0-.924-.17-1.27-.51Z"></path></svg>