<svg xmlns="http://www.w3.org/2000/svg" fill="none" viewBox="0 0 92 76"><path fill="#fff" d="M1.312 74.026h.582c.5 0 .895-.153 1.181-.46.286-.307.43-.718.43-1.234 0-.517-.144-.928-.43-1.235-.286-.307-.68-.46-1.181-.46h-.582v3.389Zm.582-4.385c.86 0 1.565.248 2.117.747s.829 1.145.829 1.94c0 .795-.277 1.441-.83 1.943-.55.5-1.256.75-2.116.75H0v-5.38h1.894ZM13.836 69.626v.997h-1.948v1.158h1.717v.996h-1.717v1.25h1.948v.996h-3.26v-5.397h3.26ZM21.698 70.6a.604.604 0 0 0-.403.13c-.106.088-.157.213-.157.377a.54.54 0 0 0 .145.394c.098.1.223.177.38.23.156.054.329.105.521.153.192.05.382.108.572.177.189.069.362.155.518.256.155.102.282.247.38.434.096.187.145.41.145.67 0 .456-.186.844-.556 1.17-.37.324-.859.486-1.466.486-.606 0-1.093-.145-1.464-.437-.37-.291-.555-.705-.555-1.242h1.395c.036.43.255.645.66.645.188 0 .337-.05.444-.15a.492.492 0 0 0 .162-.38.51.51 0 0 0-.146-.376 1.044 1.044 0 0 0-.38-.23 6.103 6.103 0 0 0-.521-.156 5.153 5.153 0 0 1-.572-.18 2.818 2.818 0 0 1-.518-.258 1.087 1.087 0 0 1-.38-.429 1.42 1.42 0 0 1-.145-.662c0-.502.187-.903.56-1.204.372-.302.85-.452 1.43-.452s1.05.131 1.408.394c.357.263.544.679.559 1.245h-1.426c-.02-.192-.083-.342-.188-.448a.548.548 0 0 0-.402-.156ZM29.743 75.023v-5.38h1.312v5.38h-1.312ZM37.6 74.292c-.534-.519-.801-1.177-.801-1.975 0-.796.267-1.454.8-1.973.535-.519 1.189-.778 1.96-.778.6 0 1.13.159 1.596.475.465.317.79.756.974 1.319h-1.565c-.205-.393-.532-.59-.981-.59-.45 0-.804.14-1.063.421-.258.28-.387.656-.387 1.126 0 .471.13.848.387 1.127.259.282.605.422 1.04.422.312 0 .566-.078.763-.233.197-.156.329-.364.395-.625h-1.52v-.997h2.931v.997c-.098.49-.366.948-.805 1.372-.21.204-.47.37-.78.498a2.555 2.555 0 0 1-.985.192c-.771 0-1.425-.26-1.96-.778ZM51.388 69.626h1.31v5.397h-1.31l-2.194-3.396v3.396h-1.313v-5.397h1.313l2.194 3.396v-3.396ZM69.356 69.642h1.312v5.38h-1.312v-2.23h-2.078v2.23h-1.312v-5.38h1.312v2.154h2.078v-2.154ZM76.705 72.855v-3.212h1.312v3.212c0 .321.078.57.237.743.158.173.39.26.697.26.307 0 .543-.087.707-.26.163-.174.245-.422.245-.743v-3.212h1.311v3.212c0 .474-.111.884-.333 1.23a2.005 2.005 0 0 1-.844.754c-.341.16-.71.238-1.108.238-.624 0-1.151-.193-1.58-.583-.43-.387-.644-.935-.644-1.64ZM88.556 74.027h.989a.638.638 0 0 0 .445-.161c.118-.107.175-.256.175-.445s-.055-.34-.168-.452a.594.594 0 0 0-.438-.169h-1.003v1.227Zm0-3.389v1.166h.859a.679.679 0 0 0 .455-.146c.115-.097.173-.241.173-.433s-.058-.337-.173-.436a.666.666 0 0 0-.456-.15h-.858Zm-1.312-.996h2.339c.547 0 .983.133 1.307.399.325.265.487.602.487 1.012 0 .607-.356 1.018-1.066 1.234.363.05.652.2.867.453.215.25.323.543.323.88 0 .43-.158.77-.472 1.023-.315.254-.754.38-1.316.38h-2.469v-5.38ZM44.185 35.694c.478-.387.545-.74.468-1.305-.354-1.237-.654-2.574-.929-3.834-1.77-8.53-2.485-3.39-3.789 2.339-2.882 7.267-.496 8.258 4.25 2.8Zm11.503-10.066c.856-.83 1.778-1.429 2.843-1.818.29-.167.701-.2 1.055-.134.512.02.988.219 1.599.296-.022.508-.445.797-.789 1.061-1.868 1.706-3.413 3.655-5.157 5.492-.323.343-.467.72-.335 1.184.2.696.266 1.513.465 2.209.078.565.21 1.028-.346 1.438-.344.266-.234.653-.078 1.194.222-.399.234-.653.344-.851.488-.057.599.916.144 1.381-.056.099-.133.12-.111.198-.078.023-.133.123-.245.322.554 1.933 1.151 4.021 1.649 6.054.156.542.21 1.028.288 1.592.054 1.658.652 3.16 1.328 4.64.588 1.171.998 2.308 1.43 3.523.244.852.564 1.68.809 2.53.176.62.276 1.26.396 1.979-.298-.166-.598-.33-.898-.496a1.108 1.108 0 0 1-.145.376c-.054.1-.012.255.034.408-.601.256-1.466.17-1.2 1.098-.5.31-1.034.21-1.412.068-.575-.253-1.131-.429-1.575-.804-1.576-1.392-2.806-3.047-3.826-4.846-.089-.31-.355-.652.044-1.018.077-.022-.055-.486-.121-.718l-.998-1.723c-1.941-2.96-3.126-6.218-4.333-9.554-.189-.364-.377-.73-.588-1.171-.267.244-.556.411-.744.631-1.09 1.484-2.59 2.414-4.046 3.5a61.732 61.732 0 0 1-3.655 2.218c-1.188.841-1.767 2.345-2.101 3.529-.658 2.699-1.793 5.198-2.495 7.741-.222.399-.411.62-.855.831-1.744.666.953 1.568-.835 1.493-3.787 1.753-2.785-1.211-4.74-2.744.78-1.979 1.637-3.981 2.515-5.906.48-.974.98-1.87 1.48-2.767.779-1.394-.111.2.524-1.405-.3-.165-.578-.253-.878-.418-.655-.232-1.232-.483-1.887-.715-.499-.276-.765-.618-.765-1.204.477-.388 1.011-.288 1.566-.114.81.188 1.677.275 2.543.362.178.032.544-.156.656-.355.588-1.173 1.078-2.4 1.668-3.573.089-.277.1-.531.212-.73 1.435-2.92 2.115-6.127 3.094-9.17 1.136-3.671 2.172-7.397 3.308-11.069.5-1.482.613-2.852.293-4.267-.333-1.747-.486-3.46-.64-5.172-.098-2.985.294-6.024.807-8.933.222-.984.434-1.128 1.356-1.142C43.595.137 44.827.035 46.082.01c.411-.033.843.01 1.243.23.8.44 1.598.882 2.341 1.422.345.32.632.74.822 1.105.876 1.59 1.207 3.336 1.384 5.126.331 2.332.64 4.586.893 6.94.066.232.077.563.166.873.487 1.701.563 3.436.484 5.216-.112 1.372.186 2.709.329 4.09.077.564.233 1.105.388 1.647l.2.11c.477-.388.954-.775 1.356-1.141Z"></path></svg>