<svg xmlns="http://www.w3.org/2000/svg" fill="none" viewBox="0 0 92 51"><path fill="#fff" d="M4.939 18.474v4.842H8c.75 0 1.343-.22 1.776-.659.433-.44.65-1.017.65-1.733 0-.717-.222-1.304-.665-1.763-.443-.459-1.03-.687-1.761-.687H4.939Zm0 8.566v7.82H0V14.75h8c2.349 0 4.178.602 5.488 1.805 1.31 1.203 1.964 2.655 1.964 4.354 0 1.165-.356 2.302-1.068 3.41-.713 1.107-1.878 1.89-3.495 2.347l4.968 8.194h-5.778l-4.563-7.82H4.94ZM31.28 14.693v3.723h-7.337v4.326h6.47v3.724h-6.47v4.67h7.336v3.724H19.004V14.693h12.275ZM33.85 18.474V14.75h16.001v3.724h-5.545V34.86h-4.938V18.474h-5.517ZM57.448 18.474v4.842h3.062c.75 0 1.342-.22 1.776-.659.433-.44.65-1.017.65-1.733 0-.717-.222-1.304-.663-1.763-.445-.459-1.032-.687-1.763-.687h-3.062Zm0 8.566v7.82h-4.939V14.75h8.001c2.348 0 4.177.602 5.488 1.805 1.308 1.203 1.964 2.655 1.964 4.354 0 1.165-.357 2.302-1.069 3.41-.713 1.107-1.878 1.89-3.496 2.347l4.968 8.194H62.59l-4.565-7.82h-.577ZM84.61 28.959c.972-1.05 1.46-2.453 1.46-4.21 0-1.758-.488-3.162-1.46-4.212-.972-1.05-2.273-1.576-3.899-1.576-1.628 0-2.927.526-3.9 1.576-.972 1.05-1.457 2.454-1.457 4.212 0 1.757.485 3.16 1.458 4.21.972 1.051 2.271 1.575 3.899 1.575 1.626 0 2.927-.524 3.9-1.575Zm-11.264 3.179c-2.012-1.948-3.019-4.41-3.019-7.39 0-2.979 1.007-5.438 3.02-7.376 2.01-1.94 4.476-2.908 7.393-2.908 2.916 0 5.372.968 7.365 2.908 1.994 1.938 2.989 4.397 2.989 7.377 0 2.979-1.001 5.441-3.003 7.389-2.003 1.948-4.458 2.923-7.366 2.923-2.907 0-5.368-.975-7.379-2.923ZM29.825 2.127V.033h8.999v2.094h-3.12v9.215h-2.777V2.127h-3.102ZM47.496.033h2.778v11.31h-2.778V6.653h-4.4v4.688h-2.779V.032h2.778V4.56h4.401V.033ZM59.451 0v2.095h-4.126v2.433h3.639v2.094h-3.639v2.626h4.126v2.094h-6.904V0h6.904ZM14.811 45.069a.688.688 0 0 0-.456.148c-.12.097-.179.238-.179.42 0 .185.056.332.165.445.111.112.255.199.43.258.178.06.375.119.592.173.216.055.432.12.646.198.215.078.41.174.587.288.177.116.32.278.43.488.11.21.165.46.165.754 0 .511-.21.948-.63 1.314-.42.364-.972.547-1.66.547-.686 0-1.238-.164-1.657-.492-.421-.328-.63-.792-.63-1.396h1.58c.04.483.29.725.747.725.214 0 .382-.057.504-.17a.55.55 0 0 0 .183-.426.572.572 0 0 0-.165-.422 1.186 1.186 0 0 0-.43-.258 6.907 6.907 0 0 0-.591-.176 5.853 5.853 0 0 1-.648-.203 3.198 3.198 0 0 1-.586-.289 1.222 1.222 0 0 1-.43-.482 1.572 1.572 0 0 1-.164-.745c0-.564.21-1.013.634-1.353.421-.34.962-.508 1.62-.508.656 0 1.188.148 1.594.444.404.295.616.762.634 1.399H15.48c-.024-.218-.094-.386-.213-.504a.616.616 0 0 0-.456-.177ZM23.506 45.112v-1.119h4.811v1.12H26.65v4.927h-1.485v-4.928h-1.66ZM34.739 47.604v-3.61h1.484v3.61c0 .36.09.64.27.834.18.195.443.294.79.294.348 0 .614-.099.8-.294.185-.194.277-.473.277-.834v-3.61h1.486v3.61c0 .533-.127.994-.378 1.381-.251.388-.57.67-.955.849a2.946 2.946 0 0 1-1.256.268c-.706 0-1.303-.218-1.79-.656-.486-.436-.728-1.05-.728-1.842ZM48.16 48.92h.659c.567 0 1.014-.171 1.338-.516.324-.345.487-.807.487-1.388 0-.58-.163-1.042-.487-1.387-.324-.345-.77-.517-1.338-.517h-.66v3.809Zm.659-4.927c.973 0 1.773.279 2.397.84.626.56.939 1.287.939 2.18 0 .891-.313 1.62-.939 2.184-.624.562-1.424.843-2.397.843h-2.145v-6.047h2.145ZM58.652 50.04v-6.047h1.486v6.047h-1.486ZM70.94 48.266c.293-.316.44-.739.44-1.267 0-.528-.147-.95-.44-1.266-.292-.316-.683-.474-1.172-.474-.49 0-.88.158-1.172.474-.293.316-.44.738-.44 1.266s.147.95.44 1.267c.292.316.683.474 1.172.474.49 0 .88-.158 1.173-.474Zm-3.388.956c-.605-.586-.908-1.326-.908-2.223 0-.895.303-1.635.908-2.218.605-.582 1.347-.874 2.224-.874.878 0 1.616.292 2.215.874.6.583.9 1.323.9 2.218 0 .897-.302 1.637-.904 2.223-.602.587-1.34.88-2.215.88-.874 0-1.615-.293-2.22-.88Z"></path></svg>