<svg xmlns="http://www.w3.org/2000/svg" fill="none" viewBox="0 0 29 56"><path fill="currentColor" d="M0 35.115c32.9-2.009 8.433-3.052 0-4.366v4.366ZM0 37.962v4.28l.26.073c25.08-2.365 17.885-3.237-.26-4.353Z"/><path fill="currentColor" d="M0 0v14.092c20.627-.717 20.729-1.919 10.03-3.371l1.927-2.408c13.209 2.09 12.38 5.495 2.886 7.202 3.177 1.159 14.446 3.272.823 7.478 2.216.618 14.716 3.791-.823 6.63 2.46 1.14 15.523 2.777.55 6.91 3.876.653 13.842 2.834.685 7.195 4.974.535 5.537.711 6.872 3.103v9.172h6.047V0H0Z"/><path fill="currentColor" d="M0 24.12v4.373c6.188-1.249 34.438-1.757 0-4.374ZM0 16.673V21.3c19.34-1.067 25.872-2.45 0-4.626Z"/></svg>