<svg xmlns="http://www.w3.org/2000/svg" fill="none" viewBox="0 0 111 111"><path fill="currentColor" d="M50.215 4.722a.563.563 0 0 1-.42-.127.575.575 0 0 1-.202-.4.547.547 0 0 1 .127-.416.555.555 0 0 1 .39-.205.56.56 0 0 1 .426.13.54.54 0 0 1 .205.386.567.567 0 0 1-.526.632ZM38.426 9.736l-2.047-6.233 3.824-1.256.246.748-3.076 1.01.581 1.772 2.52-.827.245.748-2.519.827.728 2.217 3.076-1.01.245.748-3.823 1.256ZM30.698 13.311l-1.756-6.447.543-.267 3.644 3.398-.47-4.96.542-.266 4.039 5.324-.72.354-2.928-3.865.451 4.687-.466.23L30.14 8.28l1.277 4.678-.719.353ZM27.637 15.582c-.43.3-.878.457-1.342.469a2.552 2.552 0 0 1-1.32-.336 3.324 3.324 0 0 1-1.08-1.006l-2.188-3.135.645-.451 2.189 3.135c.214.307.468.551.762.731.295.178.604.27.927.273.325.001.644-.107.956-.325.318-.222.53-.485.638-.789.106-.306.125-.626.056-.959a2.565 2.565 0 0 0-.424-.967l-2.188-3.135.645-.45 2.189 3.134c.227.326.391.664.492 1.017.1.35.132.696.098 1.04a2.328 2.328 0 0 1-.31.965 2.493 2.493 0 0 1-.745.79ZM22.879 19.367a3.21 3.21 0 0 1-.868.563 2.69 2.69 0 0 1-.96.223 1.722 1.722 0 0 1-.88-.198l.361-.698c.164.088.352.124.565.108.214-.02.43-.08.65-.182.22-.102.421-.235.604-.4.209-.189.372-.397.49-.626a1.51 1.51 0 0 0 .178-.684.839.839 0 0 0-.222-.582.723.723 0 0 0-.548-.257 1.649 1.649 0 0 0-.677.145c-.24.098-.474.219-.702.362a6.282 6.282 0 0 1-1.118.58 2.07 2.07 0 0 1-1.022.133c-.32-.047-.618-.223-.892-.527a1.59 1.59 0 0 1-.425-.96c-.026-.36.043-.72.208-1.078.164-.359.402-.679.712-.96.258-.231.544-.416.858-.552.315-.141.634-.219.957-.233.324-.015.626.052.906.199l-.371.7a.971.971 0 0 0-.569-.105 1.8 1.8 0 0 0-.646.18 2.37 2.37 0 0 0-.604.4 2.06 2.06 0 0 0-.486.622c-.116.23-.174.458-.175.681 0 .223.073.416.22.579.175.194.361.298.557.31.197.008.407-.043.632-.153.225-.11.466-.246.724-.408.364-.231.732-.41 1.106-.537.371-.129.724-.172 1.058-.128.336.041.63.201.88.48.256.283.397.604.422.964.029.357-.04.715-.204 1.074a2.95 2.95 0 0 1-.72.965ZM17.642 24.64l-4.912-4.348 2.667-3.014.59.522-2.146 2.424 1.397 1.236 1.757-1.986.59.522-1.758 1.986 1.748 1.547 2.145-2.425.59.521-2.668 3.015ZM14.449 29.022 9.097 25.23l1.332-1.881a1.78 1.78 0 0 1 .758-.624 1.88 1.88 0 0 1 .96-.147c.334.03.648.15.94.357.258.183.457.4.596.652a1.851 1.851 0 0 1 .099 1.603l3.172.296-.525.741-3.103-.28-.62.875 2.198 1.558-.455.642Zm-2.386-2.655.832-1.174a1.148 1.148 0 0 0 .108-1.158 1.181 1.181 0 0 0-.405-.482 1.166 1.166 0 0 0-.589-.222 1.127 1.127 0 0 0-.591.098c-.19.084-.346.212-.469.386l-.832 1.173 1.946 1.38ZM6.474 29.72l.407-.834 2.255 3.573 2.666 1.3-.346.708-2.665-1.3-4.203.418.407-.833 3.194-.318-1.715-2.714ZM7.855 44.278l-5.87-3.191.182-.576 4.974-.283-3.906-3.09.182-.577 6.638.765-.242.764-4.816-.557 3.696 2.916-.157.496-4.7.256 4.26 2.313-.241.764ZM.636 47.81l.087-.783 6.52.725-.088.783-3.1-.345-.36 3.227 3.101.345-.087.783-6.519-.726.087-.782 2.636.293.359-3.227-2.636-.294ZM6.802 56.246c.01.444-.07.862-.237 1.256-.17.394-.407.743-.71 1.045-.307.3-.664.539-1.073.716a3.512 3.512 0 0 1-1.316.274 3.454 3.454 0 0 1-2.422-.894 3.231 3.231 0 0 1-.751-1.016A2.98 2.98 0 0 1 0 56.382a2.983 2.983 0 0 1 .34-1.474c.238-.452.559-.828.962-1.13l.389.69a2.364 2.364 0 0 0-.668.843 2.248 2.248 0 0 0-.236 1.055c.006.34.081.658.225.952.143.29.337.544.582.761a2.711 2.711 0 0 0 1.855.67c.36-.006.695-.075 1.008-.206.313-.135.587-.315.823-.542.236-.23.42-.492.552-.789.128-.3.189-.616.182-.95a2.231 2.231 0 0 0-.278-1.054 2.536 2.536 0 0 0-.7-.806l.365-.706c.415.286.75.65 1.006 1.091.252.442.384.928.394 1.46ZM.355 61.297l.779-.118.326 2.159 5.707-.864.118.779-5.707.863.326 2.155-.778.118-.77-5.092ZM2.384 71.25l-.261-.914 5.65-4.097.23.802-1.155.837.847 2.96 1.42.095.231.807-6.962-.49Zm4.474-.475-.687-2.401-2.949 2.144 3.636.257ZM12.016 77.867l-5.262 4.261-.338-.737 4.154-3.36-5.254.963-.295-.643 4.154-3.361-5.254.963-.338-.737 6.657-1.22.383.835-3.812 3.085 4.824-.88.381.831ZM15.033 86.713c.096.127.133.269.113.424a.575.575 0 0 1-.236.381.548.548 0 0 1-.42.11.555.555 0 0 1-.38-.225.561.561 0 0 1-.111-.431.54.54 0 0 1 .221-.377.566.566 0 0 1 .813.118ZM25.48 94.13l-4.237 5.008-3.072-2.6.508-.6 2.472 2.09 1.204-1.423-2.024-1.713.508-.601 2.025 1.713 1.506-1.782-2.471-2.091.508-.601 3.073 2.6ZM32.573 98.84l-4.571 4.873-.512-.322.985-4.885-3.977 2.999-.512-.322 2.419-6.23.678.427-1.757 4.52 3.755-2.84.44.278-.94 4.613 3.314-3.538.678.427ZM36.11 100.259c.482.209.85.508 1.102.897.25.389.386.822.406 1.301.016.48-.081.963-.291 1.447l-1.524 3.507-.722-.314 1.524-3.507c.15-.344.224-.688.223-1.032a1.815 1.815 0 0 0-.253-.933c-.17-.278-.428-.492-.778-.644-.355-.155-.69-.198-1.006-.131-.316.07-.598.222-.846.455a2.567 2.567 0 0 0-.602.868l-1.523 3.507-.722-.314 1.523-3.507c.158-.364.361-.681.608-.952.246-.268.524-.477.835-.628.308-.153.636-.233.984-.242.347-.009.702.065 1.063.222ZM41.827 102.33c.338.099.65.247.934.444.283.201.514.434.692.702.176.266.273.55.292.852l-.783.058a1.012 1.012 0 0 0-.204-.538 1.995 1.995 0 0 0-.495-.458 2.418 2.418 0 0 0-.658-.305 2.21 2.21 0 0 0-.789-.09c-.26.022-.485.091-.676.207a.84.84 0 0 0-.38.495.724.724 0 0 0 .069.601c.108.185.268.352.478.501.209.153.434.289.676.408.413.2.773.416 1.08.649.301.235.518.502.648.801.128.298.134.643.019 1.036a1.59 1.59 0 0 1-.596.865c-.293.21-.635.34-1.026.388a2.94 2.94 0 0 1-1.19-.105 3.157 3.157 0 0 1-.92-.441 2.612 2.612 0 0 1-.7-.694 1.747 1.747 0 0 1-.306-.875l.792-.051a.97.97 0 0 0 .208.539c.125.173.289.326.491.457.199.133.418.234.658.305.265.081.527.111.784.088a1.51 1.51 0 0 0 .672-.208.833.833 0 0 0 .377-.49c.074-.252.065-.464-.027-.638a1.327 1.327 0 0 0-.462-.458 8.203 8.203 0 0 0-.726-.403 5.151 5.151 0 0 1-1.037-.661 2.292 2.292 0 0 1-.663-.834c-.141-.308-.159-.642-.053-1.002.107-.366.307-.654.6-.864.29-.211.63-.341 1.022-.389a2.941 2.941 0 0 1 1.199.108ZM49.06 104.028l-1.13 6.463-3.963-.693.135-.776 3.19.558.32-1.837-2.612-.457.135-.775 2.613.456.401-2.299-3.189-.557.136-.776 3.964.693ZM54.466 104.454 54.039 111l-2.3-.15a1.779 1.779 0 0 1-.927-.319 1.877 1.877 0 0 1-.628-.74 1.907 1.907 0 0 1-.19-.989c.021-.315.102-.598.244-.848a1.845 1.845 0 0 1 1.313-.924l-1.41-2.858.907.059 1.387 2.79 1.07.07.175-2.689.786.052Zm-1.012 3.423-1.435-.094a1.149 1.149 0 0 0-1.043.514 1.185 1.185 0 0 0-.199.598c-.015.228.025.434.12.618.09.188.222.339.393.453.17.118.362.183.574.197l1.435.094.155-2.38ZM59.237 110.882l-.923.09 1.861-3.793-.288-2.952.784-.076.288 2.952 2.559 3.361-.924.09-1.943-2.555-1.414 2.883ZM70.912 102.08l.358 6.672-.586.147-2.847-4.09-.585 4.947-.587.147-2.825-6.056.777-.195 2.049 4.396.546-4.677.505-.126 2.68 3.87-.262-4.841.777-.194ZM77.702 106.379l-.712.336-2.797-5.934.712-.335 1.33 2.822 2.937-1.385-1.33-2.822.711-.336 2.797 5.934-.712.336-1.13-2.399-2.937 1.384 1.13 2.399ZM81.657 96.707c.373-.24.771-.392 1.194-.456a3.33 3.33 0 0 1 1.262.057 3.51 3.51 0 0 1 1.171.54c.363.257.67.583.924.977.253.394.422.81.505 1.246.081.438.082.867.002 1.286a3.23 3.23 0 0 1-.472 1.172 2.98 2.98 0 0 1-.908.901 2.985 2.985 0 0 1-1.433.482 3.336 3.336 0 0 1-1.466-.227l.384-.693c.34.123.695.166 1.068.127a2.257 2.257 0 0 0 1.022-.351c.286-.184.517-.414.692-.69.173-.275.288-.573.344-.895a2.71 2.71 0 0 0-.4-1.932 2.725 2.725 0 0 0-.705-.75 2.738 2.738 0 0 0-.893-.418c-.319-.08-.64-.1-.96-.056a2.269 2.269 0 0 0-.905.342 2.23 2.23 0 0 0-.752.79 2.538 2.538 0 0 0-.32 1.018l-.792.058c.026-.502.16-.979.402-1.428.244-.446.59-.813 1.036-1.1ZM89.335 99.553l-.507-.601 1.667-1.41-3.725-4.41.601-.507 3.726 4.41 1.664-1.407.508.602-3.934 3.323ZM96.75 92.61l-.642.703-6.45-2.668.564-.616 1.317.545 2.078-2.272-.663-1.26.566-.62 3.23 6.189Zm-2.749-3.562-1.685 1.843 3.371 1.389-1.686-3.232ZM97.34 80.938l6.385 2.251-.45.674-5.039-1.779 3.573 3.972-.393.589-5.039-1.779 3.573 3.972-.45.674-4.527-5.032.51-.764 4.624 1.631-3.275-3.649.508-.76ZM103.292 73.734a.565.565 0 0 1 .303-.318.574.574 0 0 1 .448 0c.148.06.253.16.314.302a.559.559 0 0 1 .007.44.561.561 0 0 1-.309.322.54.54 0 0 1-.437.008.57.57 0 0 1-.326-.754ZM103.832 63.21l6.432 1.288-.79 3.947-.771-.155.635-3.175-1.829-.366-.52 2.601-.772-.154.52-2.601-2.288-.458-.635 3.175-.771-.154.789-3.947ZM104.525 54.723 111 56.37l-.035.603-4.751 1.5 4.548 2.032-.035.604-6.622.895.046-.8 4.806-.648-4.301-1.914.03-.52 4.492-1.407-4.699-1.19.046-.8ZM104.055 50.94c-.049-.523.035-.989.253-1.398.219-.407.533-.735.942-.985a3.325 3.325 0 0 1 1.408-.444l3.806-.362.074.784-3.806.362c-.373.035-.71.136-1.011.303-.301.17-.532.394-.694.673-.161.282-.224.613-.188.992.037.386.161.7.372.944.215.243.484.417.807.521.327.107.678.143 1.051.107l3.806-.361.074.783-3.806.362c-.395.038-.77.014-1.127-.072a2.767 2.767 0 0 1-.953-.427 2.322 2.322 0 0 1-.688-.744 2.503 2.503 0 0 1-.32-1.038ZM103.104 44.935a3.185 3.185 0 0 1-.062-1.033c.038-.345.131-.66.278-.946.149-.283.35-.505.605-.668l.43.658c-.157.1-.281.245-.373.439a2.01 2.01 0 0 0-.161.655c-.019.241-.003.482.051.723.061.275.162.52.303.734.145.218.314.382.508.492.194.11.4.141.616.093a.721.721 0 0 0 .493-.35c.11-.184.179-.405.208-.661.033-.257.043-.52.031-.79a6.242 6.242 0 0 1 .045-1.258c.06-.378.189-.697.387-.955.199-.256.498-.428.898-.517.372-.083.72-.049 1.045.103.326.154.604.391.836.711.231.32.392.684.483 1.092.076.339.096.678.06 1.02-.033.343-.122.659-.269.948a1.746 1.746 0 0 1-.619.69l-.427-.668c.16-.1.284-.248.371-.443.092-.194.146-.41.162-.651.021-.238.004-.48-.05-.723a2.083 2.083 0 0 0-.302-.73 1.52 1.52 0 0 0-.507-.487.834.834 0 0 0-.612-.094c-.256.057-.438.168-.545.333a1.329 1.329 0 0 0-.177.625 7.89 7.89 0 0 0-.002.831c.022.43-.003.84-.077 1.227-.07.387-.207.715-.409.985-.202.272-.486.449-.851.53a1.577 1.577 0 0 1-1.047-.107 2.142 2.142 0 0 1-.834-.707 2.933 2.933 0 0 1-.486-1.101ZM101.093 37.78l6.202-2.136 1.31 3.806-.744.256-1.054-3.061-1.763.607.863 2.508-.744.256-.863-2.508-2.207.76 1.055 3.062-.745.256-1.31-3.806ZM98.851 32.843l5.936-2.793.981 2.086c.149.317.205.64.169.967-.034.33-.149.633-.344.907-.191.277-.449.491-.774.644-.286.135-.572.2-.86.198a1.85 1.85 0 0 1-1.444-.704l-1.819 2.617-.387-.823 1.772-2.563-.457-.971-2.438 1.147-.335-.712Zm3.485-.77.612 1.302a1.156 1.156 0 0 0 .955.664c.209.02.415-.02.619-.115.206-.097.367-.231.483-.403.12-.17.189-.358.206-.563a1.11 1.11 0 0 0-.105-.598l-.612-1.302-2.158 1.015ZM102.17 25.557l.525.765-4.22.204-2.444 1.68-.445-.65 2.444-1.679 1.705-3.866.525.765-1.296 2.937 3.206-.156ZM88.82 19.592l5.668-3.54.411.443-2.202 4.47 4.612-1.88.412.442-3.934 5.402-.546-.586 2.856-3.92-4.357 1.784-.354-.381 2.091-4.219-4.11 2.571-.546-.586ZM89.301 11.569l.638.46-3.84 5.32-.639-.462 1.827-2.53-2.632-1.901-1.827 2.53-.638-.461 3.84-5.318.639.46-1.553 2.15 2.632 1.902 1.553-2.15ZM78.923 12.784a3.024 3.024 0 0 1-.976-.826 3.331 3.331 0 0 1-.56-1.133 3.514 3.514 0 0 1-.094-1.286c.05-.441.186-.868.409-1.28a3.456 3.456 0 0 1 1.97-1.668 3.23 3.23 0 0 1 1.254-.155c.428.03.837.149 1.228.36.467.252.839.592 1.114 1.022.276.43.446.894.51 1.393l-.792-.001a2.365 2.365 0 0 0-.405-.996 2.248 2.248 0 0 0-.801-.726 2.246 2.246 0 0 0-.94-.272 2.462 2.462 0 0 0-.949.132 2.71 2.71 0 0 0-1.497 1.285c-.17.316-.275.642-.315.98-.037.338-.015.665.066.982.083.319.222.608.415.869.197.259.443.468.737.627.335.18.687.273 1.054.276.372.001.72-.07 1.047-.213l.434.666c-.453.22-.934.333-1.445.338a3.012 3.012 0 0 1-1.464-.374ZM77.702 4.685l-.281.735-2.04-.778-2.058 5.393-.735-.28 2.058-5.394-2.036-.777.281-.736 4.81 1.837ZM68.04 1.55l.925.223.784 6.936-.811-.195-.16-1.417-2.993-.72-.783 1.19-.815-.196 3.853-5.82Zm-1.788 4.13 2.428.584-.415-3.623-2.013 3.039ZM57.54 6.679 56.422 0l.808.068.88 5.271L59.857.291l.705.06.88 5.27L63.19.574 64 .642l-2.216 6.396-.915-.078-.808-4.837-1.61 4.633-.91-.077Z"/></svg>