<svg xmlns="http://www.w3.org/2000/svg" fill="none" viewBox="0 0 50 51"><path fill="currentColor" d="M49.298 28.594a.589.589 0 0 1-.586-.534 23.82 23.82 0 0 0-47.425 0 .59.59 0 0 1-1.173 0 25 25 0 1 1 49.772 0 .59.59 0 0 1-.588.534ZM24.999 1.844A23.86 23.86 0 0 0 1.486 21.838a25.011 25.011 0 0 1 47.03 0A23.859 23.859 0 0 0 25 1.845Z"/><path fill="currentColor" d="M48.96 30.933a.59.59 0 0 1-.574-.479 23.825 23.825 0 0 0-46.766 0 .589.589 0 0 1-1.156 0 25.28 25.28 0 0 1-.346-2.394.592.592 0 0 1 0-.11 25 25 0 0 1 49.77 0 .644.644 0 0 1 0 .11c-.076.801-.19 1.607-.345 2.395a.589.589 0 0 1-.582.478ZM25 6.522A23.705 23.705 0 0 0 1.482 26.52a25.009 25.009 0 0 1 47.033 0A23.705 23.705 0 0 0 24.999 6.522Z"/><path fill="currentColor" d="M48.385 33.272a.588.588 0 0 1-.564-.42 23.83 23.83 0 0 0-45.642 0 .588.588 0 0 1-1.128 0 25.23 25.23 0 0 1-.591-2.395.604.604 0 0 1 0-.225 25.004 25.004 0 0 1 49.08 0 .595.595 0 0 1 0 .225c-.157.805-.355 1.611-.59 2.395a.588.588 0 0 1-.565.42ZM25 14.702a24.778 24.778 0 0 1 15.059 5.043 25.253 25.253 0 0 1 8.243 10.89l.06-.288a23.825 23.825 0 0 0-46.722 0l.06.288a25.251 25.251 0 0 1 8.242-10.89A24.778 24.778 0 0 1 25 14.702Z"/><path fill="currentColor" d="M47.551 35.611a.59.59 0 0 1-.544-.362 23.83 23.83 0 0 0-44.015 0 .59.59 0 0 1-1.088 0 24.909 24.909 0 0 1-.854-2.395.583.583 0 0 1 0-.338 25.198 25.198 0 0 1 8.891-12.77 25.004 25.004 0 0 1 30.116 0 25.196 25.196 0 0 1 8.892 12.77.586.586 0 0 1 0 .338 24.787 24.787 0 0 1-.854 2.395.589.589 0 0 1-.544.362Zm-45.32-2.928c.082.268.17.535.262.802a25.01 25.01 0 0 1 45.01 0c.091-.266.179-.533.262-.802a23.828 23.828 0 0 0-45.54 0h.005Z"/><path fill="currentColor" d="M46.43 37.951a.59.59 0 0 1-.517-.306 23.83 23.83 0 0 0-41.827 0 .59.59 0 0 1-1.033 0 25.014 25.014 0 0 1-1.15-2.395.592.592 0 0 1 0-.452 25.008 25.008 0 0 1 46.193 0c.06.145.06.308 0 .453-.34.817-.724 1.616-1.15 2.394a.588.588 0 0 1-.515.306ZM25 24.057a25.008 25.008 0 0 1 21.404 12.076c.18-.366.35-.737.51-1.111a23.831 23.831 0 0 0-43.825 0c.16.374.33.744.51 1.11A25.008 25.008 0 0 1 25 24.058Z"/><path fill="currentColor" d="M44.972 40.29a.59.59 0 0 1-.479-.25 23.824 23.824 0 0 0-38.982 0 .59.59 0 0 1-.963 0 25.164 25.164 0 0 1-1.493-2.393.588.588 0 0 1 0-.566 25.01 25.01 0 0 1 43.895 0 .589.589 0 0 1 0 .566 25.265 25.265 0 0 1-1.493 2.394.59.59 0 0 1-.485.25Zm-40.73-2.928c.252.445.52.885.8 1.316a25.001 25.001 0 0 1 39.912 0c.28-.431.549-.87.8-1.316a23.83 23.83 0 0 0-41.512 0Z"/><path fill="currentColor" d="M43.103 42.63a.586.586 0 0 1-.437-.191 23.82 23.82 0 0 0-35.332 0 .59.59 0 0 1-.675.141.59.59 0 0 1-.199-.141 25.228 25.228 0 0 1-1.915-2.395.59.59 0 0 1 0-.678 25.003 25.003 0 0 1 40.91 0 .588.588 0 0 1 0 .68 25.232 25.232 0 0 1-1.916 2.394.59.59 0 0 1-.436.19ZM5.754 39.702c.367.501.754.99 1.157 1.461a24.994 24.994 0 0 1 36.182 0c.403-.471.79-.958 1.157-1.461a23.824 23.824 0 0 0-38.497 0h.001Z"/><path fill="currentColor" d="M40.671 44.97a.591.591 0 0 1-.383-.138 23.816 23.816 0 0 0-30.585 0 .59.59 0 0 1-.757 0 25.295 25.295 0 0 1-2.49-2.394.589.589 0 0 1 0-.791 25 25 0 0 1 37.08 0 .59.59 0 0 1 0 .79 25.338 25.338 0 0 1-2.49 2.395.59.59 0 0 1-.375.138ZM25 38.096a25.028 25.028 0 0 1 15.663 5.516 22.88 22.88 0 0 0 1.636-1.57 23.818 23.818 0 0 0-34.6 0 24.149 24.149 0 0 0 1.636 1.57A25.027 25.027 0 0 1 25 38.096Z"/><path fill="currentColor" d="M12.642 47.31a.589.589 0 0 1-.299-.082 25.13 25.13 0 0 1-3.394-2.394.59.59 0 0 1 0-.903 24.994 24.994 0 0 1 32.1 0 .59.59 0 0 1 0 .903 25.178 25.178 0 0 1-3.394 2.394.59.59 0 0 1-.598 0 23.837 23.837 0 0 0-24.116 0 .59.59 0 0 1-.299.081Zm12.354-4.535a24.986 24.986 0 0 1 12.353 3.261 24.054 24.054 0 0 0 2.385-1.655 23.82 23.82 0 0 0-29.475 0c.761.6 1.557 1.152 2.385 1.655A24.986 24.986 0 0 1 25 42.775h-.004Z"/><path fill="currentColor" d="M31.988 49.649a.594.594 0 0 1-.168-.025 23.932 23.932 0 0 0-13.639 0 .59.59 0 0 1-.337 0 24.894 24.894 0 0 1-5.5-2.394.589.589 0 0 1 0-1.016 25.016 25.016 0 0 1 25.312 0 .588.588 0 0 1 0 1.016 24.882 24.882 0 0 1-5.499 2.394.594.594 0 0 1-.168.025Zm-6.99-2.195a25.024 25.024 0 0 1 6.986.991 23.714 23.714 0 0 0 4.164-1.724 23.847 23.847 0 0 0-22.3 0 23.692 23.692 0 0 0 4.164 1.724A25.018 25.018 0 0 1 25 47.454h-.002Z"/><path fill="currentColor" d="M25 50.666a25.02 25.02 0 0 1-7.157-1.042.59.59 0 0 1 0-1.13 25.106 25.106 0 0 1 14.313 0 .588.588 0 0 1 0 1.13A25.021 25.021 0 0 1 25 50.666Zm-4.51-1.606c2.98.568 6.04.568 9.02 0a24.06 24.06 0 0 0-9.02 0Z"/></svg>