<svg xmlns="http://www.w3.org/2000/svg" fill="none" viewBox="0 0 50 51"><path fill="currentColor" d="M29.174 50.666h-8.342a.707.707 0 0 1-.707-.707V37.437l-8.855 8.861a.709.709 0 0 1-1 0l-5.893-5.9a.707.707 0 0 1 0-1l8.85-8.854H.707A.707.707 0 0 1 0 29.837v-8.343a.707.707 0 0 1 .707-.706h12.52l-8.847-8.85a.707.707 0 0 1 0-1l5.893-5.9a.728.728 0 0 1 1 0l8.856 8.857V1.373a.707.707 0 0 1 .707-.707h8.338a.707.707 0 0 1 .707.707v12.522l8.85-8.853a.708.708 0 0 1 .999 0l5.899 5.906a.707.707 0 0 1 0 1l-8.848 8.844h12.512A.707.707 0 0 1 50 21.5v8.343a.708.708 0 0 1-.707.707H36.78l8.85 8.85a.707.707 0 0 1 0 1l-5.902 5.904a.708.708 0 0 1-1 0l-8.846-8.853v12.516a.708.708 0 0 1-.708.7Zm-7.631-1.414h6.925V35.735a.707.707 0 0 1 1.206-.5l9.554 9.56 4.902-4.902-9.557-9.558a.707.707 0 0 1 .5-1.207h13.513v-6.925H35.073a.707.707 0 0 1-.5-1.206l9.557-9.553-4.9-4.904-9.556 9.56a.708.708 0 0 1-1.206-.5V2.072h-6.925v13.524a.708.708 0 0 1-1.207.5l-9.562-9.564-4.893 4.9 9.553 9.558a.706.706 0 0 1-.5 1.207H1.42v6.928h13.518a.707.707 0 0 1 .5 1.207l-9.556 9.562 4.893 4.899 9.562-9.563a.706.706 0 0 1 1.207.5v13.522Z"/></svg>