<svg xmlns="http://www.w3.org/2000/svg" width="48" height="48" viewBox="0 0 48 48"><path fill="#f7df1e" d="M6,42V6H42V42H6Z"></path><path d="M28.9,35.8c.6,1.1,1.4,2,2.9,2,1.2,0,2-.6,2-1.4,0-1-.8-1.4-2.3-2l-.8-.3c-2.3-1-3.9-2.2-3.9-4.8,0-2.4,1.8-4.3,4.6-4.3a4.72,4.72,0,0,1,4.3,2.4l-2.3,1.5a2.09,2.09,0,0,0-2-1.4c-.9,0-1.5.6-1.5,1.4,0,1,.6,1.4,2.1,2l.8.3c2.7,1.2,4.3,2.3,4.3,5,0,2.8-2.2,4.4-5.2,4.4a5.37,5.37,0,0,1-5.1-3Zm-11.9.3c.4.7.8,1.3,1.7,1.3s1.3-.3,1.3-1.6V24h3.2v11.9c0,3.3-1.9,4.8-4.6,4.8a5.05,5.05,0,0,1-4.5-2.5Z" fill="#000"></path></svg>