<svg xmlns="http://www.w3.org/2000/svg" fill="none" viewBox="0 0 108 20"><path fill="#fff" d="M9.258 0c.918 0 1.766.071 2.544.283a5.523 5.523 0 0 1 1.978.777c.566.353.99.848 1.273 1.485.282.635.423 1.413.423 2.261 0 .989-.212 1.838-.706 2.474-.424.635-1.13 1.2-1.979 1.624 1.201.354 2.12.989 2.685 1.838.566.848.92 1.908.92 3.11 0 .988-.213 1.836-.566 2.543a4.702 4.702 0 0 1-1.555 1.767 7.286 7.286 0 0 1-2.261.99c-.848.21-1.696.353-2.544.353H0V0h9.258Zm-.566 7.915c.778 0 1.414-.212 1.908-.565.495-.354.707-.99.707-1.767 0-.424-.07-.848-.212-1.13-.141-.284-.353-.496-.636-.708-.283-.14-.565-.282-.919-.353-.353-.07-.706-.07-1.13-.07h-4.1v4.593h4.382Zm.212 8.339c.424 0 .848-.07 1.202-.14a2.49 2.49 0 0 0 .989-.426 2.52 2.52 0 0 0 .707-.777c.141-.353.282-.778.282-1.272 0-.99-.282-1.696-.848-2.191-.565-.424-1.342-.636-2.261-.636H4.311v5.442h4.593Zm13.64-.07c.565.564 1.413.847 2.543.847.778 0 1.485-.212 2.05-.565.565-.425.918-.848 1.06-1.273h3.463c-.566 1.696-1.414 2.898-2.544 3.675-1.131.707-2.474 1.131-4.1 1.131-1.13 0-2.12-.212-3.038-.566a5.644 5.644 0 0 1-2.261-1.554 5.606 5.606 0 0 1-1.414-2.333c-.353-.918-.494-1.907-.494-3.038 0-1.06.14-2.049.494-2.968a7.618 7.618 0 0 1 1.484-2.402c.636-.636 1.414-1.202 2.262-1.555a7.93 7.93 0 0 1 2.968-.566c1.201 0 2.261.212 3.18.707s1.625 1.06 2.19 1.908c.566.778.99 1.696 1.273 2.686.141.989.212 1.978.141 3.11H21.554c0 1.13.424 2.19.99 2.755Zm4.451-7.421c-.494-.495-1.271-.777-2.19-.777-.636 0-1.13.14-1.555.353-.424.212-.707.494-.99.777-.282.284-.423.636-.494.99-.07.353-.141.635-.141.918h6.36c-.142-1.06-.495-1.766-.99-2.261ZM37.313 0v7.35h.07c.495-.848 1.131-1.414 1.909-1.767.777-.354 1.484-.566 2.261-.566 1.06 0 1.908.142 2.544.424.636.283 1.202.707 1.555 1.202a4.82 4.82 0 0 1 .777 1.837c.142.707.212 1.485.212 2.403v8.692h-3.886V11.59c0-1.202-.212-2.05-.566-2.615-.353-.565-.989-.848-1.908-.848-1.06 0-1.837.353-2.261.92-.495.635-.707 1.695-.707 3.108v7.42h-3.887V0h3.887Zm12.155 7.49c.424-.635.919-1.06 1.555-1.484a6.924 6.924 0 0 1 2.12-.777 13.006 13.006 0 0 1 2.332-.212c.707 0 1.413.07 2.191.141.707.07 1.414.282 1.979.565.636.282 1.06.707 1.484 1.202.353.495.565 1.202.565 2.05v7.42c0 .636.07 1.272.141 1.838.072.566.282 1.06.495 1.342h-3.957c-.142-.141-.213-.424-.283-.635-.07-.213-.07-.495-.07-.707a5.418 5.418 0 0 1-2.192 1.342c-.848.283-1.696.354-2.544.354-.706 0-1.272-.071-1.908-.282-.565-.142-1.06-.425-1.554-.778a4.071 4.071 0 0 1-1.06-1.342 5.112 5.112 0 0 1-.354-1.91c0-.777.142-1.484.424-1.978a4.628 4.628 0 0 1 1.06-1.272c.424-.282.99-.565 1.555-.707.565-.14 1.13-.282 1.767-.353l1.696-.212c.565-.07 1.06-.141 1.484-.212.424-.141.777-.283 1.06-.495.282-.212.353-.494.353-.918 0-.424-.07-.778-.212-.99a2.15 2.15 0 0 0-.565-.565c-.213-.141-.495-.212-.778-.282-.282-.071-.636-.071-.989-.071-.777 0-1.343.14-1.767.494-.424.354-.706.919-.777 1.626h-3.887c0-.848.283-1.626.636-2.191Zm7.702 5.513c-.21.07-.494.141-.777.212-.283.072-.565.072-.919.141-.282.071-.635.071-.918.142l-.848.212c-.283.07-.566.212-.707.353-.212.141-.353.353-.495.566-.211.282-.211.565-.211.918 0 .353.07.636.212.848.141.212.283.425.495.566.212.14.494.212.777.282.283.07.565.07.918.07.778 0 1.343-.14 1.767-.352.425-.282.706-.566.92-.92.211-.353.352-.706.352-1.06.071-.352.071-.634.071-.847V12.65c-.212.141-.424.283-.637.353Zm10.39-7.632V7.35h.07c.495-.848 1.132-1.414 1.908-1.767.778-.354 1.626-.566 2.403-.566 1.06 0 1.908.142 2.544.424a3.416 3.416 0 0 1 1.555 1.202c.354.495.636 1.13.848 1.837.141.707.212 1.485.212 2.403v8.692h-3.886V11.59c0-1.202-.213-2.05-.566-2.615-.354-.565-.99-.919-1.98-.919-1.06 0-1.837.424-2.331 1.06-.495.636-.707 1.696-.707 3.11v7.42h-3.887V5.37h3.817Zm18.231 2.544c-.635 0-1.13.141-1.554.425a3.258 3.258 0 0 0-1.06 1.13c-.282.424-.424.919-.566 1.484-.14.566-.14 1.06-.14 1.627 0 .493.07 1.06.14 1.553.142.566.283.99.566 1.414.283.425.566.778.99 1.06.424.283.918.425 1.554.425.92 0 1.626-.283 2.19-.779.496-.493.85-1.2.92-2.12h3.745c-.282 1.909-.988 3.322-2.191 4.312-1.2.989-2.756 1.484-4.664 1.484-1.06 0-2.05-.212-2.898-.565a6.288 6.288 0 0 1-2.261-1.484 6.993 6.993 0 0 1-1.485-2.262c-.353-.918-.494-1.838-.494-2.898 0-1.13.14-2.12.494-3.039.353-.918.778-1.766 1.413-2.473.636-.707 1.414-1.201 2.263-1.625a8.302 8.302 0 0 1 3.038-.566c.848 0 1.626.142 2.402.354a6.163 6.163 0 0 1 2.05.988c.636.425 1.13.99 1.484 1.696.353.636.566 1.484.636 2.403h-3.816c-.14-1.696-1.059-2.544-2.756-2.544ZM20.777 1.343h7.915V3.25h-7.915V1.343Zm77.665 14.84c.566.566 1.484.848 2.544.848.778 0 1.485-.212 2.049-.565.566-.425.92-.848 1.06-1.273h3.393c-.566 1.696-1.413 2.898-2.545 3.675-1.131.707-2.473 1.131-4.099 1.131-1.13 0-2.12-.212-3.039-.566a5.647 5.647 0 0 1-2.26-1.554 5.606 5.606 0 0 1-1.414-2.333c-.353-.918-.495-1.907-.495-3.038 0-1.06.142-2.049.495-2.968a7.604 7.604 0 0 1 1.484-2.402c.636-.636 1.413-1.202 2.261-1.555a8.213 8.213 0 0 1 2.968-.566c1.201 0 2.261.212 3.11.707.918.495 1.625 1.06 2.191 1.908.565.778.989 1.696 1.272 2.686.282.988.353 2.048.282 3.18H97.452c0 1.06.424 2.12.99 2.685Zm4.523-7.42c-.495-.495-1.273-.777-2.191-.777-.636 0-1.132.14-1.556.353-.424.212-.777.494-.988.777-.212.284-.425.636-.495.99-.07.353-.14.635-.14.918h6.36c-.213-1.06-.566-1.766-.99-2.261Z"/></svg>