<svg xmlns="http://www.w3.org/2000/svg" fill="none" viewBox="0 0 67 26"><path fill="#fff" d="M38.51 25.999c-1.704-.593-2.68-1.895-3.158-3.54-.928-3.187-.794-6.373.373-9.493a5.355 5.355 0 0 1 1.29-1.98c1.291-1.245 2.814-1.522 4.497-1.004.153.048.316.105.516.172v-7.37c0-.468.038-.497.517-.506h1.425c.45 0 .47.019.479.459v22.66c0 .212-.096.336-.326.316h-.029c-.354 0-.755.095-1.042-.048-.278-.134-.44-.516-.622-.746l-1.798 1.062-2.125.009.003.009Zm3.53-8.029.02-5.004c.02-.555-.192-.832-.66-1.024-.152-.057-.306-.134-.459-.172-.956-.287-1.732-.048-2.296.775a4.871 4.871 0 0 0-.65 1.253c-.852 2.546-.852 5.138-.25 7.74.067.278.183.546.288.804.688 1.636 2.066 2.153 3.684 1.405.239-.114.334-.239.334-.516l-.009-5.264-.001.003ZM13.84 0c.211.164.106.355.039.536l-2.67 7.272-3.227 8.89a1.692 1.692 0 0 0-.106.574v7.96c0 .478-.01.478-.487.478-.498 0-.996-.02-1.494.01-.315.009-.43-.096-.42-.412l.009-2.94v-5.116a1.685 1.685 0 0 0-.106-.613L.143 2.947C.105 2.84.048 2.755 0 2.66v-.201c.153-.048.306-.124.459-.124l1.655-.01s.545 0 .727.517l3.894 10.975.163.392.134-.44.765-2.804L11.21.392c.048-.134.162-.249.248-.373L13.84 0ZM14.701 25.999c-2.411-.986-3.071-3.828-2.89-5.819.077-.822.249-1.607.602-2.363 1.053-2.239 3.177-3.062 5.465-2.105l.383.163c-.029-1.205.01-2.382-.631-3.426-.43-.708-1.1-.966-1.875-.67-.527.201-1.014.488-1.503.756-.45.25-.536.24-.756-.22l-.593-1.262c-.105-.21-.095-.392.144-.498 1.397-.583 2.832-1.042 4.373-.756 1.617.297 2.564 1.36 2.899 2.91.22 1.042.316 2.123.335 3.185l.02 9.416c0 .306-.096.402-.412.44-.823.106-1.388-.114-1.54-1.003-.01-.038-.039-.077-.087-.173-.555.66-1.215 1.14-2.008 1.426h-1.926v-.001Zm3.56-5.397v-1.886c0-.88-.067-.975-.9-1.273a1.923 1.923 0 0 0-.22-.066c-1.176-.335-1.936 0-2.392 1.128-.555 1.397-.555 2.833-.029 4.231.24.642.66 1.159 1.388 1.302.736.143 1.368-.134 1.923-.593a.677.677 0 0 0 .22-.46l.01-2.391v.008ZM51.043 26c-1.74-.498-2.842-1.675-3.492-3.311-.23-.584-.421-1.197-.507-1.809-.421-2.756-.23-5.464.823-8.066.325-.813.784-1.56 1.462-2.152 1.646-1.434 3.847-1.158 5.1.622.632.9.939 1.915 1.14 2.976.258 1.368.258 2.747.239 4.105h-6.354c0 .488-.066 1.043.02 1.58.124.716.286 1.454.573 2.123.545 1.273 1.665 1.915 3.052 1.818.593-.038 1.176-.152 1.77-.258.278-.057.421.01.47.287.047.24.085.478.171.708.106.297 0 .469-.268.564l-2.201.803h-2.008l.01.01Zm2.268-9.557c.01-.067.029-.144.02-.22-.078-.804-.125-1.609-.24-2.403-.096-.613-.287-1.205-.689-1.703-.469-.574-1.187-.622-1.694-.086-.191.2-.383.45-.468.708-.231.722-.423 1.457-.575 2.2-.115.545-.124 1.1-.182 1.637l3.827-.134Zm12.985-6.024-3.177 6.984a.629.629 0 0 0-.01.584l3.043 7.157c.201.469.124.574-.363.574-.46 0-.928-.02-1.388.01-.344.018-.526-.125-.64-.431l-1.953-5.273-.143-.382-.258.784-1.686 4.844c-.114.326-.297.488-.66.47-.43-.02-.86 0-1.29-.01-.488 0-.584-.153-.393-.613l2.469-5.817.66-1.589c.057-.153.066-.373 0-.516l-2.842-6.488c-.22-.507-.144-.622.411-.622l1.388-.025c.363-.02.545.124.66.45l1.74 4.65c.039.115.087.22.164.402l.555-1.522 1.34-3.598c.094-.258.239-.392.535-.383l1.454.01c.124 0 .258.048.383.066V10.418Zm-40.236.47 2.345-.871c.832-.24 1.675-.115 2.46.22.89.383 1.348 1.1 1.474 2.047.038.278.048.555.048.823v12.066c0 .565 0 .565-.574.565h-1.388c-.401 0-.45-.049-.45-.46V13.703c0-1.119-.554-1.703-1.683-1.78-.727-.048-1.397.144-2.048.46-.22.104-.19.267-.19.44v12.334c0 .584 0 .584-.585.584-.497 0-.995-.01-1.493 0-.22 0-.335-.086-.325-.316V10.611c0-.516 0-.516.516-.516l1.493-.01c.306-.009.43.096.392.402l.01.393-.002.007Z"/></svg>