<svg xmlns="http://www.w3.org/2000/svg" fill="none" viewBox="0 0 85 26"><path fill="#fff" d="M12.747 0C5.707 0 0 5.82 0 13s5.707 13 12.747 13 12.747-5.82 12.747-13S19.787 0 12.747 0Zm5.845 18.75a.785.785 0 0 1-1.092.268c-2.993-1.864-6.76-2.286-11.198-1.252a.794.794 0 0 1-.951-.61.81.81 0 0 1 .597-.97c4.856-1.132 9.021-.645 12.381 1.45a.82.82 0 0 1 .263 1.114Zm1.56-3.54a.983.983 0 0 1-1.366.334c-3.427-2.148-8.65-2.77-12.702-1.515a.992.992 0 0 1-1.24-.675 1.019 1.019 0 0 1 .662-1.265c4.63-1.432 10.385-.738 14.32 1.728.467.293.614.917.327 1.393Zm.134-3.686C16.178 9.035 9.4 8.807 5.479 10.021a1.188 1.188 0 0 1-1.487-.81 1.22 1.22 0 0 1 .795-1.517C9.288 6.3 16.773 6.569 21.503 9.433c.568.343.754 1.089.417 1.666a1.18 1.18 0 0 1-1.634.425Zm14.394.477c-2.201-.535-2.592-.911-2.592-1.7 0-.746.688-1.248 1.712-1.248.992 0 1.976.381 3.008 1.166a.14.14 0 0 0 .108.027.141.141 0 0 0 .096-.06l1.074-1.545a.15.15 0 0 0-.027-.2c-1.228-1.005-2.61-1.494-4.227-1.494-2.376 0-4.037 1.455-4.037 3.536 0 2.231 1.433 3.022 3.908 3.631 2.105.495 2.46.91 2.46 1.65 0 .822-.718 1.332-1.874 1.332-1.285 0-2.334-.442-3.506-1.476a.142.142 0 0 0-.204.015l-1.205 1.463a.15.15 0 0 0 .013.205c1.364 1.242 3.042 1.897 4.853 1.897 2.56 0 4.215-1.427 4.215-3.636.004-1.864-1.09-2.896-3.77-3.561l-.005-.002Zm9.568-2.214c-1.11 0-2.02.446-2.772 1.36v-1.029a.145.145 0 0 0-.143-.147h-1.971a.145.145 0 0 0-.143.147v11.426c0 .08.064.148.143.148h1.971c.08 0 .143-.067.143-.148v-3.606c.752.858 1.662 1.28 2.772 1.28 2.062 0 4.15-1.62 4.15-4.715.004-3.096-2.085-4.716-4.149-4.716h-.001Zm1.858 4.716c0 1.575-.95 2.676-2.315 2.676-1.347 0-2.364-1.15-2.364-2.676 0-1.526 1.017-2.676 2.364-2.676 1.341 0 2.316 1.125 2.316 2.676Zm7.643-4.716c-2.656 0-4.737 2.086-4.737 4.75 0 2.634 2.067 4.697 4.705 4.697 2.665 0 4.752-2.079 4.752-4.731 0-2.644-2.073-4.716-4.72-4.716Zm0 7.407c-1.412 0-2.478-1.158-2.478-2.692 0-1.542 1.029-2.66 2.446-2.66 1.422 0 2.493 1.158 2.493 2.694 0 1.54-1.035 2.658-2.46 2.658Zm10.392-7.223h-2.17V7.71a.145.145 0 0 0-.142-.147h-1.972a.147.147 0 0 0-.144.147V9.97h-.947a.145.145 0 0 0-.143.147v1.728c0 .08.064.147.143.147h.947v4.47c0 1.806.881 2.721 2.62 2.721.707 0 1.293-.149 1.846-.468a.144.144 0 0 0 .073-.128v-1.645a.147.147 0 0 0-.069-.124.137.137 0 0 0-.14-.006 2.45 2.45 0 0 1-1.157.284c-.631 0-.914-.294-.914-.949v-4.154h2.169c.079 0 .143-.066.143-.147v-1.728a.141.141 0 0 0-.142-.147l-.001-.001Zm7.556.009v-.278c0-.817.307-1.181.995-1.181.411 0 .741.083 1.111.209a.14.14 0 0 0 .13-.02.147.147 0 0 0 .059-.12V6.896a.145.145 0 0 0-.102-.141 5.303 5.303 0 0 0-1.638-.24c-1.819 0-2.782 1.045-2.782 3.022v.425h-.947a.147.147 0 0 0-.145.148v1.736c0 .08.066.147.145.147h.947v6.894c0 .082.065.147.144.147h1.97c.08 0 .144-.065.144-.147v-6.894h1.84l2.82 6.894c-.32.723-.635.867-1.064.867-.347 0-.714-.105-1.087-.315a.155.155 0 0 0-.114-.01.145.145 0 0 0-.085.078l-.669 1.495a.148.148 0 0 0 .063.191c.697.385 1.326.55 2.103.55 1.456 0 2.26-.692 2.969-2.552l3.418-9.01a.146.146 0 0 0-.015-.137.14.14 0 0 0-.117-.064h-2.052a.145.145 0 0 0-.137.1l-2.102 6.12-2.301-6.125a.144.144 0 0 0-.134-.095h-3.367Zm-4.381-.009h-1.971a.147.147 0 0 0-.145.147v8.769c0 .082.066.147.145.147h1.97c.08 0 .145-.065.145-.147v-8.768a.146.146 0 0 0-.144-.148Zm-.974-3.993c-.781 0-1.414.645-1.414 1.441 0 .797.633 1.442 1.414 1.442.78 0 1.412-.645 1.412-1.442 0-.796-.633-1.44-1.412-1.44Zm17.264 6.812c-.78 0-1.387-.638-1.387-1.414 0-.776.615-1.422 1.394-1.422.78 0 1.387.639 1.387 1.414 0 .775-.615 1.422-1.394 1.422Zm.007-2.695c-.71 0-1.248.576-1.248 1.28 0 .706.535 1.274 1.24 1.274.712 0 1.249-.575 1.249-1.281 0-.705-.534-1.273-1.24-1.273Zm.308 1.418.392.56h-.331l-.353-.514h-.303v.514h-.277V10.59h.648c.34 0 .562.176.562.473a.44.44 0 0 1-.337.451h-.001Zm-.235-.67h-.36v.47h.36c.18 0 .288-.09.288-.235 0-.153-.108-.235-.288-.235Z"/></svg>