<svg xmlns="http://www.w3.org/2000/svg" fill="none" viewBox="0 0 77 25"><path fill="#fff" d="M18.752 8.83H9.853v2.641h6.312c-.313 3.696-3.392 5.283-6.3 5.283a6.937 6.937 0 0 1-6.968-7.03c0-3.998 3.095-7.076 6.976-7.076 2.993 0 4.758 1.909 4.758 1.909l1.848-1.915S14.104 0 9.776 0C4.264 0 0 4.652 0 9.676c0 4.924 4.01 9.725 9.915 9.725 5.194 0 8.996-3.558 8.996-8.819 0-1.11-.162-1.751-.162-1.751h.003ZM26.043 6.918c-3.652 0-6.27 2.855-6.27 6.184 0 3.379 2.538 6.287 6.312 6.287 3.416 0 6.215-2.611 6.215-6.215 0-4.122-3.256-6.256-6.257-6.256Zm.035 2.45c1.796 0 3.497 1.451 3.497 3.79 0 2.29-1.694 3.783-3.505 3.783-1.99 0-3.554-1.593-3.554-3.8 0-2.162 1.55-3.774 3.568-3.774h-.006ZM39.676 6.918c-3.652 0-6.269 2.855-6.269 6.184 0 3.379 2.538 6.287 6.312 6.287 3.416 0 6.214-2.611 6.214-6.215 0-4.122-3.255-6.256-6.257-6.256Zm.036 2.45c1.795 0 3.497 1.451 3.497 3.79 0 2.29-1.695 3.783-3.506 3.783-1.99 0-3.554-1.593-3.554-3.8 0-2.162 1.55-3.774 3.568-3.774h-.005ZM53.048 6.925c-3.352 0-5.986 2.936-5.986 6.23 0 3.754 3.054 6.243 5.928 6.243 1.776 0 2.722-.706 3.411-1.516v1.23c0 2.152-1.306 3.44-3.278 3.44-1.905 0-2.86-1.416-3.198-2.22l-2.397.995C48.378 23.126 50.09 25 53.143 25c3.34 0 5.872-2.099 5.872-6.501v-11.2h-2.604v1.057c-.803-.867-1.903-1.43-3.362-1.43h-.001Zm.241 2.445c1.644 0 3.331 1.403 3.331 3.8 0 2.435-1.684 3.777-3.367 3.777-1.787 0-3.45-1.45-3.45-3.755 0-2.394 1.728-3.822 3.486-3.822ZM70.655 6.91c-3.162 0-5.816 2.516-5.816 6.226 0 3.928 2.959 6.257 6.112 6.257 2.639 0 4.265-1.442 5.225-2.736l-2.156-1.434c-.56.867-1.495 1.716-3.055 1.716-1.753 0-2.559-.96-3.059-1.89l8.361-3.47-.426-1.016c-.808-1.99-2.693-3.653-5.186-3.653Zm.109 2.398c1.14 0 1.959.606 2.307 1.332l-5.584 2.334c-.241-1.807 1.471-3.666 3.27-3.666h.007ZM60.846 19.024h2.747V.645h-2.747v18.379Z"/></svg>