<svg xmlns="http://www.w3.org/2000/svg" fill="none" viewBox="0 0 78 24"><path fill="#fff" d="M72.734 6.703c1.297 0 2.275.245 2.96.71.685.465 1.174 1.199 1.468 2.202.294 1.003.416 2.373.416 4.134v2.863H71.29v.88l.098 2.422c.074.539.196.93.392 1.175.195.244.514.367.93.367.562 0 .954-.22 1.15-.66.22-.441.317-1.175.342-2.178l3.254.196c.024.146.024.342.024.587 0 1.54-.416 2.69-1.272 3.45-.856.758-2.03 1.149-3.572 1.149-1.86 0-3.156-.587-3.89-1.737-.734-1.15-1.125-2.96-1.125-5.382v-2.96c.083-4.16.815-7.205 5.113-7.218Zm-45.235.318v12.257c0 .734.073 1.273.244 1.59.348.68 1.248.507 1.737.172.283-.191.51-.453.66-.759V7.021h3.744v16.71h-2.936l-.318-2.055h-.073C29.749 23.217 28.55 24 26.96 24c-2.447-.006-3.046-1.77-3.189-3.56l-.009-.127a15.148 15.148 0 0 1-.031-.814V7.02h3.767Zm19.302 0v12.257c0 .734.074 1.273.245 1.59.347.68 1.248.507 1.737.172.282-.191.51-.453.66-.759V7.021h3.744v16.71H50.25l-.318-2.055h-.074C49.052 23.217 47.853 24 46.263 24c-2.448-.006-3.046-1.77-3.189-3.56l-.01-.127a15.358 15.358 0 0 1-.03-.814V7.02H46.8Zm-30.165-.318c1.223 0 2.226.245 2.96.759s1.297 1.296 1.64 2.373c.342 1.076.513 2.52.513 4.306v2.422c0 1.786-.171 3.205-.514 4.281-.342 1.076-.88 1.86-1.639 2.373-.758.49-1.786.759-3.058.759-1.32.024-2.348-.245-3.107-.734-.758-.514-1.296-1.297-1.614-2.373-.319-1.077-.465-2.496-.465-4.282v-2.422c0-1.786.17-3.254.538-4.33.367-1.101.93-1.884 1.712-2.373.783-.49 1.786-.759 3.034-.759ZM59.058 0v8.807h.025c.342-.636.782-1.15 1.394-1.541a3.45 3.45 0 0 1 1.933-.587c.905 0 1.59.245 2.104.71.514.489.88 1.247 1.1 2.3.214 1.018.335 2.428.343 4.205v2.815c0 2.471-.318 4.306-.905 5.48-.612 1.175-1.541 1.762-2.814 1.762a3.98 3.98 0 0 1-1.932-.49 3.425 3.425 0 0 1-1.248-1.257l-.049-.088h-.073l-.392 1.59h-3.107V0h3.621ZM44.086.856V3.89h-3.719v19.84h-3.67V3.89h-3.743V.856h11.132Zm-40.343 0 .002.01c.036.159.53 2.358 1.075 4.92l.043.203.065.306.043.206.022.104.043.207.022.104.043.208.063.304c.367 1.774.718 3.553.928 4.829h.098a142.7 142.7 0 0 1 .804-4.104l.081-.391.124-.586.064-.303A475.639 475.639 0 0 1 8.57.937l.007-.032.011-.049h3.743L8 16.294v7.412H4.306v-7.388H4.28L0 .856h3.743Zm12.82 8.44c-.514 0-.857.27-1.077.832-.22.563-.318 1.42-.318 2.618v5.211c0 1.223.098 2.129.294 2.667.196.538.563.807 1.1.807.514 0 .881-.269 1.102-.807.22-.538.318-1.444.318-2.667v-5.21c0-1.2-.098-2.08-.318-2.619-.22-.562-.588-.831-1.101-.831Zm43.156.49c-.299.275-.51.615-.637 1.04l-.024.085v9.493c.303.513.734.856 1.492.88.392 0 .71-.146.955-.44.244-.294.415-.783.513-1.468.094-.658.143-1.563.147-2.717v-2.323c0-1.32-.049-2.324-.122-3.033-.098-.71-.22-1.224-.44-1.517-.426-.612-1.346-.604-1.884 0Zm12.941-.563c-.415.025-.709.147-.88.367-.196.245-.318.612-.392 1.15-.072.527-.097 2.37-.098 2.444v1.201h2.74v-1.059.02c-.001.37-.009-.214-.026-.933l-.002-.096c-.015-.632-.038-1.336-.07-1.577-.073-.563-.195-.954-.39-1.174-.196-.22-.49-.343-.882-.343Z"/></svg>