<svg xmlns="http://www.w3.org/2000/svg" fill="none" viewBox="0 0 91 28"><path fill="#fff" d="M47.96 7.035a1.831 1.831 0 0 1-1.848 1.822 1.831 1.831 0 0 1-1.847-1.822c0-1.009.796-1.822 1.847-1.822 1.052.028 1.848.841 1.848 1.822Zm-7.618 3.672v.448s-.882-1.121-2.758-1.121c-3.099 0-5.515 2.326-5.515 5.55 0 3.195 2.388 5.55 5.515 5.55 1.905 0 2.758-1.15 2.758-1.15v.476c0 .225.17.393.398.393h2.302V10.314H40.74a.404.404 0 0 0-.397.393Zm0 6.755c-.427.616-1.28 1.149-2.303 1.149-1.82 0-3.212-1.122-3.212-3.027 0-1.906 1.392-3.027 3.212-3.027.995 0 1.904.56 2.303 1.149v3.756Zm4.406-7.148h2.729v10.539h-2.73V10.314Zm40.765-.28c-1.876 0-2.757 1.121-2.757 1.121V5.241h-2.73v15.612h2.303a.404.404 0 0 0 .399-.393v-.476s.88 1.15 2.757 1.15c3.099 0 5.515-2.355 5.515-5.55 0-3.196-2.416-5.55-5.487-5.55Zm-.454 8.549c-1.052 0-1.877-.533-2.303-1.15v-3.755c.426-.56 1.336-1.15 2.303-1.15 1.819 0 3.212 1.122 3.212 3.028s-1.393 3.027-3.212 3.027Zm-6.454-3.98v6.278h-2.729v-5.97c0-1.738-.568-2.438-2.103-2.438-.825 0-1.677.42-2.218 1.036v7.344h-2.729V10.314h2.16c.228 0 .399.197.399.393v.448c.796-.813 1.848-1.121 2.9-1.121 1.193 0 2.188.336 2.984 1.009.967.785 1.336 1.794 1.336 3.56Zm-16.402-4.569c-1.877 0-2.758 1.121-2.758 1.121V5.241h-2.729v15.612h2.303a.404.404 0 0 0 .398-.393v-.476s.88 1.15 2.757 1.15c3.099 0 5.515-2.355 5.515-5.55.029-3.196-2.388-5.55-5.486-5.55Zm-.455 8.549c-1.052 0-1.877-.533-2.303-1.15v-3.755c.426-.56 1.336-1.15 2.303-1.15 1.82 0 3.212 1.122 3.212 3.028s-1.393 3.027-3.212 3.027Zm-7.392-8.549c.825 0 1.251.14 1.251.14v2.495s-2.274-.757-3.695.84v7.372h-2.73V10.314h2.303c.228 0 .398.197.398.393v.448c.512-.588 1.62-1.121 2.473-1.121ZM26.014 19.9c-.142-.336-.284-.7-.427-1.01-.227-.504-.454-.98-.653-1.428l-.029-.029a290.782 290.782 0 0 0-6.282-12.668l-.086-.168c-.227-.42-.454-.87-.682-1.318-.284-.504-.569-1.037-1.023-1.541A4.616 4.616 0 0 0 13.222 0C11.8 0 10.52.617 9.581 1.682c-.426.504-.739 1.037-1.023 1.541-.227.449-.455.897-.682 1.318l-.085.168c-2.19 4.204-4.321 8.464-6.283 12.668l-.028.056c-.2.449-.427.925-.654 1.43-.142.308-.285.645-.427 1.009-.37 1.037-.483 2.018-.34 3.027a5.972 5.972 0 0 0 3.695 4.653A5.91 5.91 0 0 0 6.058 28a7.584 7.584 0 0 0 3.582-1.009c1.165-.645 2.274-1.57 3.524-2.915 1.251 1.345 2.388 2.27 3.525 2.915A7.585 7.585 0 0 0 20.271 28c.796 0 1.592-.14 2.303-.448a5.96 5.96 0 0 0 3.696-4.653c.227-.981.113-1.962-.256-3Zm-12.821 1.457c-1.535-1.906-2.53-3.7-2.871-5.213-.142-.644-.17-1.205-.086-1.71.057-.448.228-.84.455-1.177.54-.756 1.45-1.233 2.502-1.233 1.052 0 1.99.449 2.502 1.233.227.337.398.729.454 1.177.086.505.057 1.094-.085 1.71-.341 1.486-1.336 3.28-2.871 5.213Zm11.343 1.318c-.2 1.457-1.194 2.718-2.587 3.279a4.361 4.361 0 0 1-2.16.28 5.643 5.643 0 0 1-2.161-.729c-1.024-.56-2.047-1.429-3.241-2.718 1.876-2.27 3.013-4.345 3.44-6.194a6.928 6.928 0 0 0 .142-2.383 4.511 4.511 0 0 0-.768-1.906c-.881-1.261-2.36-1.99-4.008-1.99-1.649 0-3.127.757-4.008 1.99a4.512 4.512 0 0 0-.768 1.906 5.74 5.74 0 0 0 .142 2.383c.427 1.85 1.592 3.951 3.44 6.222-1.166 1.29-2.217 2.158-3.24 2.718-.74.421-1.45.645-2.161.73a4.609 4.609 0 0 1-2.16-.281c-1.394-.56-2.389-1.822-2.588-3.28a4.579 4.579 0 0 1 .256-2.186c.085-.28.227-.56.37-.896.199-.449.426-.925.653-1.402l.029-.056A304.601 304.601 0 0 1 9.412 5.578l.085-.169c.228-.42.455-.868.683-1.289a6.15 6.15 0 0 1 .796-1.233A2.99 2.99 0 0 1 13.25 1.85a2.99 2.99 0 0 1 2.274 1.037c.313.364.569.785.796 1.233.227.42.455.869.682 1.29l.085.168a369.556 369.556 0 0 1 6.226 12.612v.028c.228.449.427.953.654 1.402.142.336.284.616.37.896.227.73.312 1.43.199 2.159Z"/></svg>