<svg xmlns="http://www.w3.org/2000/svg" fill="none" viewBox="0 0 104 20"><path fill="#fff" d="M8.087 3.148c-1.21 0-1.574.532-1.574 1.719v1.961h3.245l-.315 3.196h-2.93v9.661H2.615v-9.66H0V6.851h2.615V4.94C2.615 1.695 3.923 0 7.53 0c.75 0 1.526.048 2.276.145v3.003M10.024 12.857c0-3.583 1.695-6.295 5.279-6.295 1.937 0 3.123.992 3.704 2.252V6.852h3.73V19.71h-3.754v-1.937c-.533 1.235-1.768 2.204-3.705 2.204-3.559 0-5.278-2.688-5.278-6.296m3.922.049c0 1.913.703 3.196 2.519 3.196 1.598 0 2.397-1.162 2.397-3.003v-1.307c0-1.84-.823-3.002-2.397-3.002-1.816 0-2.518 1.259-2.518 3.196v.92ZM30.823 6.562c1.502 0 2.954.315 3.73.871l-.873 2.76a5.961 5.961 0 0 0-2.59-.58c-2.107 0-3.027 1.21-3.027 3.293v.75c0 2.082.92 3.293 3.027 3.293.895 0 1.791-.218 2.59-.605l.872 2.76c-.775.533-2.203.872-3.729.872-4.576 0-6.634-2.446-6.634-6.392v-.606c0-3.947 2.058-6.416 6.634-6.416ZM35.06 13.753v-1.138c0-3.656 2.083-6.053 6.32-6.053 3.995 0 5.763 2.421 5.763 6.005v2.058h-8.184c.072 1.767.871 2.542 3.026 2.542 1.405 0 2.81-.266 4.14-.775l.703 2.664c-1.017.532-3.123.944-4.988.944-4.94-.024-6.78-2.47-6.78-6.247Zm3.899-1.695h4.697v-.315c0-1.404-.557-2.518-2.276-2.518-1.743 0-2.421 1.114-2.421 2.833ZM61.574 13.68c0 3.584-1.72 6.296-5.303 6.296-1.937 0-3.293-.969-3.825-2.204v1.937h-3.68V.387l3.898-.339v8.596c.556-1.138 1.815-2.058 3.631-2.058 3.56 0 5.303 2.688 5.303 6.295m-3.922-.097c0-1.816-.703-3.171-2.567-3.171-1.598 0-2.446 1.138-2.446 2.978v1.356c0 1.84.872 2.978 2.446 2.978 1.864 0 2.567-1.356 2.567-3.172v-.969ZM62.857 13.584v-.654c0-3.705 2.107-6.368 6.392-6.368 4.286 0 6.393 2.663 6.393 6.368v.654c0 3.704-2.107 6.368-6.393 6.368-4.285 0-6.392-2.64-6.392-6.369Zm8.91-.92c0-1.695-.702-3.051-2.518-3.051-1.816 0-2.518 1.356-2.518 3.05v1.211c0 1.695.702 3.05 2.518 3.05 1.816 0 2.519-1.355 2.519-3.05v-1.21ZM76.973 13.584v-.654c0-3.705 2.107-6.368 6.393-6.368 4.285 0 6.392 2.663 6.392 6.368v.654c0 3.704-2.107 6.368-6.392 6.368-4.286 0-6.393-2.64-6.393-6.369Zm8.91-.92c0-1.695-.701-3.051-2.517-3.051-1.816 0-2.519 1.356-2.519 3.05v1.211c0 1.695.703 3.05 2.519 3.05 1.816 0 2.518-1.355 2.518-3.05v-1.21ZM95.109 12.978l3.85-6.15h4.116l-4.02 6.368 4.19 6.513h-4.14l-3.996-6.295v6.295h-3.874V.387l3.874-.363"/></svg>