<svg xmlns="http://www.w3.org/2000/svg" fill="none" viewBox="0 0 91 22"><path fill="#fff" d="M27.517 8.852a1.867 1.867 0 1 0 0-3.734 1.867 1.867 0 0 0 0 3.734ZM89.11 15.23c-.284-.2-.504-.233-.685.155-3.135 6.79-8.417 3.401-7.892 3.7 1.171-.537 4.253-3.008 3.787-6.42-.283-2.086-2.073-3.011-3.973-2.68-3.316.578-4.536 4.155-3.915 7.323.109.543.303.992.497 1.431-3.748 3.048-5.236-2.728-5.405-3.418-.007-.037 2.894-2.455 3.7-8.216.846-6.038-1.08-7.137-3.05-7.103-3.645.064-4.63 7.679-3.306 14.025-.11.03-.627.315-1.455.347-.597-1.876-3.145-3.521-3.812-2.887-1.668 1.585.405 4.685 1.864 4.928-.876 5.398-6.358 4.061-5.337-2.702 1.785-3.315 3.142-8.244 2.9-11.22-.086-1.053-.865-2.465-2.626-2.395-3.388.134-3.757 7.751-3.36 13.157-.02-.133-.208.657-1.596 1.05-.328-1.823-3.264-3.652-3.955-2.773-1.293 1.647.949 4.582 2.01 4.787-.876 5.399-6.358 4.062-5.337-2.702 1.785-3.315 3.142-8.244 2.9-11.22-.086-1.053-.864-2.464-2.626-2.395-3.388.135-3.757 7.752-3.36 13.158-.02-.135-.212.68-1.657 1.067-.049-2.365-2.994-3.45-3.702-2.695-1.261 1.345.289 4.105 1.723 4.787-.877 5.399-6.358 4.062-5.338-2.702 1.785-3.315 3.143-8.244 2.9-11.22-.085-1.053-.864-2.464-2.626-2.395-3.388.135-3.66 8.135-3.263 13.54-1.116 4.782-4.858 10.753-4.372-1.208.048-.84.1-1.158-.318-1.472-.313-.244-1.026-.127-1.416-.117-.473.02-.592.296-.697.715-.243 1.081-.287 2.13-.322 3.56-.023.67-.077.982-.334 1.894-.258.912-1.726 2.58-2.53 2.3-1.115-.383-.75-3.53-.54-5.694.174-1.71-.384-2.477-1.812-2.756-.837-.175-1.345-.148-2.216-.422-.824-.26-1.01-1.818-2.767-1.299-.96.284-.343 2.32-.574 3.83-1.136 7.423-3.498 7.627-4.594 4.02C15.56 4.803 12.052.038 9.998.038c-2.139 0-4.584 1.473-3.548 10.9-.504-.147-.658-.226-1.21-.226-3.116 0-5.24 2.52-5.24 5.628s2.124 5.628 5.24 5.628c1.84 0 3.132-.837 4.11-2.132.639.915 1.416 2.146 2.838 2.09 4.236-.165 5.469-8.856 5.614-9.34.453.07.882.201 1.3.271.697.105.747.38.732 1.082-.185 5.91.906 7.98 3.38 7.98 1.379 0 2.607-1.354 3.454-2.323.632 1.305 1.64 2.283 2.99 2.323 3.276.081 4.53-5.138 4.415-4.451-.09.539 1.063 4.422 4.434 4.436 4.176.017 4.952-4.575 5.045-5.344.016-.137.011-.153 0 0l-.004.046c1.326-.246 2.01-.957 2.01-.957s1.065 6.326 5.008 6.255c4.095-.074 4.867-4.226 4.969-5.035.021-.17.013-.192 0 0l-.002.024c1.575-.573 1.99-1.148 1.99-1.148s.845 6.2 5.007 6.255c3.709.048 5.083-3.75 5.091-5.34.626.007 1.783-.37 1.756-.392 0 0 1.358 5.421 5.152 5.7 1.781.13 3.117-1.003 3.88-1.52 1.79 1.45 7.75 3.302 11.513-3.08.531-.915-.61-1.997-.811-2.138ZM5.09 19.863c-1.818 0-2.984-1.682-2.984-3.495 0-1.813 1.07-3.494 2.888-3.494.819 0 1.274.09 1.911.644.116.456.443 1.506.603 1.983.213.639.467 1.182.723 1.773-.366 1.517-1.565 2.589-3.141 2.589Zm4.431-6.291c-.075-.12-.06-.047-.144-.16-.333-.907-.976-2.932-1.05-5.23-.084-2.6.35-5.649 1.627-5.649.866 0 1.786 6.178-.433 11.039Zm25.605-2.71C34.92 9.32 34.91 2.44 36.562 2.63c.911.37-.579 6.861-1.436 8.233Zm12.06 0C46.98 9.32 46.97 2.44 48.62 2.63c.912.37-.578 6.861-1.436 8.233Zm11.963.096c-.205-1.543-.215-8.423 1.436-8.233.912.369-.578 6.86-1.436 8.233Zm13.208-8.732c1.51-.156 1.448 6.438-1.583 10.6-.39-1.504-.99-10.083 1.583-10.6Zm6.347 14.189c-.485-2.45.768-4.059 2.06-4.235.452-.073 1.106.22 1.236.767.215 1.03-.03 2.56-2.922 4.499a3.982 3.982 0 0 1-.374-1.031Z"/></svg>