<svg xmlns="http://www.w3.org/2000/svg" fill="none" viewBox="0 0 88 22"><path fill="#fff" d="m34.729 12.886 4.855 5.971H35.75l-4.321-5.484v5.484h-3.143V3.143h3.143v9.24l3.991-4.526h4.007l-4.698 5.029ZM22.157 7.543a4.258 4.258 0 0 0-3.473 1.886V7.857h-2.97v11h3.143V13.72a2.734 2.734 0 0 1 2.609-3.033c1.823 0 2.105 1.791 2.105 3.033v5.138h3.143v-5.83c0-3.457-1.147-5.484-4.494-5.484h-.063Zm28.129 6.066c.012.23.012.46 0 .691h-8.25v.11a2.813 2.813 0 0 0 2.875 2.247 3.945 3.945 0 0 0 2.892-1.084l2.09 1.571a6.773 6.773 0 0 1-5.107 2.027 5.484 5.484 0 0 1-5.815-5.892 5.626 5.626 0 0 1 5.909-5.736c2.954 0 5.406 2.09 5.406 6.066Zm-2.923-1.352a2.294 2.294 0 0 0-2.499-2.2 2.577 2.577 0 0 0-2.828 2.2h5.327ZM3.143 3.143H0v15.714h9.429v-3.143H3.143V3.143Zm56.571 0h3.143v15.714h-2.97v-1.1a3.834 3.834 0 0 1-3.143 1.414 5.358 5.358 0 0 1-5.201-5.814 5.28 5.28 0 0 1 5.186-5.814 4.117 4.117 0 0 1 2.985 1.1v-5.5Zm.236 10.214a2.561 2.561 0 0 0-2.546-2.907 2.766 2.766 0 0 0-2.561 2.907 2.766 2.766 0 0 0 2.561 2.907 2.561 2.561 0 0 0 2.546-2.907ZM12.571 2.83a1.996 1.996 0 0 0-1.964 1.885 1.964 1.964 0 0 0 3.929 0A1.996 1.996 0 0 0 12.57 2.83ZM11 18.857h3.143v-11H11v11ZM88 1.571V20.43c0 .867-.704 1.571-1.571 1.571H67.57A1.571 1.571 0 0 1 66 20.429V1.57C66 .704 66.704 0 67.571 0H86.43C87.296 0 88 .704 88 1.571ZM72.286 7.857h-3.143v11h3.143v-11Zm.393-3.143a1.964 1.964 0 1 0-3.93 0 1.964 1.964 0 0 0 3.93 0Zm12.178 8.313c0-3.457-1.147-5.484-4.494-5.484-1.42 0-2.745.707-3.536 1.886V7.857h-2.97v11H77V13.72a2.735 2.735 0 0 1 2.609-3.033c1.822 0 2.105 1.791 2.105 3.033v5.138h3.143v-5.83Z"/></svg>