<svg xmlns="http://www.w3.org/2000/svg" fill="none" viewBox="0 0 92 20"><path fill="#fff" d="M38.26 4v12h-2.043V6.583h-.027L32.538 16h-1.362l-3.734-9.417h-.027V16h-1.88V4h2.943l3.379 8.889h.054L35.481 4h2.78Zm1.69.917c0-.334.11-.611.355-.834.245-.222.517-.333.845-.333.354 0 .654.111.872.333.218.223.354.5.354.834 0 .333-.11.61-.354.833a1.224 1.224 0 0 1-.872.333c-.355 0-.627-.11-.845-.333-.218-.25-.355-.528-.355-.833Zm2.208 2.472V16h-1.99V7.389h1.99Zm6.022 7.139c.3 0 .627-.056.981-.222.355-.14.682-.334.981-.556v1.889a3.439 3.439 0 0 1-1.09.417 6.586 6.586 0 0 1-1.335.138c-1.254 0-2.262-.388-3.025-1.194-.79-.806-1.172-1.833-1.172-3.056 0-1.388.41-2.527 1.2-3.416.79-.89 1.907-1.334 3.379-1.334.381 0 .763.056 1.117.14.381.083.681.222.9.333V9.61a3.94 3.94 0 0 0-.927-.528c-.328-.11-.654-.194-.981-.194-.79 0-1.417.25-1.908.778-.49.527-.709 1.222-.709 2.11 0 .862.246 1.556.709 2.029.463.472 1.09.722 1.88.722Zm7.603-7.278c.164 0 .3 0 .436.028.137.028.246.055.327.083v2.056a1.213 1.213 0 0 0-.463-.223 2.747 2.747 0 0 0-.736-.11c-.49 0-.899.222-1.226.638-.327.417-.518 1.056-.518 1.945V16h-1.99V7.389h1.99V8.75h.027c.191-.472.464-.833.818-1.111.382-.25.818-.389 1.335-.389Zm.872 4.583c0-1.416.41-2.555 1.172-3.389.79-.833 1.88-1.25 3.27-1.25 1.308 0 2.344.39 3.08 1.195.735.805 1.117 1.889 1.117 3.25 0 1.389-.409 2.5-1.172 3.333-.79.834-1.853 1.25-3.215 1.25-1.308 0-2.344-.389-3.107-1.166-.763-.806-1.145-1.89-1.145-3.223Zm2.071-.083c0 .889.191 1.583.6 2.056.409.472.981.722 1.717.722.708 0 1.28-.222 1.662-.722.382-.473.572-1.167.572-2.112 0-.916-.19-1.61-.572-2.11-.381-.473-.954-.723-1.635-.723-.736 0-1.28.25-1.69.75-.463.528-.654 1.222-.654 2.139Zm9.538-2.083c0 .277.082.527.273.694.19.167.572.361 1.199.611.79.334 1.362.695 1.662 1.084.327.416.49.888.49 1.472 0 .805-.3 1.444-.926 1.944-.6.5-1.444.722-2.48.722-.354 0-.736-.055-1.171-.138a4.651 4.651 0 0 1-1.09-.334v-2c.354.25.763.472 1.171.611.409.14.79.223 1.145.223.436 0 .79-.056.98-.195.219-.139.328-.333.328-.639 0-.277-.11-.5-.327-.722-.218-.194-.654-.417-1.254-.667-.736-.305-1.253-.666-1.553-1.055-.3-.39-.463-.89-.463-1.5 0-.778.3-1.417.899-1.917.6-.5 1.39-.75 2.344-.75.3 0 .626.028.98.111.355.084.682.167.927.25v1.972a5.826 5.826 0 0 0-.926-.472 2.835 2.835 0 0 0-1.036-.194c-.381 0-.681.083-.872.222-.19.194-.3.389-.3.667Zm4.47 2.166c0-1.416.408-2.555 1.171-3.389.79-.833 1.88-1.25 3.27-1.25 1.309 0 2.344.39 3.08 1.195.736.805 1.117 1.889 1.117 3.25 0 1.389-.409 2.5-1.172 3.333-.79.834-1.853 1.25-3.215 1.25-1.308 0-2.344-.389-3.107-1.166-.736-.806-1.144-1.89-1.144-3.223Zm2.07-.083c0 .889.191 1.583.6 2.056.409.472.981.722 1.717.722.708 0 1.28-.222 1.662-.722.382-.473.573-1.167.573-2.112 0-.916-.191-1.61-.573-2.11-.381-.473-.954-.723-1.635-.723-.736 0-1.28.25-1.69.75-.435.528-.653 1.222-.653 2.139Zm13.19-2.694h-2.97V16h-2.017V9.056H81.59V7.389h1.417V6.194c0-.888.3-1.638.872-2.222.572-.583 1.308-.86 2.207-.86.246 0 .464.027.654.027.191 0 .355.055.491.111V5a3.306 3.306 0 0 0-.354-.139 1.78 1.78 0 0 0-.572-.083c-.41 0-.736.139-.954.389-.218.25-.327.666-.327 1.166v1.028h2.97V5.417l1.99-.611V7.36H92v1.667h-2.017v4.028c0 .527.11.888.273 1.11.19.223.49.334.9.334.108 0 .244-.028.408-.083.164-.056.3-.111.409-.195v1.667c-.136.083-.327.139-.627.194-.3.056-.572.084-.872.084-.845 0-1.472-.223-1.88-.667-.41-.444-.627-1.139-.627-2.056l.027-4.388ZM9.32 0H0v9.5h9.32V0ZM19.62 0H10.3v9.5h9.32V0ZM9.32 10.5H0V20h9.32v-9.5ZM19.62 10.5H10.3V20h9.32v-9.5Z"/></svg>