<svg xmlns="http://www.w3.org/2000/svg" fill="none" viewBox="0 0 102 20"><path fill="#fff" d="M89.773 14.095c-.014.003-.027.002-.04.004l.069-.01c-.01.001-.02.006-.03.008v-.002ZM43.416 17.35a1.58 1.58 0 0 1-.486 1.16 1.592 1.592 0 0 1-1.165.484h-3.271a4.76 4.76 0 0 1-3.486-1.442c-.965-.962-1.436-2.12-1.436-3.475v-6.59c0-.464.16-.854.482-1.17a1.613 1.613 0 0 1 1.177-.474 1.57 1.57 0 0 1 1.157.483c.321.322.483.709.483 1.16v2.387h4.645c.421 0 .783.15 1.085.448.301.299.452.657.452 1.076a1.465 1.465 0 0 1-.45 1.076 1.482 1.482 0 0 1-1.082.448h-4.65v1.155c0 .453.158.838.476 1.154.318.317.703.475 1.156.475h3.255c.453 0 .843.163 1.165.485a1.579 1.579 0 0 1 .487 1.16h.006Zm38.214 0a1.579 1.579 0 0 1-.486 1.16 1.591 1.591 0 0 1-1.164.484h-1.482a4.757 4.757 0 0 1-3.487-1.442 4.73 4.73 0 0 1-1.445-3.475v-6.59c0-.464.16-.854.481-1.17a1.612 1.612 0 0 1 1.178-.474 1.57 1.57 0 0 1 1.157.483 1.58 1.58 0 0 1 .482 1.16v2.387h2.865a1.484 1.484 0 0 1 1.084.448c.302.299.452.657.452 1.076a1.465 1.465 0 0 1-.45 1.076 1.482 1.482 0 0 1-1.082.448h-2.869v1.155c0 .453.158.838.476 1.154.318.317.703.475 1.156.475h1.484c.453 0 .843.163 1.165.485a1.58 1.58 0 0 1 .485 1.16Zm-8.616 0c0 .45-.163.838-.486 1.16a1.59 1.59 0 0 1-1.165.484h-1.482c-1.36 0-2.52-.48-3.485-1.442a4.73 4.73 0 0 1-1.447-3.475v-6.59a1.58 1.58 0 0 1 .481-1.17 1.617 1.617 0 0 1 1.178-.474 1.57 1.57 0 0 1 1.156.483c.322.322.484.709.484 1.16v2.387h2.864c.422 0 .783.15 1.085.448a1.454 1.454 0 0 1 .45 1.076 1.466 1.466 0 0 1-.45 1.076c-.299.287-.67.448-1.079.448h-2.88v1.155c0 .453.158.838.476 1.154.318.317.703.475 1.157.475h1.484c.452 0 .842.163 1.165.485a1.58 1.58 0 0 1 .485 1.16h.009Zm-13.688-2.956c0 1.268-.45 2.35-1.354 3.25a4.443 4.443 0 0 1-3.26 1.35 4.441 4.441 0 0 1-3.07-1.178 4.413 4.413 0 0 1-3.051 1.177 4.45 4.45 0 0 1-3.26-1.35 4.422 4.422 0 0 1-1.354-3.25V11.18a1.465 1.465 0 0 1 .454-1.095 1.536 1.536 0 0 1 1.089-.445 1.493 1.493 0 0 1 1.088.445c.303.287.454.67.454 1.096v3.213a1.466 1.466 0 0 0 .445 1.079 1.495 1.495 0 0 0 1.082.443c.412 0 .766-.147 1.053-.444a1.465 1.465 0 0 0 .444-1.078v-3.197c0-.421.153-.787.455-1.095a1.503 1.503 0 0 1 1.11-.463 1.493 1.493 0 0 1 1.092.453c.303.303.454.665.454 1.088v3.214a1.465 1.465 0 0 0 1.499 1.52c.424 0 .785-.146 1.082-.442a1.467 1.467 0 0 0 .445-1.078V11.18c0-.423.151-.785.453-1.088a1.484 1.484 0 0 1 1.089-.453c.424 0 .787.152 1.09.453.302.302.452.664.452 1.087v3.212l.018.002Zm4.456-7.276a1.58 1.58 0 0 1-.485 1.161 1.59 1.59 0 0 1-1.165.484 1.599 1.599 0 0 1-1.165-.484 1.58 1.58 0 0 1-.484-1.16c0-.452.163-.839.484-1.16a1.592 1.592 0 0 1 1.165-.484 1.59 1.59 0 0 1 1.165.483c.323.322.485.708.485 1.16Zm0 10.221a1.59 1.59 0 0 1-.485 1.163 1.59 1.59 0 0 1-1.165.483c-.452 0-.84-.16-1.165-.483a1.583 1.583 0 0 1-.484-1.163v-6.06c0-.451.163-.84.484-1.16a1.591 1.591 0 0 1 1.165-.485 1.59 1.59 0 0 1 1.165.484c.323.322.485.709.485 1.161v6.06Zm37.465-5.951c0 .418-.15.777-.451 1.076a1.483 1.483 0 0 1-1.081.448h-2.252c-.421 0-.778.147-1.072.44a1.45 1.45 0 0 0-.442 1.07v3.034c0 .42-.15.78-.45 1.08a1.474 1.474 0 0 1-1.08.449c-.418 0-.78-.15-1.08-.45a1.468 1.468 0 0 1-.45-1.077v-3.035a4.384 4.384 0 0 1 1.341-3.222 4.413 4.413 0 0 1 3.234-1.338h2.25a1.473 1.473 0 0 1 1.082.45 1.46 1.46 0 0 1 .45 1.075h.001Zm-14.453 7.596c-1.298 0-2.521-.494-3.486-1.48-.965-.986-1.336-2.061-1.336-3.452 0 0-.093-4.421 4.908-4.421 3.912 0 5.102 2.747 5.102 4.105 0 1.078-.493 1.46-1.616 1.46h-5s-.192 1.145 2.105 1.145h2.853a1.321 1.321 0 1 1 0 2.642h-3.523l-.007.001ZM85.4 13.111h3.283c0-1.08-1.633-1.08-1.633-1.08s-1.65 0-1.65 1.08ZM28.997 9.226c-1.022.174-2.502-.008-3.287-.335 1.63-.134 2.735-.875 3.16-1.881-.588.362-2.413.766-3.418.38l-.161-.667c-.766-2.82-3.396-5.093-6.148-4.818l.675-.25c.301-.109 2.08-.399 1.8-1.025-.237-.553-2.41.415-2.819.543C19.34.98 20.233.62 20.33 0c-.846.125-1.635.5-2.268 1.074.228-.244.4-.54.436-.861C16.289 1.625 15 4.469 13.957 7.23c-.82-.795-1.547-1.422-2.198-1.771-1.827-.98-4.02-2.003-7.441-3.278-.096 1.136.56 2.647 2.489 3.651-.416-.057-1.176.069-1.783.214.247 1.302 1.056 2.374 3.247 2.89-1.001.068-1.519.288-1.987.786.456.906 1.57 1.972 3.57 1.752-2.226.96-.909 2.74.905 2.474-3.09 3.196-7.962 2.968-10.759.288 7.303 9.963 23.18 5.891 25.545-3.705 1.775.014 2.814-.615 3.46-1.308l-.008.003Z"/></svg>