<svg xmlns="http://www.w3.org/2000/svg" fill="none" viewBox="0 0 81 21"><path fill="#fff" d="m25.913 16.536 1.012-2.408c1.093.836 2.545 1.27 3.981 1.27 1.06 0 1.73-.417 1.73-1.053-.017-1.772-6.348-.384-6.397-4.831-.016-2.258 1.942-3.997 4.716-3.997 1.648 0 3.296.418 4.47 1.372l-.945 2.457c-1.077-.702-2.415-1.204-3.688-1.204-.865 0-1.436.418-1.436.954.016 1.738 6.396.785 6.462 5.032 0 2.308-1.91 3.93-4.65 3.93-2.008 0-3.852-.486-5.255-1.522Zm38.819-3.277c-.506.903-1.453 1.521-2.546 1.521-1.615 0-2.92-1.337-2.92-2.993 0-1.655 1.305-2.992 2.92-2.992 1.093 0 2.04.618 2.546 1.521l2.79-1.588c-1.044-1.906-3.051-3.21-5.336-3.21-3.377 0-6.119 2.808-6.119 6.27 0 3.46 2.742 6.27 6.12 6.27 2.3 0 4.29-1.288 5.335-3.21l-2.79-1.59ZM37.22.318h3.492v17.505H37.22V.318Zm31.672 0v17.505h3.492v-5.25l4.144 5.25H81l-5.27-6.236 4.878-5.819h-4.275L72.385 10.6V.318h-3.492ZM51.09 13.292c-.505.853-1.55 1.488-2.725 1.488-1.615 0-2.92-1.337-2.92-2.993 0-1.655 1.305-2.992 2.92-2.992 1.175 0 2.22.668 2.725 1.538v2.96Zm0-7.524V7.19c-.57-.986-1.99-1.672-3.475-1.672-3.068 0-5.483 2.776-5.483 6.254 0 3.477 2.415 6.286 5.483 6.286 1.485 0 2.904-.685 3.475-1.672v1.421h3.492V5.768H51.09ZM4.324 13.275c0 1.221-.963 2.207-2.154 2.207-1.191 0-2.154-.986-2.154-2.207 0-1.22.963-2.207 2.154-2.207h2.154v2.207Zm1.077 0c0-1.22.962-2.207 2.154-2.207 1.19 0 2.153.987 2.153 2.207v5.518c0 1.22-.962 2.207-2.153 2.207-1.192 0-2.154-.986-2.154-2.207v-5.518ZM7.555 4.414c-1.191 0-2.154-.986-2.154-2.207C5.401.987 6.364 0 7.555 0c1.191 0 2.154.986 2.154 2.207v2.207H7.555Zm0 1.12c1.191 0 2.154.987 2.154 2.207 0 1.22-.963 2.207-2.154 2.207H2.154C.963 9.948 0 8.962 0 7.741c0-1.22.963-2.207 2.154-2.207h5.4ZM16.185 7.741c0-1.22.963-2.207 2.154-2.207 1.191 0 2.154.987 2.154 2.207 0 1.22-.963 2.207-2.154 2.207h-2.154V7.741Zm-1.077 0c0 1.22-.963 2.207-2.154 2.207-1.191 0-2.154-.986-2.154-2.207V2.207C10.8.987 11.763 0 12.954 0c1.191 0 2.154.986 2.154 2.207v5.534ZM12.954 16.586c1.191 0 2.154.987 2.154 2.207 0 1.22-.963 2.207-2.154 2.207-1.191 0-2.154-.986-2.154-2.207v-2.207h2.154Zm0-1.103c-1.191 0-2.154-.987-2.154-2.208 0-1.22.963-2.207 2.154-2.207h5.401c1.191 0 2.154.987 2.154 2.207 0 1.221-.963 2.207-2.154 2.207h-5.4Z"/></svg>