<svg xmlns="http://www.w3.org/2000/svg" fill="none" viewBox="0 0 27 22"><path fill="currentColor" fill-rule="evenodd" d="M9.889 2a3.444 3.444 0 1 0 0 6.889 3.444 3.444 0 0 0 0-6.889ZM4.444 5.444a5.444 5.444 0 1 1 10.89 0 5.444 5.444 0 0 1-10.89 0ZM16.698.896a1 1 0 0 1 1.217-.72 5.445 5.445 0 0 1 0 10.548 1 1 0 0 1-.496-1.937 3.445 3.445 0 0 0 0-6.674 1 1 0 0 1-.721-1.217ZM1.595 14.928a5.444 5.444 0 0 1 3.85-1.595h8.888a5.444 5.444 0 0 1 5.445 5.445V21a1 1 0 1 1-2 0v-2.222a3.444 3.444 0 0 0-3.445-3.445H5.444A3.444 3.444 0 0 0 2 18.778V21a1 1 0 1 1-2 0v-2.222c0-1.444.574-2.829 1.595-3.85Zm19.548-.7a1 1 0 0 1 1.218-.719 5.445 5.445 0 0 1 4.083 5.268V21a1 1 0 1 1-2 0v-2.222a3.444 3.444 0 0 0-2.583-3.332 1 1 0 0 1-.718-1.218Z" clip-rule="evenodd"/></svg>