<svg xmlns="http://www.w3.org/2000/svg" fill="none" viewBox="0 0 42 60"><path fill="#264DE4" d="M20.974 60 3.822 55.18 0 11.792h42l-3.826 43.383L20.974 60Z"/><path fill="#2965F1" d="m34.898 52.412 3.27-37.073H21v40.973l13.898-3.9Z"/><path fill="#EBEBEB" d="m8.762 31.431.471 5.322h11.766V31.43H8.762ZM7.815 20.66l.478 5.323H21V20.66H7.815ZM21 45.252l-.024.006-5.856-1.6-.374-4.244H9.468l.736 8.355 10.771 3.026.024-.006v-5.537Z"/><path fill="#fff" d="M9.885 0h6.368v2.695h-3.705v2.696h3.705v2.695H9.885V0ZM17.526 0h6.369v2.344h-3.706v.469h3.706v5.39h-6.369v-2.46h3.706v-.47h-3.706V0ZM25.168 0h6.368v2.344h-3.705v.469h3.705v5.39h-6.368v-2.46h3.705v-.47h-3.705V0ZM33.203 31.432l.95-10.771H20.982v5.322h7.408l-.478 5.449h-6.93v5.321h6.474l-.61 6.902-5.865 1.602v5.536l10.78-3.023 1.314-14.91.128-1.428Z"/></svg>