<svg xmlns="http://www.w3.org/2000/svg" fill="none" viewBox="0 0 54 61"><path fill="#00599C" d="M53.313 45.563c.424-.734.687-1.56.687-2.303V17.49c0-.742-.263-1.569-.687-2.302L27 30.375l26.313 15.188Z"/><path fill="#004482" d="M29.338 60.193 51.663 47.31c.643-.372 1.227-1.013 1.651-1.746L27 30.374.687 45.563c.424.733 1.009 1.375 1.652 1.746l22.323 12.884c1.286.743 3.39.743 4.677 0Z"/><path fill="#659AD2" d="M53.313 15.188c-.424-.734-1.008-1.375-1.651-1.747L29.338.557c-1.286-.743-3.39-.743-4.676 0L2.338 13.44C1.052 14.184 0 16.006 0 17.491V43.26c0 .742.263 1.569.687 2.303L27 30.375l26.313-15.187Z"/><path fill="#fff" d="M27 48.37c-9.925 0-18-8.072-18-17.995 0-9.922 8.075-17.995 18-17.995a18.066 18.066 0 0 1 15.588 8.992l-7.79 4.506a9.039 9.039 0 0 0-7.798-4.5c-4.963 0-9 4.036-9 8.997s4.037 8.998 9 8.998a9.039 9.039 0 0 0 7.798-4.502l7.79 4.506A18.066 18.066 0 0 1 27 48.37Z"/><path fill="#fff" d="M45 29.375h-2v-1.999h-2v2h-2v1.999h2v2h2v-2h2v-2ZM52.5 29.375h-2v-1.999h-2v2h-2v1.999h2v2h2v-2h2v-2Z"/></svg>