<svg xmlns="http://www.w3.org/2000/svg" fill="none" viewBox="0 0 56 56"><path fill="#61DAFB" d="M56 28.006c0-4.165-4.646-8.113-11.768-10.561 1.643-8.152.913-14.638-2.306-16.714-.742-.487-1.61-.718-2.557-.718V2.87c.525 0 .947.115 1.301.333 1.553 1 2.226 4.807 1.701 9.703a43.889 43.889 0 0 1-.582 3.769 49.822 49.822 0 0 0-7.248-1.397c-1.541-2.372-3.14-4.525-4.749-6.41 3.721-3.883 7.214-6.01 9.588-6.01V0c-3.139 0-7.248 2.512-11.403 6.87C23.822 2.538 19.713.051 16.574.051V2.91c2.363 0 5.867 2.114 9.588 5.973a59.567 59.567 0 0 0-4.714 6.396c-2.58.307-5.022.781-7.26 1.41a43.027 43.027 0 0 1-.593-3.718c-.537-4.896.125-8.703 1.666-9.715.343-.231.788-.334 1.313-.334V.064c-.959 0-1.826.23-2.58.718-3.207 2.076-3.926 8.55-2.271 16.675C4.623 19.92 0 23.854 0 28.008c0 4.165 4.646 8.113 11.768 10.561-1.643 8.152-.913 14.638 2.306 16.714.742.487 1.61.718 2.568.718 3.14 0 7.249-2.512 11.404-6.87 4.155 4.332 8.264 6.819 11.403 6.819.959 0 1.826-.231 2.58-.718 3.207-2.077 3.926-8.55 2.271-16.676C51.377 36.107 56 32.16 56 28.006Zm-14.862-8.549a62.686 62.686 0 0 1-1.54 5.063 63.307 63.307 0 0 0-1.496-3.076 71.361 71.361 0 0 0-1.644-3c1.621.27 3.185.603 4.68 1.013Zm-5.228 13.65a69.978 69.978 0 0 1-2.75 4.897c-1.701.167-3.425.257-5.16.257-1.724 0-3.447-.09-5.137-.244a70.037 70.037 0 0 1-5.136-9.972 70.154 70.154 0 0 1 2.363-5.114 70 70 0 0 1 2.75-4.897c1.701-.166 3.425-.256 5.16-.256 1.724 0 3.447.09 5.137.244a70.018 70.018 0 0 1 5.136 9.972 75.337 75.337 0 0 1-2.363 5.114Zm3.687-1.665a59.615 59.615 0 0 1 1.575 5.1 46.25 46.25 0 0 1-4.702 1.026c.559-.987 1.118-2 1.643-3.037a76.132 76.132 0 0 0 1.484-3.09ZM28.023 45.117a51.584 51.584 0 0 1-3.173-4.102c1.027.052 2.077.09 3.139.09 1.073 0 2.134-.026 3.173-.09a48.909 48.909 0 0 1-3.14 4.102Zm-8.493-7.55a46.489 46.489 0 0 1-4.68-1.012 62.698 62.698 0 0 1 1.541-5.063c.468 1.025.96 2.05 1.496 3.076a87.334 87.334 0 0 0 1.643 3Zm8.436-26.673a51.584 51.584 0 0 1 3.173 4.102 62.906 62.906 0 0 0-3.139-.09c-1.073 0-2.134.025-3.173.09a48.93 48.93 0 0 1 3.139-4.102Zm-8.447 7.55c-.56.986-1.119 1.999-1.644 3.037a75.613 75.613 0 0 0-1.484 3.076 59.653 59.653 0 0 1-1.575-5.1 50.06 50.06 0 0 1 4.703-1.013ZM9.189 34.492c-4.041-1.935-6.655-4.473-6.655-6.486 0-2.012 2.614-4.563 6.655-6.485.981-.474 2.054-.898 3.162-1.295a66.54 66.54 0 0 0 2.568 7.806 65.671 65.671 0 0 0-2.534 7.768 32.316 32.316 0 0 1-3.196-1.308Zm6.14 18.316c-1.552-1-2.225-4.806-1.7-9.703.126-1.204.331-2.473.582-3.768 2.237.615 4.68 1.09 7.248 1.397 1.541 2.371 3.14 4.525 4.749 6.41-3.721 3.883-7.214 6.01-9.588 6.01-.514-.012-.948-.128-1.29-.346Zm27.076-9.767c.537 4.897-.125 8.704-1.666 9.716-.343.23-.788.333-1.313.333-2.363 0-5.867-2.115-9.588-5.973a59.578 59.578 0 0 0 4.714-6.396c2.58-.307 5.022-.781 7.26-1.41.262 1.295.468 2.538.593 3.73Zm4.395-8.549c-.982.474-2.055.897-3.162 1.295a66.54 66.54 0 0 0-2.568-7.806 65.671 65.671 0 0 0 2.534-7.768c1.13.398 2.203.834 3.207 1.308 4.041 1.935 6.655 4.473 6.655 6.485-.011 2.013-2.625 4.563-6.666 6.486Z"/><path fill="#61DAFB" d="M27.989 33.864c2.88 0 5.216-2.622 5.216-5.858 0-3.235-2.335-5.857-5.216-5.857-2.881 0-5.217 2.622-5.217 5.857 0 3.235 2.336 5.858 5.217 5.858Z"/></svg>