<svg xmlns="http://www.w3.org/2000/svg" fill="none" viewBox="0 0 42 60"><path fill="#fff" d="M3.912 0h2.663v2.672h2.454V0h2.663v8.086H9.029V5.39H6.598v2.695H3.912V0Zm11.299 2.695h-2.35V0h7.374v2.695h-2.361v5.39H15.21v-5.39ZM21.404 0h2.79l1.714 2.848L27.62 0h2.79v8.086h-2.663V4.078l-1.863 2.906-1.864-2.906v4.008h-2.617V0Zm10.327 0h2.663v5.414h3.773v2.672h-6.436"/><path fill="#E44D26" d="M3.82 55.195 0 11.79h42l-3.82 43.383L20.965 60"/><path fill="#F16529" d="M21 56.309V15.352h17.168l-3.276 37.03"/><path fill="#EBEBEB" d="M7.803 20.66H21v5.32h-7.432l.486 5.45H21v5.308H9.238L7.803 20.66ZM9.47 39.41h5.279l.37 4.254L21 45.258v5.554l-10.79-3.046"/><path fill="#fff" d="M34.15 20.66H20.978v5.32h12.688l.486-5.32Zm-.96 10.77H20.977v5.32h6.482l-.613 6.914-5.87 1.594v5.531l10.767-3.023"/></svg>