<svg xmlns="http://www.w3.org/2000/svg" fill="none" viewBox="0 0 56 39"><path fill="url(#a)" d="M7.792 5.259s2.715-2.974 4.595-4.206c.598-.392 5.053-2.712 7.914 5.272 1.565 4.372 1.591 7.629-1.966 9.017-2.13.832-1.37 2.39-1.37 2.39"/><path fill="#363254" d="M12.127.69c-1.907 1.25-4.57 4.157-4.682 4.28a.426.426 0 0 0 .045.62c.191.159.482.14.648-.043.027-.03 2.699-2.946 4.51-4.132.053-.036 1.374-.882 2.982-.373 1.691.535 3.156 2.411 4.236 5.425 1.718 4.799 1.208 7.332-1.705 8.469-.84.329-1.394.804-1.644 1.416-.33.806.018 1.534.033 1.565a.466.466 0 0 0 .605.211.432.432 0 0 0 .23-.578c-.002-.004-.199-.436-.007-.889.157-.373.538-.681 1.131-.912 4.395-1.717 3.498-6.014 2.226-9.566-1.193-3.33-2.813-5.34-4.815-5.974-2.002-.634-3.617.366-3.793.482Z"/><path fill="url(#b)" d="M44.293 6.98h5.7c.48 0 .866.314.866.7 0 .387-.387.7-.865.7h-4.475l-1.226-1.4Z"/><path fill="#363254" d="M49.993 7.42c.24 0 .406.137.406.26 0 .124-.166.262-.406.262h-4.259l-.457-.523h4.716Zm-6.683-.878 1.994 2.278h4.69c.73 0 1.325-.511 1.325-1.14 0-.628-.594-1.138-1.326-1.138H43.31Z"/><path fill="#8B9DD7" d="M51.758 5.353c.783-.37 1.7-.28 2.048.202.346.482-.008 1.17-.791 1.541-.782.37-2.833.816-3.18.333-.35-.48 1.14-1.707 1.923-2.076Z"/><path fill="#363254" d="M51.96 5.746c.609-.286 1.276-.205 1.467.058a.29.29 0 0 1 .037.26c-.049.183-.247.447-.654.64-.755.356-2.097.565-2.512.464.153-.34.992-1.105 1.663-1.422Zm-.406-.786c-.655.308-1.988 1.292-2.2 2.07l.102.648c.63.876 3.17.091 3.762-.189.59-.278 1.004-.718 1.137-1.205a1.133 1.133 0 0 0-.171-.978c-.48-.664-1.634-.816-2.63-.346Z"/><path fill="#8B9DD7" d="M53.15 8.194c.84.277 1.308.92 1.05 1.436-.263.517-1.154.709-1.994.43-.838-.277-2.524-1.321-2.264-1.837.261-.517 2.37-.307 3.208-.03Z"/><path fill="#363254" d="M53 8.608c.45.15.699.4.779.583.06.14.02.223.005.25-.138.274-.779.42-1.427.205-.741-.245-1.737-.934-1.925-1.251.348-.115 1.757-.056 2.567.213Zm-3.472-.575v.637c.324.744 1.818 1.57 2.528 1.806 1.069.354 2.193.067 2.557-.654.078-.155.116-.322.116-.491 0-.16-.034-.32-.102-.478-.206-.473-.689-.863-1.326-1.073-.635-.211-3.293-.699-3.773.253Z"/><path fill="#8B9DD7" d="M53.273 6.603c1.247-.008 2.263.437 2.267.994.006.558-.999 1.016-2.246 1.024-1.245.008-4.066-.424-4.072-.98-.006-.559 2.806-1.029 4.051-1.038Z"/><path fill="#363254" d="M55.08 7.601c0 .022-.02.063-.075.117-.226.22-.859.458-1.714.464-1.07.007-2.76-.28-3.411-.547.646-.276 2.329-.586 3.397-.593 1.18-.008 1.802.412 1.803.56Zm-1.81-1.437c-.906.006-3.596.322-4.286.991l-.222.49c.013 1.29 4.49 1.415 4.535 1.415 1.004-.007 1.91-.285 2.364-.726.225-.219.342-.474.339-.741-.007-.838-1.155-1.439-2.73-1.43Z"/><path fill="url(#c)" d="M24.442 20.904v11.27c0 2.78-2.786 3.775-6.222 3.775-3.436 0-6.221-.996-6.221-3.775V20.772"/><path fill="#363254" d="M11.54 20.772v11.402c0 2.718 2.371 4.214 6.68 4.214 4.31 0 6.682-1.496 6.682-4.214v-11.27a.45.45 0 0 0-.46-.439.45.45 0 0 0-.46.44v11.27c0 2.757-3.133 3.335-5.762 3.335-2.628 0-5.761-.578-5.761-3.336V20.772a.45.45 0 0 0-.46-.44.45.45 0 0 0-.46.44Z"/><path fill="#8B9DD7" d="M14.726 32.16c0 1.125-.659 2.039-1.472 2.039-.812 0-1.471-.914-1.471-2.038 0-1.127.659-3.67 1.471-3.67.813 0 1.472 2.544 1.472 3.67Z"/><path fill="#363254" d="M11.936 32.16c0-1.224.698-3.522 1.318-3.522.62 0 1.318 2.298 1.318 3.523 0 1.043-.59 1.892-1.318 1.892-.726 0-1.318-.849-1.318-1.892Zm-.306 0c0 1.205.728 2.186 1.624 2.186.896 0 1.625-.98 1.625-2.185 0-1.1-.647-3.816-1.625-3.816-.976 0-1.624 2.716-1.624 3.816Z"/><path fill="#A6BDE6" d="M12.18 32.364c0-1.083.796-3.033 1.377-3.033.056 0 .11.028.163.07-.146-.344-.312-.57-.488-.57-.582 0-1.052 2.45-1.052 3.533Z"/><path fill="#8B9DD7" d="M15.42 33.244c0 .868-.524 1.573-1.17 1.573-.647 0-1.172-.705-1.172-1.573 0-.872.525-2.834 1.171-2.834.647 0 1.17 1.962 1.17 2.834Z"/><path fill="#363254" d="M13.232 33.243c0-.91.55-2.686 1.018-2.686.468 0 1.016 1.776 1.016 2.686 0 .787-.456 1.427-1.016 1.427-.562 0-1.018-.64-1.018-1.427Zm-.307 0c0 .948.594 1.72 1.325 1.72.729 0 1.323-.772 1.323-1.72 0-.741-.47-2.979-1.323-2.979-.855 0-1.325 2.238-1.325 2.98Z"/><path fill="#A6BDE6" d="M13.57 32.726c-.058-.619.49-1.646.918-1.721a.239.239 0 0 1 .122.02c-.125-.177-.267-.319-.388-.263-.424.2-.71 1.347-.651 1.964Z"/><path fill="url(#d)" d="M43.477 21.042v11.27c0 2.779-2.785 3.774-6.222 3.774-3.436 0-6.222-.995-6.222-3.774V20.909"/><path fill="#363254" d="M30.573 20.91v11.402c0 2.717 2.373 4.213 6.682 4.213 1.94 0 3.495-.303 4.623-.9 1.347-.714 2.059-1.859 2.059-3.313v-11.27a.45.45 0 0 0-.46-.439.45.45 0 0 0-.459.44v11.269c0 1.148-.52 1.98-1.587 2.546-.976.516-2.42.79-4.176.79-2.629 0-5.762-.58-5.762-3.336V20.909a.45.45 0 0 0-.46-.439.45.45 0 0 0-.46.44Z"/><path fill="#7483CA" d="M33.76 32.298c0 1.124-.658 2.04-1.47 2.04-.814 0-1.472-.916-1.472-2.04 0-1.126.658-3.669 1.472-3.669.812 0 1.47 2.543 1.47 3.669Z"/><path fill="#363254" d="M30.97 32.298c0-.575.175-1.484.424-2.21.278-.81.62-1.313.896-1.313.62 0 1.317 2.298 1.317 3.523 0 1.044-.59 1.893-1.317 1.893-.728 0-1.32-.85-1.32-1.893Zm.133-2.302c-.259.753-.439 1.7-.439 2.302 0 1.205.73 2.186 1.626 2.186.895 0 1.623-.981 1.623-2.186 0-1.1-.647-3.815-1.623-3.815-.552 0-.95.822-1.187 1.513Z"/><path fill="#839AD6" d="M31.215 32.502c0-1.083.796-3.034 1.377-3.034.056 0 .11.029.163.07-.146-.343-.312-.57-.488-.57-.582 0-1.052 2.451-1.052 3.534Z"/><path fill="#7483CA" d="M34.455 33.38c0 .87-.523 1.573-1.17 1.573-.647 0-1.17-.703-1.17-1.573s.523-2.832 1.17-2.832c.647 0 1.17 1.962 1.17 2.832Z"/><path fill="#363254" d="M32.268 33.38c0-.91.548-2.686 1.017-2.686.467 0 1.016 1.776 1.016 2.686 0 .787-.456 1.427-1.017 1.427-.56 0-1.016-.64-1.016-1.427Zm-.307 0c0 .95.594 1.72 1.324 1.72.73 0 1.323-.77 1.323-1.72 0-.74-.47-2.978-1.323-2.978-.855 0-1.324 2.237-1.324 2.978Z"/><path fill="#839AD6" d="M32.606 32.864c-.06-.619.49-1.646.917-1.722a.232.232 0 0 1 .122.021c-.125-.178-.267-.32-.389-.264-.423.2-.71 1.347-.65 1.965Z"/><path fill="url(#e)" d="M19.208 5.513c2.423 3.9 2.165 7.193-1.064 8.92-1.933 1.034-.869 2.399-.869 2.399"/><path fill="#080604" d="M18.973 5.135a.428.428 0 0 0-.161.602c1.349 2.17 1.832 4.134 1.397 5.68-.31 1.1-1.08 1.986-2.29 2.633-.764.409-1.22.924-1.355 1.531-.185.825.32 1.485.343 1.513.15.193.435.232.639.09a.428.428 0 0 0 .1-.612c-.002-.003-.282-.383-.181-.816.08-.346.385-.662.903-.94 1.435-.768 2.353-1.834 2.73-3.171.5-1.78-.017-3.979-1.495-6.357a.472.472 0 0 0-.63-.153Z"/><path fill="url(#f)" d="M33.364 2.748s-4.024-.047-18.724.435S.483 8.882.46 16.373v18.02c0 1.525 1.334 2.14 2.981 2.14 1.646 0 2.983-.615 2.983-2.14 0 0 .38-5.148.707-8.28.733-11.38 14.613 1.87 24.702 1.252C41 26.803 48.22 23.671 48.22 16.228c0-7.445-4.731-13.48-14.857-13.48Z"/><path fill="#363254" d="M.92 34.394V15.58C.924 8.65.926 4.072 14.656 3.62c14.51-.475 18.663-.435 18.703-.435h.006c4.623 0 8.39 1.32 10.894 3.814 2.292 2.282 3.504 5.473 3.504 9.227 0 8.035-8.679 10.254-15.959 10.7-3.831.235-8.35-1.64-12.338-3.295-4.47-1.854-8.33-3.455-10.706-2.065-1.255.734-1.938 2.212-2.086 4.519-.323 3.085-.704 8.225-.708 8.277 0 1.51-1.582 1.731-2.524 1.731-.941 0-2.522-.221-2.522-1.7Zm13.704-31.65C.006 3.225.004 8.407.001 15.58L0 16.372v18.022c0 1.614 1.286 2.579 3.44 2.579 2.157 0 3.444-.965 3.444-2.58.002-.02.381-5.148.705-8.237.13-2.017.67-3.267 1.65-3.841 1.97-1.151 5.8.439 9.86 2.122 4.083 1.694 8.71 3.615 12.763 3.366 10.846-.666 16.819-4.776 16.819-11.576 0-3.984-1.3-7.385-3.76-9.835-2.68-2.671-6.678-4.083-11.557-4.083h.005c-.04 0-4.203-.042-18.745.436Z"/><path fill="url(#g)" d="M.861 16.868c.016 1.692-.225 16.474.718 17.361-.296-.654.352-14.975.344-15.875l-.009-.526v-.744A7.68 7.68 0 0 1 .857 16.6l.004.267Z"/><path fill="url(#h)" d="M33.358 3.244s-3.936-.046-18.32.425C.657 4.141.878 9.386.878 16.437l.003.26c.333.188.678.351 1.032.484.003-6.673.29-11.57 14.162-12.024 14.383-.471 18.32-.426 18.32-.426 5.5 0 9.288 1.838 11.645 4.706-2.17-3.71-6.28-6.193-12.68-6.193Z"/><path fill="url(#i)" d="M28.348 26.075V34.1c0 2.78-2.786 3.777-6.223 3.777-3.436 0-6.221-.998-6.221-3.777V21.885"/><path fill="#363254" d="M15.444 21.885V34.1c0 2.719 2.374 4.216 6.682 4.216 4.309 0 6.683-1.497 6.683-4.216v-8.025a.45.45 0 0 0-.46-.44.45.45 0 0 0-.46.44V34.1c0 2.76-3.134 3.338-5.763 3.338s-5.762-.579-5.762-3.338V21.885a.45.45 0 0 0-.46-.439.45.45 0 0 0-.46.439Z"/><path fill="#8B9DD7" d="M19.818 34.879c0 1.045-.879 1.893-1.963 1.893-1.085 0-1.964-.848-1.964-1.893 0-1.047.879-3.41 1.964-3.41 1.084 0 1.963 2.363 1.963 3.41Z"/><path fill="#363254" d="M16.044 34.879c0-1.02.876-3.263 1.81-3.263.936 0 1.811 2.244 1.811 3.263 0 .964-.811 1.747-1.81 1.747-.998 0-1.81-.783-1.81-1.747Zm-.306 0c0 1.124.95 2.04 2.117 2.04s2.117-.916 2.117-2.04c0-1.06-.894-3.556-2.117-3.556-1.223 0-2.117 2.495-2.117 3.556Z"/><path fill="#A6BDE6" d="M16.226 35.004c0-.936 1.1-2.618 1.904-2.618.077 0 .151.024.225.06-.202-.295-.431-.492-.674-.492-.805 0-1.455 2.115-1.455 3.05Z"/><path fill="#8B9DD7" d="M21.418 35.027c0 1.379-.91 2.5-2.033 2.5-1.124 0-2.034-1.121-2.034-2.5 0-1.38.91-4.498 2.034-4.498 1.123 0 2.033 3.117 2.033 4.498Z"/><path fill="#363254" d="M17.504 35.027c0-1.36.91-4.352 1.881-4.352s1.88 2.992 1.88 4.352c0 1.298-.843 2.354-1.88 2.354s-1.881-1.056-1.881-2.354Zm-.307 0c0 1.46.982 2.647 2.188 2.647 1.206 0 2.186-1.188 2.186-2.647 0-1.386-.923-4.644-2.186-4.644s-2.188 3.258-2.188 4.644Z"/><path fill="#A6BDE6" d="M17.899 35.277c0-1.33 1.1-3.719 1.904-3.719.076 0 .152.035.225.085-.201-.421-.432-.7-.674-.7-.805 0-1.455 3.006-1.455 4.334Z"/><path fill="#8B9DD7" d="M22.485 35.77c0 .975-.655 1.767-1.463 1.767s-1.464-.791-1.464-1.768c0-.98.655-3.186 1.463-3.186.809 0 1.464 2.206 1.464 3.186Z"/><path fill="#363254" d="M19.712 35.77c0-1.058.694-3.041 1.31-3.041.616 0 1.31 1.983 1.31 3.04 0 .895-.588 1.62-1.31 1.62-.723 0-1.31-.725-1.31-1.62Zm-.307 0c0 1.055.726 1.913 1.616 1.913.893 0 1.617-.858 1.617-1.914 0-.96-.644-3.332-1.617-3.332-.972 0-1.616 2.371-1.616 3.332Z"/><path fill="#A6BDE6" d="M20.174 35.187c-.074-.697.611-1.853 1.146-1.936a.306.306 0 0 1 .153.022c-.157-.2-.334-.36-.486-.296-.53.225-.887 1.515-.813 2.21Z"/><path fill="url(#j)" d="M47.39 20.56v13.227c0 2.778-2.786 3.776-6.223 3.776-3.436 0-6.221-.998-6.221-3.776v-7.6"/><path fill="#363254" d="M46.93 20.56v13.227c0 2.758-3.134 3.337-5.763 3.337-2.628 0-5.761-.579-5.761-3.337v-7.6a.45.45 0 0 0-.46-.44.45.45 0 0 0-.46.44v7.6c0 2.718 2.373 4.215 6.681 4.215 4.309 0 6.682-1.497 6.682-4.215V20.56a.449.449 0 0 0-.459-.44.45.45 0 0 0-.46.44Z"/><path fill="#8B9DD7" d="M38.86 34.565c0 1.045-.879 1.892-1.963 1.892-1.085 0-1.964-.847-1.964-1.892 0-1.047.879-3.41 1.964-3.41 1.084 0 1.963 2.363 1.963 3.41Z"/><path fill="#363254" d="M35.086 34.565c0-1.02.875-3.263 1.81-3.263.936 0 1.811 2.243 1.811 3.263 0 .963-.813 1.747-1.81 1.747-.999 0-1.81-.784-1.81-1.747Zm-.306 0c0 1.124.949 2.039 2.116 2.039 1.168 0 2.117-.915 2.117-2.04 0-1.06-.893-3.555-2.117-3.555-1.223 0-2.116 2.495-2.116 3.556Z"/><path fill="#A6BDE6" d="M35.268 34.69c0-.936 1.1-2.618 1.904-2.618.077 0 .15.024.225.06-.202-.296-.43-.492-.674-.492-.805 0-1.455 2.115-1.455 3.05Z"/><path fill="#8B9DD7" d="M40.46 34.712c0 1.38-.91 2.501-2.034 2.501-1.124 0-2.034-1.121-2.034-2.5 0-1.381.91-4.498 2.034-4.498 1.124 0 2.034 3.117 2.034 4.497Z"/><path fill="#363254" d="M36.545 34.712c0-1.36.91-4.351 1.881-4.351.972 0 1.88 2.991 1.88 4.351 0 1.298-.843 2.355-1.88 2.355s-1.88-1.057-1.88-2.355Zm-.306 0c0 1.46.981 2.647 2.188 2.647 1.205 0 2.186-1.187 2.186-2.647 0-1.385-.923-4.644-2.187-4.644-1.264 0-2.187 3.259-2.187 4.644Z"/><path fill="#A6BDE6" d="M36.94 34.963c0-1.33 1.101-3.719 1.904-3.719.077 0 .152.035.226.085-.201-.422-.431-.699-.675-.699-.804 0-1.454 3.005-1.454 4.333Z"/><path fill="#8B9DD7" d="M41.526 35.455c0 .977-.655 1.768-1.463 1.768s-1.463-.791-1.463-1.768c0-.98.655-3.187 1.463-3.187s1.463 2.207 1.463 3.187Z"/><path fill="#363254" d="M38.753 35.455c0-1.057.694-3.04 1.31-3.04.616 0 1.31 1.983 1.31 3.04 0 .894-.588 1.621-1.31 1.621-.722 0-1.31-.727-1.31-1.621Zm-.306 0c0 1.056.725 1.913 1.617 1.913.89 0 1.616-.857 1.616-1.913 0-.96-.644-3.333-1.616-3.333-.973 0-1.617 2.372-1.617 3.333Z"/><path fill="#A6BDE6" d="M39.216 34.873c-.074-.698.611-1.853 1.146-1.936a.3.3 0 0 1 .153.022c-.157-.2-.334-.359-.486-.297-.53.225-.887 1.516-.813 2.21Z"/><path fill="#363254" d="M4.358 9.025a.463.463 0 0 0 .129.671.538.538 0 0 0 .717-.12c.924-1.243 3.004-1.585 3.992-1.232.197.07.446.04.555-.07.109-.109.038-.255-.16-.325-1.353-.485-4.009-.572-5.233 1.076ZM8.365 14.49c-.854.178-1.606-.295-1.68-1.056-.074-.762.559-1.524 1.413-1.703.854-.18 1.607.292 1.682 1.055.073.762-.56 1.523-1.415 1.704Zm1.766-1.806c-.086-.888-.975-1.434-1.988-1.223-1.012.212-1.764 1.101-1.679 1.988.086.886.975 1.434 1.987 1.224 1.013-.213 1.765-1.102 1.68-1.989Z"/><path fill="#FCFCFC" d="M9.726 12.847c.064.67-.49 1.341-1.237 1.498-.75.158-1.409-.259-1.476-.929-.064-.67.49-1.34 1.238-1.497.75-.158 1.41.258 1.475.928Z"/><path fill="#363254" d="M9.616 12.854c-.203-.51-.74-.806-1.196-.664a.747.747 0 0 0-.49.495l.637.313-.585.418c.217.481.73.758 1.173.62.458-.143.663-.672.461-1.182Z"/><path fill="#fff" d="M9.147 12.635c.113-.016.247.12.295.309.05.186-.003.352-.12.37-.114.017-.247-.12-.297-.308-.047-.187.007-.352.122-.37Z"/><path fill="#363254" d="M7.293 11.866c-.8.61-1.052 1.497-.512 2-.047-.02.055.109.012.085-.85-.467-.992-1.852-.21-2.667.672-.7 2.688-1.22 2.673-.95-.083.31-.673.704-1.406 1.13-.236.134-.406.287-.557.402ZM20.424 20.47c-.041.207.1.378.315.378h1.231c.215 0 .423-.17.465-.379l.328-1.672a.492.492 0 0 1 .464-.379h1.332c.76 0 1.386-.079 1.876-.237a3.56 3.56 0 0 0 1.339-.795 4.07 4.07 0 0 0 .818-1.015c.208-.369.357-.777.444-1.223.213-1.083.003-1.889-.48-2.532-.609-.806-2.16-.848-2.16-.848a6.383 6.383 0 0 0-.776-.059h-3.087a.493.493 0 0 0-.464.38l-1.645 8.38Zm4.824-7.318c.765 0 1.273.14 1.528.419.254.279.315.758.182 1.437-.14.707-.407 1.213-.804 1.515-.396.302-1.423.411-1.423.411a8.717 8.717 0 0 1-.778.042h-.443c-.214 0-.357-.17-.315-.378l.602-3.067a.492.492 0 0 1 .464-.38h.987ZM30.976 9.659a.491.491 0 0 1 .463-.378h1.216c.215 0 .356.17.315.378l-.328 1.672c-.041.209.102.378.316.378h.997c.214 0 .564.019.777.04 0 0 1.455.017 1.926.54.385.426.552 1.012.382 1.877l-.76 3.874a.492.492 0 0 1-.464.378H34.57c-.214 0-.357-.17-.316-.378l.646-3.286c.04-.209.087-.552.102-.764 0 0 .03-.389-.128-.556-.156-.167-.49-.25-1-.25h-1.205a.492.492 0 0 0-.465.378l-.878 4.478a.492.492 0 0 1-.464.378h-1.216c-.214 0-.356-.17-.315-.378l1.646-8.381ZM37.143 20.47c-.042.207.1.378.315.378h1.231c.214 0 .424-.17.464-.379l.328-1.672a.492.492 0 0 1 .464-.379h1.333c.76 0 1.385-.079 1.876-.237a3.56 3.56 0 0 0 1.338-.795c.338-.306.61-.644.818-1.015.209-.369.357-.777.445-1.223.212-1.083.02-1.9-.481-2.532-.622-.783-2.16-.848-2.16-.848a6.384 6.384 0 0 0-.775-.059h-3.087a.492.492 0 0 0-.464.38l-1.645 8.38Zm4.825-7.318c.763 0 1.272.14 1.527.419.254.279.315.758.182 1.437-.14.707-.407 1.213-.804 1.515-.397.302-1.424.411-1.424.411a8.68 8.68 0 0 1-.777.042h-.444c-.214 0-.355-.17-.315-.378l.602-3.067a.493.493 0 0 1 .464-.38h.989Z"/><path fill="#363254" d="M20.424 20.47c-.041.207.1.378.315.378h1.231c.215 0 .423-.17.465-.379l.328-1.672a.492.492 0 0 1 .464-.379h1.332c.76 0 1.386-.079 1.876-.237a3.56 3.56 0 0 0 1.339-.795 4.07 4.07 0 0 0 .818-1.015c.208-.369.357-.777.444-1.223.213-1.083.003-1.889-.48-2.532-.609-.806-2.16-.848-2.16-.848a6.383 6.383 0 0 0-.776-.059h-3.087a.493.493 0 0 0-.464.38l-1.645 8.38Zm4.824-7.318c.765 0 1.273.14 1.528.419.254.279.315.758.182 1.437-.14.707-.407 1.213-.804 1.515-.396.302-1.423.411-1.423.411a8.717 8.717 0 0 1-.778.042h-.443c-.214 0-.357-.17-.315-.378l.602-3.067a.492.492 0 0 1 .464-.38h.987ZM30.976 9.659a.491.491 0 0 1 .463-.378h1.216c.215 0 .356.17.315.378l-.328 1.672c-.041.209.102.378.316.378h.997c.214 0 .564.019.777.04 0 0 1.455.017 1.926.54.385.426.552 1.012.382 1.877l-.76 3.874a.492.492 0 0 1-.464.378H34.57c-.214 0-.357-.17-.316-.378l.646-3.286c.04-.209.087-.552.102-.764 0 0 .03-.389-.128-.556-.156-.167-.49-.25-1-.25h-1.205a.492.492 0 0 0-.465.378l-.878 4.478a.492.492 0 0 1-.464.378h-1.216c-.214 0-.356-.17-.315-.378l1.646-8.381ZM37.143 20.47c-.042.207.1.378.315.378h1.231c.214 0 .424-.17.464-.379l.328-1.672a.492.492 0 0 1 .464-.379h1.333c.76 0 1.385-.079 1.876-.237a3.56 3.56 0 0 0 1.338-.795c.338-.306.61-.644.818-1.015.209-.369.357-.777.445-1.223.212-1.083.02-1.9-.481-2.532-.622-.783-2.16-.848-2.16-.848a6.384 6.384 0 0 0-.775-.059h-3.087a.492.492 0 0 0-.464.38l-1.645 8.38Zm4.825-7.318c.763 0 1.272.14 1.527.419.254.279.315.758.182 1.437-.14.707-.407 1.213-.804 1.515-.397.302-1.424.411-1.424.411a8.68 8.68 0 0 1-.777.042h-.444c-.214 0-.355-.17-.315-.378l.602-3.067a.493.493 0 0 1 .464-.38h.989Z"/><path fill="url(#k)" d="M12.153 4.11S15.8 1.63 18.101.78c.734-.271 6.029-1.656 6.887 7.393.47 4.954-.376 8.376-4.48 8.996-2.457.371-2.076 2.183-2.076 2.183"/><path fill="#363254" d="M17.935.37c-2.33.861-5.897 3.28-6.049 3.383a.426.426 0 0 0-.107.612.474.474 0 0 0 .641.102c.036-.023 3.625-2.457 5.846-3.278.07-.025 1.704-.61 3.273.319 1.633.969 2.667 3.286 2.992 6.704.517 5.463-.708 8.011-4.095 8.524-.96.144-1.66.509-2.078 1.085a2.174 2.174 0 0 0-.377 1.618c.05.235.289.388.537.342a.442.442 0 0 0 .365-.512 1.337 1.337 0 0 1 .236-.956c.272-.366.763-.605 1.46-.711 5.037-.76 5.247-5.46 4.868-9.469-.357-3.756-1.51-6.236-3.423-7.37-1.92-1.14-3.873-.472-4.09-.392Z"/><path fill="url(#l)" d="M15.883 3.454C20.01.9 22.3 2.206 22.3 2.206a4.276 4.276 0 0 0-4.26-.92c-2.294.85-6.725 3.992-6.725 3.992s-.6 1.052.594.824c0 0 2.598-1.796 3.973-2.648Z"/><path fill="#363254" d="M14.393 15.508c-.036 2.074-.73 3.963-1.812 4.926-.49.438-1.038.654-1.585.628a.301.301 0 0 0-.322.276c-.008.162.122.3.29.307.717.036 1.42-.235 2.036-.783 1.2-1.068 1.968-3.116 2.006-5.345a.298.298 0 0 0-.301-.297.301.301 0 0 0-.312.288Z"/><path fill="#363254" d="M15.72 14.027c-.23.524-.634.858-1.107.914-.462.054-.93-.16-1.255-.573a.316.316 0 0 0-.43-.058.283.283 0 0 0-.06.41c.457.582 1.138.882 1.82.802.698-.083 1.28-.546 1.598-1.268a.288.288 0 0 0-.164-.383.312.312 0 0 0-.401.156Z"/><defs><linearGradient id="a" x1="61.248" x2="101.238" y1="9.129" y2="-47.172" gradientUnits="userSpaceOnUse"><stop stop-color="#8C9BD6"/><stop offset="1" stop-color="#505E9B"/></linearGradient><linearGradient id="b" x1="-81.981" x2="152.632" y1="286.512" y2="231.463" gradientUnits="userSpaceOnUse"><stop stop-color="#808FD0"/><stop offset="1" stop-color="#505E9B"/></linearGradient><linearGradient id="c" x1="9.917" x2="55.948" y1="29.16" y2="-32.63" gradientUnits="userSpaceOnUse"><stop stop-color="#8C9BD6"/><stop offset="1" stop-color="#505E9B"/></linearGradient><linearGradient id="d" x1="-44.54" x2="1.493" y1="51.693" y2="-10.093" gradientUnits="userSpaceOnUse"><stop stop-color="#8C9BD6"/><stop offset="1" stop-color="#505E9B"/></linearGradient><linearGradient id="e" x1="74.437" x2="109.654" y1="9.55" y2="-104.647" gradientUnits="userSpaceOnUse"><stop stop-color="#808FD0"/><stop offset="1" stop-color="#505E9B"/></linearGradient><linearGradient id="f" x1="21.753" x2="42.873" y1="20.59" y2="4.147" gradientUnits="userSpaceOnUse"><stop stop-color="#8C9BD6"/><stop offset="1" stop-color="#505E9B"/></linearGradient><linearGradient id="g" x1="-379.411" x2="-377.798" y1="44.363" y2="-12.378" gradientUnits="userSpaceOnUse"><stop stop-color="#FAFAFD"/><stop offset="1" stop-color="#8892D2"/></linearGradient><linearGradient id="h" x1="16.041" x2="54.612" y1="49.643" y2="24.021" gradientUnits="userSpaceOnUse"><stop stop-color="#FAFAFD"/><stop offset="1" stop-color="#8892D2"/></linearGradient><linearGradient id="i" x1="-8.973" x2="33.989" y1="31.21" y2="-29.552" gradientUnits="userSpaceOnUse"><stop stop-color="#8C9BD6"/><stop offset="1" stop-color="#505E9B"/></linearGradient><linearGradient id="j" x1="-57.168" x2="-17.505" y1="53.014" y2="-6.629" gradientUnits="userSpaceOnUse"><stop stop-color="#8C9BD6"/><stop offset="1" stop-color="#505E9B"/></linearGradient><linearGradient id="k" x1="48.393" x2="83.305" y1="13.717" y2="-42.083" gradientUnits="userSpaceOnUse"><stop stop-color="#8C9BD6"/><stop offset="1" stop-color="#505E9B"/></linearGradient><linearGradient id="l" x1="11.567" x2="129.174" y1="51.366" y2="-63.815" gradientUnits="userSpaceOnUse"><stop stop-color="#FAFAFD"/><stop offset="1" stop-color="#8892D2"/></linearGradient></defs></svg>