<svg xmlns="http://www.w3.org/2000/svg" fill="none" viewBox="0 0 47 50"><path fill="currentColor" d="M23.148 50h-.005a12.056 12.056 0 0 1-8.456-3.502 12.193 12.193 0 0 1-3.598-8.455.674.674 0 0 1-.006-.087V12.017c0-.035.003-.07.008-.104a12.157 12.157 0 0 1 3.613-8.445A12.02 12.02 0 0 1 23.171 0a12.02 12.02 0 0 1 8.452 3.504 12.158 12.158 0 0 1 3.576 8.461V37.958a12.194 12.194 0 0 1-3.568 8.508A12.056 12.056 0 0 1 23.148 50ZM12.39 37.879a.65.65 0 0 1 .005.074 10.872 10.872 0 0 0 3.183 7.583 10.75 10.75 0 0 0 7.562 3.15h.007a10.751 10.751 0 0 0 7.563-3.15 10.874 10.874 0 0 0 3.185-7.583V12.025a10.84 10.84 0 0 0-3.198-7.551 10.718 10.718 0 0 0-7.55-3.116c-2.826 0-5.539 1.12-7.55 3.116a10.84 10.84 0 0 0-3.198 7.55.638.638 0 0 1-.007.087l-.002 25.768Z"/><path fill="currentColor" d="M12.067 43.562a12.01 12.01 0 0 1-7.31-2.473 12.127 12.127 0 0 1-4.322-6.423c-.703-2.56-.55-5.28.433-7.744a12.105 12.105 0 0 1 5.011-5.896l.047-.03 22.338-12.97A11.997 11.997 0 0 1 37.35 6.88a12.067 12.067 0 0 1 7.267 5.603 12.185 12.185 0 0 1 1.256 9.123 12.12 12.12 0 0 1-5.48 7.379.62.62 0 0 1-.07.048l-22.338 12.97a.63.63 0 0 1-.095.046 12.027 12.027 0 0 1-5.823 1.513ZM6.622 22.116l-.034.021a10.792 10.792 0 0 0-4.493 5.248 10.867 10.867 0 0 0-.404 6.913 10.813 10.813 0 0 0 3.851 5.741 10.709 10.709 0 0 0 6.525 2.213 10.727 10.727 0 0 0 5.27-1.394.688.688 0 0 1 .078-.038l22.188-12.883a.673.673 0 0 1 .062-.041 10.804 10.804 0 0 0 4.97-6.564c.729-2.762.34-5.702-1.081-8.178a10.759 10.759 0 0 0-6.502-5.03 10.697 10.697 0 0 0-8.137 1.047L6.622 22.116Z"/><path fill="currentColor" d="M34.217 43.561a12.039 12.039 0 0 1-5.87-1.537l-.048-.025-22.338-12.97a12.118 12.118 0 0 1-5.533-7.34 12.186 12.186 0 0 1 1.192-9.133A12.067 12.067 0 0 1 8.85 6.901a11.997 11.997 0 0 1 9.095 1.084.642.642 0 0 1 .077.039l22.337 12.969c.03.017.059.037.086.06a12.105 12.105 0 0 1 4.983 5.903 12.188 12.188 0 0 1 .413 7.732 12.126 12.126 0 0 1-4.325 6.407 12.008 12.008 0 0 1-7.298 2.466Zm-5.304-2.724.034.019a10.695 10.695 0 0 0 8.133 1.04 10.756 10.756 0 0 0 6.496-5.028 10.863 10.863 0 0 0 1.081-8.173 10.802 10.802 0 0 0-4.962-6.562.665.665 0 0 1-.072-.05L17.433 9.2a.625.625 0 0 1-.065-.033 10.697 10.697 0 0 0-8.123-1.024A10.758 10.758 0 0 0 2.76 13.17a10.865 10.865 0 0 0-1.086 8.16 10.804 10.804 0 0 0 4.944 6.563l22.294 12.945Z"/></svg>